{"glyphs":{"0":{"ha":688,"x_min":0,"x_max":0,"o":"m 278 -15 b 678 585 565 -15 678 314 b 442 892 678 785 588 892 b 42 290 189 892 42 622 b 278 -15 42 113 114 -15 z m 290 46 b 210 225 238 46 210 106 b 428 833 210 492 278 833 b 510 656 482 833 510 775 b 290 46 510 378 439 46 z "},"1":{"ha":688,"x_min":0,"x_max":0,"o":"m 551 0 l 563 51 b 400 122 450 51 400 72 b 403 144 400 129 401 138 l 563 888 l 489 888 l 186 811 l 174 751 b 315 769 219 763 288 769 b 351 736 340 769 351 760 b 347 701 351 726 350 715 l 229 144 b 33 51 215 75 164 51 l 22 0 z "},"2":{"ha":688,"x_min":0,"x_max":0,"o":"m 521 0 l 621 257 l 572 257 b 424 144 522 174 497 144 l 246 144 l 151 136 l 153 146 l 353 294 b 675 704 578 463 675 557 b 456 899 675 822 593 899 b 114 688 307 899 192 822 l 156 667 b 376 799 228 767 293 799 b 497 675 456 799 497 749 b 215 264 497 531 429 440 l -19 76 l -35 0 z "},"3":{"ha":688,"x_min":0,"x_max":0,"o":"m 156 -19 b 622 303 397 -19 622 92 b 454 501 622 396 561 463 l 454 510 b 664 742 585 567 664 621 b 460 903 664 835 593 903 b 150 715 332 903 233 836 l 186 692 b 383 799 246 760 301 799 b 494 700 451 799 494 765 b 272 503 494 589 375 503 l 246 503 l 229 431 l 256 431 b 454 265 381 431 454 374 b 268 53 454 124 365 53 b 82 142 181 53 151 142 b 4 61 29 142 4 99 b 156 -19 4 14 38 -19 z "},"4":{"ha":688,"x_min":0,"x_max":0,"o":"m 475 0 l 517 192 l 642 192 l 669 326 l 544 326 l 665 896 l 536 896 l 32 317 l 7 192 l 349 192 l 307 0 z m 376 326 l 133 326 l 135 332 l 453 703 l 457 703 z "},"5":{"ha":688,"x_min":0,"x_max":0,"o":"m 151 -21 b 636 339 408 -21 636 96 b 254 590 636 553 411 589 l 303 740 l 668 740 l 708 875 l 274 875 l 140 476 l 154 447 b 215 446 167 447 179 447 b 475 267 376 438 475 404 b 263 53 475 128 396 53 b 83 142 175 53 150 142 b 3 60 31 142 3 103 b 151 -21 3 13 40 -21 z "},"6":{"ha":688,"x_min":0,"x_max":0,"o":"m 293 -19 b 647 342 526 -19 647 129 b 457 574 647 492 567 574 b 254 492 375 574 318 543 l 243 492 b 714 847 324 692 514 818 l 714 897 b 42 253 356 883 42 649 b 293 -19 42 96 118 -19 z m 308 40 b 206 218 238 40 206 114 b 372 481 206 417 292 481 b 475 321 440 481 475 413 b 308 40 475 151 415 40 z "},"7":{"ha":688,"x_min":0,"x_max":0,"o":"m 238 -11 l 728 799 l 746 875 l 190 875 l 97 633 l 149 629 b 282 733 204 719 214 733 l 594 733 l 86 -11 z "},"8":{"ha":688,"x_min":0,"x_max":0,"o":"m 271 -18 b 617 249 465 -18 617 78 b 460 490 617 336 582 397 l 461 496 b 676 740 633 578 676 653 b 464 901 676 835 592 901 b 142 651 285 901 142 806 b 267 436 142 575 174 513 l 265 432 b 29 157 99 346 29 285 b 271 -18 29 42 125 -18 z m 308 403 b 446 197 401 326 446 268 b 283 35 446 88 372 35 b 167 169 210 35 167 71 b 308 403 167 281 213 329 z m 414 524 b 303 693 336 583 303 633 b 450 844 303 785 365 844 b 543 744 510 844 543 808 b 414 524 543 654 497 585 z "},"9":{"ha":688,"x_min":0,"x_max":0,"o":"m 26 -18 b 672 621 393 -18 672 193 b 433 897 672 774 607 897 b 82 529 207 897 82 750 b 272 308 82 393 151 308 b 471 394 347 308 406 336 l 482 393 b 26 35 408 156 218 54 z m 356 403 b 250 554 286 403 250 464 b 415 839 250 722 315 839 b 513 674 486 839 513 769 b 356 403 513 465 436 403 z "}," ":{"ha":313,"x_min":0,"x_max":0,"o":""}," ":{"ha":313,"x_min":0,"x_max":0,"o":""},"A":{"ha":971,"x_min":0,"x_max":0,"o":"m 225 0 l 235 53 b 156 90 175 53 156 60 b 193 179 156 118 176 151 l 269 297 l 599 297 l 613 199 b 615 136 614 181 615 156 b 514 53 615 58 563 53 l 503 0 l 914 0 l 922 53 b 807 182 851 53 822 92 l 696 919 l 593 919 l 118 204 b -68 53 35 78 4 53 l -79 0 z m 310 364 l 547 729 l 553 729 l 592 364 z "},"B":{"ha":878,"x_min":0,"x_max":0,"o":"m 429 0 b 826 292 671 0 826 103 b 628 482 826 417 731 467 l 629 489 b 875 742 768 524 875 593 b 581 913 875 842 803 913 l 165 913 l 154 858 b 256 736 254 858 279 844 l 140 182 b -11 53 118 69 96 53 l -24 0 z m 371 63 b 292 67 340 63 319 64 l 369 443 l 449 443 b 631 285 544 443 631 417 b 371 63 631 86 511 63 z m 383 510 l 451 840 b 517 844 479 843 494 844 b 685 725 643 844 685 800 b 454 510 685 599 610 510 z "},"C":{"ha":943,"x_min":0,"x_max":0,"o":"m 435 -17 b 854 203 636 -17 754 88 l 822 236 b 517 103 728 149 643 103 b 265 364 351 103 265 175 b 635 860 265 638 406 860 b 842 596 769 860 843 774 l 899 596 l 968 929 l 917 929 b 863 882 901 904 889 882 b 651 929 824 882 789 929 b 85 328 332 929 85 710 b 435 -17 85 133 183 -17 z "},"D":{"ha":1021,"x_min":0,"x_max":0,"o":"m 357 0 b 990 558 708 0 990 149 b 544 913 990 821 801 913 l 165 913 l 154 857 b 257 742 251 857 278 844 l 142 183 b -12 53 118 71 97 53 l -24 0 z m 364 69 b 290 72 339 69 314 69 l 450 840 b 507 842 475 842 488 842 b 803 539 725 842 803 725 b 364 69 803 201 657 69 z "},"E":{"ha":881,"x_min":0,"x_max":0,"o":"m 733 0 l 818 268 l 760 268 b 453 74 681 110 646 74 l 290 74 l 365 436 l 497 436 b 622 307 631 436 646 422 l 678 307 l 744 628 l 688 628 b 511 503 665 518 644 503 l 379 503 l 449 838 l 632 838 b 806 669 792 838 813 800 l 867 669 l 907 913 l 163 913 l 151 858 b 254 732 264 858 276 838 l 138 168 b -12 53 115 67 81 53 l -24 0 z "},"F":{"ha":835,"x_min":0,"x_max":0,"o":"m 419 0 l 431 53 b 304 115 342 53 304 64 b 310 163 304 128 306 144 l 365 432 l 486 432 b 614 306 606 432 636 419 l 671 306 l 738 631 l 681 631 b 500 499 657 518 618 499 l 379 499 l 449 838 l 628 838 b 808 668 806 838 811 800 l 869 668 l 910 913 l 163 913 l 151 858 b 257 743 260 858 275 842 l 139 174 b -12 53 117 71 88 53 l -24 0 z "},"G":{"ha":994,"x_min":0,"x_max":0,"o":"m 450 -15 b 815 79 599 -15 703 21 l 854 269 b 968 375 872 356 890 375 l 978 431 l 613 431 l 601 375 b 694 256 706 375 715 356 l 669 124 b 472 60 608 81 554 60 b 269 332 331 60 269 154 b 635 860 269 613 388 860 b 849 600 776 860 853 785 l 907 600 l 975 929 l 922 929 b 867 878 906 901 892 878 b 650 929 831 878 796 929 b 85 331 349 929 85 731 b 450 -15 85 126 190 -15 z "},"H":{"ha":1106,"x_min":0,"x_max":0,"o":"m 401 0 l 413 53 b 317 193 299 53 290 71 l 365 431 l 781 431 l 731 193 b 579 53 706 72 694 53 l 568 0 l 993 0 l 1004 53 b 904 193 886 53 878 74 l 1013 717 b 1169 860 1035 826 1046 860 l 1179 913 l 754 913 l 743 860 b 840 717 863 860 861 826 l 794 499 l 379 499 l 424 717 b 583 860 449 826 457 860 l 592 913 l 163 913 l 151 860 b 251 717 274 860 274 826 l 143 193 b -12 53 117 71 100 53 l -24 0 z "},"I":{"ha":517,"x_min":0,"x_max":0,"o":"m 400 0 l 411 53 b 315 192 296 53 292 72 l 424 717 b 582 860 447 825 460 860 l 593 913 l 163 913 l 151 860 b 251 717 274 860 274 826 l 143 193 b -12 53 117 72 104 53 l -24 0 z "},"J":{"ha":614,"x_min":0,"x_max":0,"o":"m 119 -18 b 438 224 253 -18 396 18 l 540 717 b 699 860 563 825 578 860 l 708 913 l 265 913 l 253 860 b 367 717 385 860 388 825 l 256 179 b 164 42 233 74 217 42 b 35 185 99 42 138 185 b -43 97 -14 185 -43 149 b 119 -18 -43 14 35 -18 z "},"K":{"ha":972,"x_min":0,"x_max":0,"o":"m 404 0 l 415 53 b 315 193 297 53 293 75 l 364 424 l 376 424 l 463 308 b 596 94 563 176 596 132 b 535 53 596 63 569 53 l 514 53 l 504 0 l 942 0 l 953 53 b 821 114 888 53 854 69 l 519 507 l 854 767 b 1053 858 942 836 975 853 l 1064 913 l 711 913 l 699 858 l 722 858 b 769 826 753 858 769 847 b 653 689 769 783 736 757 l 381 469 l 374 469 l 424 717 b 586 860 447 825 458 860 l 596 913 l 163 913 l 151 860 b 251 717 274 860 274 826 l 143 193 b -12 53 117 74 104 53 l -24 0 z "},"L":{"ha":849,"x_min":0,"x_max":0,"o":"m 717 0 l 810 285 l 750 285 b 472 74 672 122 633 74 l 396 74 b 308 153 314 74 296 86 l 428 729 b 590 860 449 835 479 860 l 600 913 l 163 913 l 153 860 b 254 731 269 860 275 831 l 140 183 b -14 53 117 74 99 53 l -25 0 z "},"M":{"ha":1294,"x_min":0,"x_max":0,"o":"m 300 0 l 311 53 b 221 208 207 53 192 65 l 331 739 l 338 739 l 493 0 l 572 0 l 1026 740 l 1033 740 l 915 169 b 772 53 896 74 875 53 l 761 0 l 1176 0 l 1186 53 b 1088 169 1090 53 1067 74 l 1203 732 b 1349 860 1226 835 1254 860 l 1361 913 l 1039 913 l 638 247 l 628 247 l 496 913 l 153 913 l 142 860 b 240 731 247 860 263 835 l 132 208 b -25 53 103 65 83 53 l -36 0 z "},"N":{"ha":1033,"x_min":0,"x_max":0,"o":"m 818 -10 l 960 678 b 1121 860 983 794 1015 860 l 1132 913 l 794 913 l 785 860 b 878 681 904 860 900 790 l 789 247 l 782 247 l 429 913 l 151 913 l 140 860 b 253 793 200 860 222 847 l 135 218 b -26 53 106 79 83 53 l -36 0 l 296 0 l 308 53 b 217 218 204 53 188 79 l 319 717 l 326 717 l 713 -10 z "},"O":{"ha":1019,"x_min":0,"x_max":0,"o":"m 443 -18 b 990 574 772 -18 990 228 b 628 929 990 782 871 929 b 85 342 304 929 85 682 b 443 -18 85 124 199 -18 z m 460 49 b 268 322 322 49 268 160 b 611 864 268 629 406 864 b 806 589 735 864 806 767 b 460 49 806 340 718 49 z "},"P":{"ha":854,"x_min":0,"x_max":0,"o":"m 425 0 l 436 53 b 314 182 307 53 292 69 l 360 399 b 456 385 383 392 418 385 b 875 719 663 385 875 468 b 568 913 875 875 735 913 l 165 913 l 156 860 b 260 754 249 860 278 842 l 142 188 b -10 53 118 71 101 53 l -21 0 z m 372 463 l 451 844 b 521 850 481 847 494 850 b 693 700 644 850 693 800 b 443 457 693 544 608 457 b 372 463 414 457 390 461 z "},"Q":{"ha":1018,"x_min":0,"x_max":0,"o":"m 854 -242 l 864 -190 b 569 -4 689 -190 628 -124 l 571 0 b 990 574 821 56 990 274 b 629 929 990 782 869 929 b 85 342 307 929 85 685 b 389 -12 85 128 190 6 l 407 -72 b 785 -242 444 -199 558 -242 z m 460 49 b 268 322 325 49 268 154 b 610 864 267 644 417 864 b 806 589 740 864 806 760 b 460 49 806 338 718 49 z "},"R":{"ha":926,"x_min":0,"x_max":0,"o":"m 413 0 l 422 53 b 313 182 304 53 289 68 l 360 408 l 393 408 b 475 361 440 408 457 403 b 621 0 514 272 535 225 l 890 0 l 901 53 b 772 124 839 53 803 65 b 599 435 665 336 640 403 l 600 442 b 876 719 732 468 876 536 b 567 913 876 861 744 913 l 165 913 l 154 860 b 258 753 264 860 275 833 l 140 183 b -10 53 115 68 93 53 l -22 0 z m 372 471 l 450 846 b 532 850 479 849 501 850 b 692 707 650 850 692 792 b 421 469 692 540 599 478 z "},"S":{"ha":767,"x_min":0,"x_max":0,"o":"m 83 -19 b 129 25 89 8 107 25 b 321 -17 158 25 185 -17 b 694 288 532 -17 694 94 b 496 544 694 424 597 486 b 325 726 406 594 325 642 b 501 868 325 817 388 868 b 669 644 618 868 664 806 l 724 644 l 776 928 l 731 928 b 682 892 719 899 700 892 b 503 928 649 892 610 928 b 167 654 313 928 167 833 b 344 417 167 525 250 472 b 517 211 433 364 518 315 b 315 54 517 97 421 54 b 142 281 194 53 149 99 l 85 281 l 31 -19 z "},"T":{"ha":896,"x_min":0,"x_max":0,"o":"m 596 0 l 607 53 b 503 194 490 53 476 68 l 636 843 l 704 843 b 861 650 856 843 861 801 l 921 650 l 965 913 l 167 913 l 100 650 l 160 650 b 394 843 221 801 243 843 l 463 843 l 329 194 b 167 53 303 68 283 53 l 156 0 z "},"U":{"ha":1050,"x_min":0,"x_max":0,"o":"m 461 -18 b 910 365 728 -18 857 110 l 976 685 b 1142 860 1006 828 1024 860 l 1153 913 l 804 913 l 794 860 b 900 788 872 860 900 844 b 885 681 900 763 894 726 l 817 353 b 517 88 779 161 692 88 b 321 250 372 88 321 140 b 333 361 321 281 325 319 l 411 731 b 568 860 433 835 456 860 l 579 913 l 143 913 l 132 860 b 246 793 215 860 246 844 b 238 738 246 779 243 760 l 156 344 b 142 221 146 299 142 258 b 461 -18 142 53 240 -18 z "},"V":{"ha":939,"x_min":0,"x_max":0,"o":"m 369 -7 l 849 668 b 1071 860 967 838 994 860 l 1081 913 l 775 913 l 765 860 b 842 824 819 860 842 850 b 807 746 842 800 821 767 l 533 344 l 447 211 l 436 211 l 428 357 l 383 711 b 381 758 382 726 381 747 b 496 860 379 839 426 860 l 503 913 l 99 913 l 90 860 b 197 735 169 860 183 826 l 293 -7 z "},"W":{"ha":1342,"x_min":0,"x_max":0,"o":"m 838 -10 l 1326 763 b 1468 860 1371 833 1404 858 l 1476 913 l 1181 913 l 1168 860 b 1244 815 1218 860 1244 851 b 1189 690 1244 774 1200 707 l 910 243 l 901 243 l 900 367 l 872 729 b 871 764 872 740 871 753 b 994 860 871 836 911 860 l 1004 913 l 614 913 l 603 860 b 699 728 679 860 690 847 l 704 626 l 439 242 l 428 242 l 425 361 l 388 744 b 386 779 385 757 385 771 b 386 783 386 781 386 782 b 493 860 386 826 406 860 l 503 913 l 106 913 l 94 860 b 201 728 175 860 193 824 l 272 -10 l 356 -10 l 704 506 l 711 506 l 749 -10 z "},"X":{"ha":900,"x_min":0,"x_max":0,"o":"m 849 0 l 860 53 b 733 139 796 54 765 72 l 556 496 l 788 729 b 1001 858 888 831 917 854 l 1014 913 l 686 913 l 675 858 b 754 829 735 858 754 850 b 697 738 754 801 733 779 l 528 553 l 522 553 l 476 675 b 429 808 460 718 429 774 b 513 858 429 847 451 858 l 525 858 l 539 913 l 119 913 l 108 858 b 251 756 201 858 211 833 l 397 451 l 97 149 b -68 53 24 75 -3 54 l -79 0 l 247 0 l 260 53 b 172 89 190 53 172 64 b 228 179 172 119 206 156 l 426 390 l 431 390 l 457 321 l 507 200 b 532 110 525 157 532 131 b 442 53 532 75 503 53 l 431 53 l 419 0 z "},"Y":{"ha":882,"x_min":0,"x_max":0,"o":"m 818 733 b 1017 860 903 840 936 854 l 1026 913 l 721 913 l 708 860 b 783 831 771 860 783 847 b 757 775 783 814 771 790 l 513 444 l 504 444 l 472 558 l 397 767 b 388 819 392 785 388 804 b 483 860 388 840 408 860 l 494 913 l 96 913 l 85 860 b 244 671 150 860 178 847 l 364 361 l 326 188 b 163 53 301 64 283 53 l 151 0 l 601 0 l 611 53 b 492 119 526 53 492 61 b 500 188 492 138 494 158 l 538 361 z "},"Z":{"ha":869,"x_min":0,"x_max":0,"o":"m 711 0 l 799 279 l 736 279 b 458 75 668 129 626 75 l 231 75 l 231 82 l 907 850 l 919 913 l 222 913 l 156 658 l 218 658 b 463 836 278 813 331 836 l 683 836 l 683 829 l 4 63 l -8 0 z "},"À":{"ha":971,"x_min":0,"x_max":0,"o":"m 225 0 l 235 53 b 156 90 175 53 156 60 b 193 179 156 118 176 151 l 269 297 l 599 297 l 613 199 b 615 136 614 181 615 156 b 514 53 615 58 563 53 l 503 0 l 914 0 l 922 53 b 807 182 851 53 822 92 l 696 919 l 593 919 l 118 204 b -68 53 35 78 4 53 l -79 0 z m 310 364 l 547 729 l 553 729 l 592 364 z m 786 969 l 664 1151 l 525 1151 l 518 1113 l 706 969 z "},"Á":{"ha":971,"x_min":0,"x_max":0,"o":"m 225 0 l 235 53 b 156 90 175 53 156 60 b 193 179 156 118 176 151 l 269 297 l 599 297 l 613 199 b 615 136 614 181 615 156 b 514 53 615 58 563 53 l 503 0 l 914 0 l 922 53 b 807 182 851 53 822 92 l 696 919 l 593 919 l 118 204 b -68 53 35 78 4 53 l -79 0 z m 310 364 l 547 729 l 553 729 l 592 364 z m 596 969 l 813 1113 l 819 1151 l 664 1151 l 515 969 z "},"Â":{"ha":971,"x_min":0,"x_max":0,"o":"m 225 0 l 235 53 b 156 90 175 53 156 60 b 193 179 156 118 176 151 l 269 297 l 599 297 l 613 199 b 615 136 614 181 615 156 b 514 53 615 58 563 53 l 503 0 l 914 0 l 922 53 b 807 182 851 53 822 92 l 696 919 l 593 919 l 118 204 b -68 53 35 78 4 53 l -79 0 z m 310 364 l 547 729 l 553 729 l 592 364 z m 514 969 l 672 1071 l 794 969 l 863 969 l 750 1163 l 631 1163 l 439 969 z "},"Ầ":{"ha":971,"x_min":0,"x_max":0,"o":"m 225 0 l 235 53 b 156 90 175 53 156 60 b 193 179 156 118 176 151 l 269 297 l 599 297 l 613 199 b 615 136 614 181 615 156 b 514 53 615 58 563 53 l 503 0 l 914 0 l 922 53 b 807 182 851 53 822 92 l 696 919 l 593 919 l 118 204 b -68 53 35 78 4 53 l -79 0 z m 310 364 l 547 729 l 553 729 l 592 364 z m 513 963 l 671 1064 l 792 963 l 861 963 l 747 1149 l 629 1149 l 438 963 z m 1013 1060 l 901 1236 l 771 1236 l 763 1199 l 940 1060 z "},"Ấ":{"ha":971,"x_min":0,"x_max":0,"o":"m 225 0 l 235 53 b 156 90 175 53 156 60 b 193 179 156 118 176 151 l 269 297 l 599 297 l 613 199 b 615 136 614 181 615 156 b 514 53 615 58 563 53 l 503 0 l 914 0 l 922 53 b 807 182 851 53 822 92 l 696 919 l 593 919 l 118 204 b -68 53 35 78 4 53 l -79 0 z m 310 364 l 547 729 l 553 729 l 592 364 z m 513 963 l 671 1064 l 792 963 l 861 963 l 747 1149 l 629 1149 l 438 963 z m 889 1060 l 1101 1199 l 1108 1236 l 964 1236 l 817 1060 z "},"Ẫ":{"ha":971,"x_min":0,"x_max":0,"o":"m 225 0 l 235 53 b 156 90 175 53 156 60 b 193 179 156 118 176 151 l 269 297 l 599 297 l 613 199 b 615 136 614 181 615 156 b 514 53 615 58 563 53 l 503 0 l 914 0 l 922 53 b 807 182 851 53 822 92 l 696 919 l 593 919 l 118 204 b -68 53 35 78 4 53 l -79 0 z m 310 364 l 547 729 l 553 729 l 592 364 z m 522 1163 b 610 1213 542 1200 574 1213 b 783 1171 678 1213 707 1171 b 956 1311 864 1171 918 1218 l 907 1311 b 822 1263 885 1269 851 1263 b 647 1306 750 1263 718 1306 b 472 1163 564 1306 507 1247 z m 513 963 l 669 1060 l 792 963 l 861 963 l 746 1143 l 628 1143 l 438 963 z "},"Ẩ":{"ha":971,"x_min":0,"x_max":0,"o":"m 225 0 l 235 53 b 156 90 175 53 156 60 b 193 179 156 118 176 151 l 269 297 l 599 297 l 613 199 b 615 136 614 181 615 156 b 514 53 615 58 563 53 l 503 0 l 914 0 l 922 53 b 807 182 851 53 822 92 l 696 919 l 593 919 l 118 204 b -68 53 35 78 4 53 l -79 0 z m 310 364 l 547 729 l 553 729 l 592 364 z m 513 963 l 671 1064 l 792 963 l 861 963 l 747 1149 l 629 1149 l 438 963 z m 890 1060 l 900 1103 b 1044 1232 954 1111 1044 1146 b 921 1331 1044 1292 1003 1331 b 781 1254 854 1331 781 1304 b 815 1219 781 1235 792 1219 b 913 1283 864 1219 856 1283 b 944 1238 931 1283 944 1276 b 835 1131 944 1164 897 1131 l 819 1060 z "},"Ậ":{"ha":971,"x_min":0,"x_max":0,"o":"m 225 0 l 235 53 b 156 90 175 53 156 60 b 193 179 156 118 176 151 l 269 297 l 599 297 l 613 199 b 615 136 614 181 615 156 b 514 53 615 58 563 53 l 503 0 l 914 0 l 922 53 b 807 182 851 53 822 92 l 696 919 l 593 919 l 118 204 b -68 53 35 78 4 53 l -79 0 z m 310 364 l 547 729 l 553 729 l 592 364 z m 514 969 l 672 1071 l 794 969 l 863 969 l 750 1163 l 631 1163 l 439 969 z m 319 -285 b 419 -187 382 -285 419 -247 b 322 -92 419 -131 385 -92 b 224 -189 260 -92 224 -131 b 319 -285 224 -247 261 -285 z "},"Ã":{"ha":971,"x_min":0,"x_max":0,"o":"m 225 0 l 235 53 b 156 90 175 53 156 60 b 193 179 156 118 176 151 l 269 297 l 599 297 l 613 199 b 615 136 614 181 615 156 b 514 53 615 58 563 53 l 503 0 l 914 0 l 922 53 b 807 182 851 53 822 92 l 696 919 l 593 919 l 118 204 b -68 53 35 78 4 53 l -79 0 z m 310 364 l 547 729 l 553 729 l 592 364 z m 481 979 b 567 1029 500 1019 531 1029 b 740 985 642 1029 667 985 b 921 1136 824 985 886 1039 l 871 1136 b 782 1085 847 1092 815 1085 b 608 1128 710 1085 679 1128 b 429 979 528 1128 461 1069 z "},"Ä":{"ha":971,"x_min":0,"x_max":0,"o":"m 225 0 l 235 53 b 156 90 175 53 156 60 b 193 179 156 118 176 151 l 269 297 l 599 297 l 613 199 b 615 136 614 181 615 156 b 514 53 615 58 563 53 l 503 0 l 914 0 l 922 53 b 807 182 851 53 822 92 l 696 919 l 593 919 l 118 204 b -68 53 35 78 4 53 l -79 0 z m 310 364 l 547 729 l 553 729 l 592 364 z m 821 975 b 915 1068 879 975 915 1011 b 822 1158 915 1121 883 1158 b 729 1067 764 1158 729 1122 b 821 975 729 1011 765 975 z m 518 975 b 611 1068 576 975 611 1011 b 519 1158 611 1121 579 1158 b 426 1067 461 1158 426 1122 b 518 975 426 1011 461 975 z "},"Ǟ":{"ha":971,"x_min":0,"x_max":0,"o":"m 225 0 l 235 53 b 156 90 175 53 156 60 b 193 179 156 118 176 151 l 269 297 l 599 297 l 613 199 b 615 136 614 181 615 156 b 514 53 615 58 563 53 l 503 0 l 914 0 l 922 53 b 807 182 851 53 822 92 l 696 919 l 593 919 l 118 204 b -68 53 35 78 4 53 l -79 0 z m 310 364 l 547 729 l 553 729 l 592 364 z m 900 1188 l 918 1276 l 508 1276 l 489 1188 z m 818 961 b 913 1054 876 961 913 997 b 819 1144 913 1107 881 1144 b 726 1053 761 1144 726 1108 b 818 961 726 997 763 961 z m 515 961 b 608 1054 574 961 608 997 b 517 1144 608 1107 576 1144 b 424 1053 458 1144 424 1108 b 515 961 424 997 458 961 z "},"Ā":{"ha":971,"x_min":0,"x_max":0,"o":"m 225 0 l 235 53 b 156 90 175 53 156 60 b 193 179 156 118 176 151 l 269 297 l 599 297 l 613 199 b 615 136 614 181 615 156 b 514 53 615 58 563 53 l 503 0 l 914 0 l 922 53 b 807 182 851 53 822 92 l 696 919 l 593 919 l 118 204 b -68 53 35 78 4 53 l -79 0 z m 310 364 l 547 729 l 553 729 l 592 364 z m 864 1008 l 882 1097 l 472 1097 l 454 1008 z "},"Ă":{"ha":971,"x_min":0,"x_max":0,"o":"m 225 0 l 235 53 b 156 90 175 53 156 60 b 193 179 156 118 176 151 l 269 297 l 599 297 l 613 199 b 615 136 614 181 615 156 b 514 53 615 58 563 53 l 503 0 l 914 0 l 922 53 b 807 182 851 53 822 92 l 696 919 l 593 919 l 118 204 b -68 53 35 78 4 53 l -79 0 z m 310 364 l 547 729 l 553 729 l 592 364 z m 656 978 b 911 1189 786 978 868 1044 l 858 1189 b 674 1082 810 1097 763 1082 b 533 1189 588 1082 536 1097 l 485 1189 b 481 1132 481 1168 481 1150 b 656 978 481 1024 547 978 z "},"Ằ":{"ha":971,"x_min":0,"x_max":0,"o":"m 225 0 l 235 53 b 156 90 175 53 156 60 b 193 179 156 118 176 151 l 269 297 l 599 297 l 613 199 b 615 136 614 181 615 156 b 514 53 615 58 563 53 l 503 0 l 914 0 l 922 53 b 807 182 851 53 822 92 l 696 919 l 593 919 l 118 204 b -68 53 35 78 4 53 l -79 0 z m 310 364 l 547 729 l 553 729 l 592 364 z m 654 968 b 910 1178 785 968 865 1032 l 856 1178 b 671 1065 808 1086 758 1065 b 531 1178 583 1065 535 1086 l 482 1178 b 478 1121 479 1157 478 1139 b 654 968 478 1014 544 968 z m 768 1108 l 671 1276 l 542 1276 l 535 1238 l 697 1108 z "},"Ắ":{"ha":971,"x_min":0,"x_max":0,"o":"m 225 0 l 235 53 b 156 90 175 53 156 60 b 193 179 156 118 176 151 l 269 297 l 599 297 l 613 199 b 615 136 614 181 615 156 b 514 53 615 58 563 53 l 503 0 l 914 0 l 922 53 b 807 182 851 53 822 92 l 696 919 l 593 919 l 118 204 b -68 53 35 78 4 53 l -79 0 z m 310 364 l 547 729 l 553 729 l 592 364 z m 654 968 b 910 1178 785 968 865 1032 l 856 1178 b 671 1065 808 1086 758 1065 b 531 1178 583 1065 535 1086 l 482 1178 b 478 1121 479 1157 478 1139 b 654 968 478 1014 544 968 z m 660 1108 l 856 1238 l 864 1276 l 721 1276 l 589 1108 z "},"Ẵ":{"ha":971,"x_min":0,"x_max":0,"o":"m 225 0 l 235 53 b 156 90 175 53 156 60 b 193 179 156 118 176 151 l 269 297 l 599 297 l 613 199 b 615 136 614 181 615 156 b 514 53 615 58 563 53 l 503 0 l 914 0 l 922 53 b 807 182 851 53 822 92 l 696 919 l 593 919 l 118 204 b -68 53 35 78 4 53 l -79 0 z m 310 364 l 547 729 l 553 729 l 592 364 z m 654 968 b 910 1178 785 968 865 1032 l 856 1178 b 671 1065 808 1086 758 1065 b 531 1178 583 1065 535 1086 l 482 1178 b 478 1121 479 1157 478 1139 b 654 968 478 1014 544 968 z m 529 1199 b 617 1249 549 1236 581 1249 b 790 1207 685 1249 714 1207 b 964 1347 871 1207 925 1254 l 915 1347 b 829 1299 892 1306 858 1299 b 654 1342 757 1299 725 1342 b 479 1199 571 1342 514 1283 z "},"Ẳ":{"ha":971,"x_min":0,"x_max":0,"o":"m 225 0 l 235 53 b 156 90 175 53 156 60 b 193 179 156 118 176 151 l 269 297 l 599 297 l 613 199 b 615 136 614 181 615 156 b 514 53 615 58 563 53 l 503 0 l 914 0 l 922 53 b 807 182 851 53 822 92 l 696 919 l 593 919 l 118 204 b -68 53 35 78 4 53 l -79 0 z m 310 364 l 547 729 l 553 729 l 592 364 z m 654 968 b 910 1178 785 968 865 1032 l 856 1178 b 671 1065 808 1086 758 1065 b 531 1178 583 1065 535 1086 l 482 1178 b 478 1121 479 1157 478 1139 b 654 968 478 1014 544 968 z m 700 1103 l 708 1146 b 854 1276 763 1154 854 1189 b 729 1375 854 1335 811 1375 b 589 1297 663 1375 589 1347 b 624 1264 589 1278 600 1264 b 722 1326 674 1264 665 1326 b 753 1282 740 1326 753 1319 b 644 1175 753 1207 706 1175 l 629 1103 z "},"Ặ":{"ha":971,"x_min":0,"x_max":0,"o":"m 225 0 l 235 53 b 156 90 175 53 156 60 b 193 179 156 118 176 151 l 269 297 l 599 297 l 613 199 b 615 136 614 181 615 156 b 514 53 615 58 563 53 l 503 0 l 914 0 l 922 53 b 807 182 851 53 822 92 l 696 919 l 593 919 l 118 204 b -68 53 35 78 4 53 l -79 0 z m 310 364 l 547 729 l 553 729 l 592 364 z m 656 978 b 911 1189 786 978 868 1044 l 858 1189 b 674 1082 810 1097 763 1082 b 533 1189 588 1082 536 1097 l 485 1189 b 481 1132 481 1168 481 1150 b 656 978 481 1024 547 978 z m 319 -285 b 419 -187 382 -285 419 -247 b 322 -92 419 -131 385 -92 b 224 -189 260 -92 224 -131 b 319 -285 224 -247 261 -285 z "},"Å":{"ha":971,"x_min":0,"x_max":0,"o":"m 225 0 l 235 53 b 156 90 175 53 156 60 b 193 179 156 118 176 151 l 269 297 l 599 297 l 613 199 b 615 136 614 181 615 156 b 514 53 615 58 563 53 l 503 0 l 914 0 l 922 53 b 807 182 851 53 822 92 l 696 919 l 593 919 l 118 204 b -68 53 35 78 4 53 l -79 0 z m 654 967 b 836 1122 754 967 836 1028 b 701 1243 836 1197 782 1243 b 521 1081 601 1243 521 1175 b 654 967 521 1003 576 967 z m 310 364 l 547 729 l 553 729 l 592 364 z m 663 1031 b 606 1089 621 1031 606 1054 b 693 1181 606 1138 638 1181 b 750 1122 733 1181 750 1160 b 663 1031 750 1075 722 1031 z "},"Ǻ":{"ha":971,"x_min":0,"x_max":0,"o":"m 225 0 l 235 53 b 156 90 175 53 156 60 b 193 179 156 118 176 151 l 269 297 l 599 297 l 613 199 b 615 136 614 181 615 156 b 514 53 615 58 563 53 l 503 0 l 914 0 l 922 53 b 807 182 851 53 822 92 l 696 919 l 593 919 l 118 204 b -68 53 35 78 4 53 l -79 0 z m 651 946 b 832 1101 750 946 832 1007 b 697 1222 832 1176 779 1222 b 517 1060 597 1222 517 1154 b 651 946 517 982 574 946 z m 310 364 l 547 729 l 553 729 l 592 364 z m 651 1251 l 869 1394 l 876 1433 l 721 1433 l 571 1251 z m 660 1010 b 601 1068 617 1010 601 1033 b 690 1160 601 1117 635 1160 b 747 1101 729 1160 747 1139 b 660 1010 747 1054 719 1010 z "},"Ả":{"ha":971,"x_min":0,"x_max":0,"o":"m 225 0 l 235 53 b 156 90 175 53 156 60 b 193 179 156 118 176 151 l 269 297 l 599 297 l 613 199 b 615 136 614 181 615 156 b 514 53 615 58 563 53 l 503 0 l 914 0 l 922 53 b 807 182 851 53 822 92 l 696 919 l 593 919 l 118 204 b -68 53 35 78 4 53 l -79 0 z m 310 364 l 547 729 l 553 729 l 592 364 z m 685 969 l 694 1015 b 844 1151 747 1024 844 1058 b 715 1254 844 1213 800 1254 b 571 1174 644 1254 571 1226 b 607 1139 571 1154 582 1139 b 708 1204 657 1139 649 1204 b 739 1161 732 1204 739 1192 b 628 1044 739 1074 686 1044 l 611 969 z "},"Ḁ":{"ha":971,"x_min":0,"x_max":0,"o":"m 225 0 l 235 53 b 156 90 175 53 156 60 b 193 179 156 118 176 151 l 269 297 l 599 297 l 613 199 b 615 136 614 181 615 156 b 514 53 615 58 563 53 l 503 0 l 914 0 l 922 53 b 807 182 851 53 822 92 l 696 919 l 593 919 l 118 204 b -68 53 35 78 4 53 l -79 0 z m 293 -356 b 471 -194 390 -356 471 -293 b 340 -71 471 -117 419 -71 b 163 -237 243 -71 163 -140 b 293 -356 163 -318 217 -356 z m 310 364 l 547 729 l 553 729 l 592 364 z m 301 -292 b 240 -231 257 -292 240 -268 b 332 -133 240 -179 275 -133 b 390 -196 372 -133 390 -156 b 301 -292 390 -244 361 -292 z "},"Ạ":{"ha":971,"x_min":0,"x_max":0,"o":"m 225 0 l 235 53 b 156 90 175 53 156 60 b 193 179 156 118 176 151 l 269 297 l 599 297 l 613 199 b 615 136 614 181 615 156 b 514 53 615 58 563 53 l 503 0 l 914 0 l 922 53 b 807 182 851 53 822 92 l 696 919 l 593 919 l 118 204 b -68 53 35 78 4 53 l -79 0 z m 310 364 l 547 729 l 553 729 l 592 364 z m 319 -285 b 419 -187 382 -285 419 -247 b 322 -92 419 -131 385 -92 b 224 -189 260 -92 224 -131 b 319 -285 224 -247 261 -285 z "},"Ą":{"ha":971,"x_min":0,"x_max":0,"o":"m 456 -304 b 649 -212 538 -304 588 -264 l 624 -179 b 514 -222 581 -210 554 -222 b 443 -156 463 -222 443 -199 b 640 0 443 -74 528 0 l 914 0 l 922 53 b 807 182 851 53 821 92 l 696 919 l 593 919 l 118 204 b -68 53 33 79 4 53 l -79 0 l 225 0 l 235 53 b 156 89 175 53 156 60 b 193 179 156 117 176 151 l 269 297 l 599 297 l 613 199 b 615 132 614 181 615 149 b 499 14 615 68 575 56 b 325 -190 393 -42 325 -103 b 456 -304 325 -256 367 -304 z m 310 364 l 547 729 l 553 729 l 592 364 z "},"Æ":{"ha":1311,"x_min":0,"x_max":0,"o":"m 233 0 l 243 53 b 158 93 186 53 158 61 b 197 176 158 122 178 156 l 386 418 l 625 418 l 582 213 b 408 53 550 71 538 53 l 397 0 l 1160 0 l 1250 265 l 1193 265 b 883 74 1107 101 1078 74 l 725 74 l 799 418 l 914 418 b 1044 294 1044 418 1068 406 l 1104 294 l 1174 611 l 1113 611 b 928 485 1089 500 1058 485 l 814 485 l 889 838 l 1064 838 b 1236 669 1210 838 1246 808 l 1297 669 l 1339 913 l 528 913 l 515 860 b 596 826 567 860 596 856 b 563 758 596 803 581 783 l 117 197 b -81 53 36 93 -3 53 l -93 0 z m 433 485 l 704 835 l 715 835 l 640 485 z "},"Ǽ":{"ha":1311,"x_min":0,"x_max":0,"o":"m 233 0 l 243 53 b 158 93 186 53 158 61 b 197 176 158 122 178 156 l 386 418 l 625 418 l 582 213 b 408 53 550 71 538 53 l 397 0 l 1160 0 l 1250 265 l 1193 265 b 883 74 1107 101 1078 74 l 725 74 l 799 418 l 914 418 b 1044 294 1044 418 1068 406 l 1104 294 l 1174 611 l 1113 611 b 928 485 1089 500 1058 485 l 814 485 l 889 838 l 1064 838 b 1236 669 1210 838 1246 808 l 1297 669 l 1339 913 l 528 913 l 515 860 b 596 826 567 860 596 856 b 563 758 596 803 581 783 l 117 197 b -81 53 36 93 -3 53 l -93 0 z m 433 485 l 704 835 l 715 835 l 640 485 z m 922 969 l 1140 1113 l 1147 1151 l 992 1151 l 842 969 z "},"Ḃ":{"ha":878,"x_min":0,"x_max":0,"o":"m 429 0 b 826 292 671 0 826 103 b 628 482 826 417 731 467 l 629 489 b 875 742 768 524 875 593 b 581 913 875 842 803 913 l 165 913 l 154 858 b 256 736 254 858 279 844 l 140 182 b -11 53 118 69 96 53 l -24 0 z m 371 63 b 292 67 340 63 319 64 l 369 443 l 449 443 b 631 285 544 443 631 417 b 371 63 631 86 511 63 z m 383 510 l 451 840 b 517 844 479 843 494 844 b 685 725 643 844 685 800 b 454 510 685 599 610 510 z m 567 971 b 667 1067 629 971 667 1007 b 569 1163 667 1125 632 1163 b 472 1065 507 1163 472 1125 b 567 971 472 1007 508 971 z "},"Ḇ":{"ha":878,"x_min":0,"x_max":0,"o":"m 429 0 b 826 292 671 0 826 103 b 628 482 826 417 731 467 l 629 489 b 875 742 768 524 875 593 b 581 913 875 842 803 913 l 165 913 l 154 858 b 256 736 254 858 279 844 l 140 182 b -11 53 118 69 96 53 l -24 0 z m 371 63 b 292 67 340 63 319 64 l 369 443 l 449 443 b 631 285 544 443 631 417 b 371 63 631 86 511 63 z m 383 510 l 451 840 b 517 844 479 843 494 844 b 685 725 643 844 685 800 b 454 510 685 599 610 510 z m 501 -204 l 521 -111 l 118 -111 l 99 -204 z "},"Ḅ":{"ha":878,"x_min":0,"x_max":0,"o":"m 429 0 b 826 292 671 0 826 103 b 628 482 826 417 731 467 l 629 489 b 875 742 768 524 875 593 b 581 913 875 842 803 913 l 165 913 l 154 858 b 256 736 254 858 279 844 l 140 182 b -11 53 118 69 96 53 l -24 0 z m 371 63 b 292 67 340 63 319 64 l 369 443 l 449 443 b 631 285 544 443 631 417 b 371 63 631 86 511 63 z m 383 510 l 451 840 b 517 844 479 843 494 844 b 685 725 643 844 685 800 b 454 510 685 599 610 510 z m 301 -285 b 400 -187 363 -285 400 -247 b 303 -92 400 -131 365 -92 b 204 -189 240 -92 204 -131 b 301 -285 204 -247 242 -285 z "},"Ć":{"ha":943,"x_min":0,"x_max":0,"o":"m 435 -17 b 854 203 636 -17 754 88 l 822 236 b 517 103 728 149 643 103 b 265 364 351 103 265 175 b 635 860 265 638 406 860 b 842 596 769 860 843 774 l 899 596 l 968 929 l 917 929 b 863 882 901 904 889 882 b 651 929 824 882 789 929 b 85 328 332 929 85 710 b 435 -17 85 133 183 -17 z m 614 969 l 831 1113 l 838 1151 l 682 1151 l 533 969 z "},"Ĉ":{"ha":943,"x_min":0,"x_max":0,"o":"m 435 -17 b 854 203 636 -17 754 88 l 822 236 b 517 103 728 149 643 103 b 265 364 351 103 265 175 b 635 860 265 638 406 860 b 842 596 769 860 843 774 l 899 596 l 968 929 l 917 929 b 863 882 901 904 889 882 b 651 929 824 882 789 929 b 85 328 332 929 85 710 b 435 -17 85 133 183 -17 z m 532 969 l 690 1071 l 813 969 l 881 969 l 768 1163 l 649 1163 l 457 969 z "},"Č":{"ha":943,"x_min":0,"x_max":0,"o":"m 435 -17 b 854 203 636 -17 754 88 l 822 236 b 517 103 728 149 643 103 b 265 364 351 103 265 175 b 635 860 265 638 406 860 b 842 596 769 860 843 774 l 899 596 l 968 929 l 917 929 b 863 882 901 904 889 882 b 651 929 824 882 789 929 b 85 328 332 929 85 710 b 435 -17 85 133 183 -17 z m 728 969 l 919 1163 l 844 1163 l 688 1060 l 565 1163 l 496 1163 l 610 969 z "},"Ċ":{"ha":943,"x_min":0,"x_max":0,"o":"m 435 -17 b 854 203 636 -17 754 88 l 822 236 b 517 103 728 149 643 103 b 265 364 351 103 265 175 b 635 860 265 638 406 860 b 842 596 769 860 843 774 l 899 596 l 968 929 l 917 929 b 863 882 901 904 889 882 b 651 929 824 882 789 929 b 85 328 332 929 85 710 b 435 -17 85 133 183 -17 z m 688 971 b 786 1067 749 971 786 1007 b 689 1163 786 1125 751 1163 b 592 1065 628 1163 592 1125 b 688 971 592 1007 628 971 z "},"Ç":{"ha":943,"x_min":0,"x_max":0,"o":"m 435 -17 b 854 203 636 -17 754 88 l 822 236 b 517 103 728 149 643 103 b 265 364 351 103 265 175 b 635 860 265 638 406 860 b 842 596 769 860 843 774 l 899 596 l 968 929 l 917 929 b 863 882 901 904 889 882 b 651 929 824 882 789 929 b 85 328 332 929 85 710 b 368 -12 85 151 165 13 l 319 -115 l 336 -135 b 379 -131 336 -135 360 -131 b 432 -179 413 -131 432 -146 b 353 -243 432 -222 397 -243 b 263 -215 319 -243 285 -231 l 235 -253 b 365 -304 269 -286 315 -304 b 532 -171 449 -304 532 -257 b 422 -72 532 -107 485 -72 b 389 -75 407 -72 393 -75 l 417 -15 b 435 -17 422 -17 429 -17 z "},"Ḉ":{"ha":943,"x_min":0,"x_max":0,"o":"m 435 -17 b 854 203 636 -17 754 88 l 822 236 b 517 103 728 149 643 103 b 265 364 351 103 265 175 b 635 860 265 638 406 860 b 842 596 769 860 843 774 l 899 596 l 968 929 l 917 929 b 863 882 901 904 889 882 b 651 929 824 882 789 929 b 85 328 332 929 85 710 b 368 -12 85 151 165 13 l 319 -115 l 336 -135 b 379 -131 336 -135 360 -131 b 432 -179 413 -131 432 -146 b 353 -243 432 -222 397 -243 b 263 -215 319 -243 285 -231 l 235 -253 b 365 -304 269 -286 315 -304 b 532 -171 449 -304 532 -257 b 422 -72 532 -107 485 -72 b 389 -75 407 -72 393 -75 l 417 -15 b 435 -17 422 -17 429 -17 z m 614 969 l 831 1113 l 838 1151 l 682 1151 l 533 969 z "},"Ď":{"ha":1021,"x_min":0,"x_max":0,"o":"m 357 0 b 990 558 708 0 990 149 b 544 913 990 821 801 913 l 165 913 l 154 857 b 257 742 251 857 278 844 l 142 183 b -12 53 118 71 97 53 l -24 0 z m 364 69 b 290 72 339 69 314 69 l 450 840 b 507 842 475 842 488 842 b 803 539 725 842 803 725 b 364 69 803 201 657 69 z m 632 969 l 824 1163 l 749 1163 l 590 1060 l 468 1163 l 400 1163 l 513 969 z "},"Ḋ":{"ha":1021,"x_min":0,"x_max":0,"o":"m 357 0 b 990 558 708 0 990 149 b 544 913 990 821 801 913 l 165 913 l 154 857 b 257 742 251 857 278 844 l 142 183 b -12 53 118 71 97 53 l -24 0 z m 364 69 b 290 72 339 69 314 69 l 450 840 b 507 842 475 842 488 842 b 803 539 725 842 803 725 b 364 69 803 201 657 69 z m 590 971 b 689 1067 653 971 689 1007 b 592 1163 689 1125 656 1163 b 496 1065 531 1163 496 1125 b 590 971 496 1007 532 971 z "},"Ḓ":{"ha":1021,"x_min":0,"x_max":0,"o":"m 357 0 b 990 558 708 0 990 149 b 544 913 990 821 801 913 l 165 913 l 154 857 b 257 742 251 857 278 844 l 142 183 b -12 53 118 71 97 53 l -24 0 z m 364 69 b 290 72 339 69 314 69 l 450 840 b 507 842 475 842 488 842 b 803 539 725 842 803 725 b 364 69 803 201 657 69 z m 174 -282 l 333 -157 l 444 -282 l 513 -282 l 408 -69 l 293 -69 l 100 -282 z "},"Ḏ":{"ha":1021,"x_min":0,"x_max":0,"o":"m 357 0 b 990 558 708 0 990 149 b 544 913 990 821 801 913 l 165 913 l 154 857 b 257 742 251 857 278 844 l 142 183 b -12 53 118 71 97 53 l -24 0 z m 364 69 b 290 72 339 69 314 69 l 450 840 b 507 842 475 842 488 842 b 803 539 725 842 803 725 b 364 69 803 201 657 69 z m 525 -204 l 544 -111 l 142 -111 l 122 -204 z "},"Ḍ":{"ha":1021,"x_min":0,"x_max":0,"o":"m 357 0 b 990 558 708 0 990 149 b 544 913 990 821 801 913 l 165 913 l 154 857 b 257 742 251 857 278 844 l 142 183 b -12 53 118 71 97 53 l -24 0 z m 364 69 b 290 72 339 69 314 69 l 450 840 b 507 842 475 842 488 842 b 803 539 725 842 803 725 b 364 69 803 201 657 69 z m 325 -285 b 424 -187 386 -285 424 -247 b 326 -92 424 -131 389 -92 b 228 -189 264 -92 228 -131 b 325 -285 228 -247 265 -285 z "},"Ḑ":{"ha":1021,"x_min":0,"x_max":0,"o":"m 357 0 b 990 558 708 0 990 149 b 544 913 990 821 801 913 l 165 913 l 154 857 b 257 742 251 857 278 844 l 142 183 b -12 53 118 71 97 53 l -24 0 z m 364 69 b 290 72 339 69 314 69 l 450 840 b 507 842 475 842 488 842 b 803 539 725 842 803 725 b 364 69 803 201 657 69 z m 210 -407 b 443 -179 310 -383 443 -312 b 340 -61 443 -108 407 -61 b 243 -154 274 -61 243 -108 b 321 -231 243 -201 278 -231 b 349 -225 331 -231 339 -228 b 197 -365 333 -311 254 -346 z "},"Đ":{"ha":1028,"x_min":0,"x_max":0,"o":"m 364 0 b 997 558 715 0 997 149 b 551 913 997 821 808 913 l 172 913 l 161 857 b 264 742 258 857 285 844 l 214 499 l 71 499 l 54 425 l 199 425 l 149 183 b -6 53 125 71 104 53 l -17 0 z m 565 425 l 582 499 l 386 499 l 457 840 b 514 842 482 842 494 842 b 810 539 732 842 810 725 b 371 69 810 201 664 69 b 297 72 346 69 321 69 l 371 425 z "},"È":{"ha":881,"x_min":0,"x_max":0,"o":"m 733 0 l 818 268 l 760 268 b 453 74 681 110 646 74 l 290 74 l 365 436 l 497 436 b 622 307 631 436 646 422 l 678 307 l 744 628 l 688 628 b 511 503 665 518 644 503 l 379 503 l 449 838 l 632 838 b 806 669 792 838 813 800 l 867 669 l 907 913 l 163 913 l 151 858 b 254 732 264 858 276 838 l 138 168 b -12 53 115 67 81 53 l -24 0 z m 710 969 l 588 1151 l 449 1151 l 440 1113 l 629 969 z "},"É":{"ha":881,"x_min":0,"x_max":0,"o":"m 733 0 l 818 268 l 760 268 b 453 74 681 110 646 74 l 290 74 l 365 436 l 497 436 b 622 307 631 436 646 422 l 678 307 l 744 628 l 688 628 b 511 503 665 518 644 503 l 379 503 l 449 838 l 632 838 b 806 669 792 838 813 800 l 867 669 l 907 913 l 163 913 l 151 858 b 254 732 264 858 276 838 l 138 168 b -12 53 115 67 81 53 l -24 0 z m 519 969 l 736 1113 l 743 1151 l 588 1151 l 439 969 z "},"Ê":{"ha":881,"x_min":0,"x_max":0,"o":"m 733 0 l 818 268 l 760 268 b 453 74 681 110 646 74 l 290 74 l 365 436 l 497 436 b 622 307 631 436 646 422 l 678 307 l 744 628 l 688 628 b 511 503 665 518 644 503 l 379 503 l 449 838 l 632 838 b 806 669 792 838 813 800 l 867 669 l 907 913 l 163 913 l 151 858 b 254 732 264 858 276 838 l 138 168 b -12 53 115 67 81 53 l -24 0 z m 438 969 l 596 1071 l 718 969 l 786 969 l 674 1163 l 554 1163 l 363 969 z "},"Ề":{"ha":881,"x_min":0,"x_max":0,"o":"m 733 0 l 818 268 l 760 268 b 453 74 681 110 646 74 l 290 74 l 365 436 l 497 436 b 622 307 631 436 646 422 l 678 307 l 744 628 l 688 628 b 511 503 665 518 644 503 l 379 503 l 449 838 l 632 838 b 806 669 792 838 813 800 l 867 669 l 907 913 l 163 913 l 151 858 b 254 732 264 858 276 838 l 138 168 b -12 53 115 67 81 53 l -24 0 z m 436 963 l 594 1064 l 715 963 l 785 963 l 671 1149 l 553 1149 l 361 963 z m 936 1060 l 825 1236 l 693 1236 l 686 1199 l 864 1060 z "},"Ế":{"ha":881,"x_min":0,"x_max":0,"o":"m 733 0 l 818 268 l 760 268 b 453 74 681 110 646 74 l 290 74 l 365 436 l 497 436 b 622 307 631 436 646 422 l 678 307 l 744 628 l 688 628 b 511 503 665 518 644 503 l 379 503 l 449 838 l 632 838 b 806 669 792 838 813 800 l 867 669 l 907 913 l 163 913 l 151 858 b 254 732 264 858 276 838 l 138 168 b -12 53 115 67 81 53 l -24 0 z m 436 963 l 594 1064 l 715 963 l 785 963 l 671 1149 l 553 1149 l 361 963 z m 813 1060 l 1025 1199 l 1032 1236 l 888 1236 l 740 1060 z "},"Ễ":{"ha":881,"x_min":0,"x_max":0,"o":"m 733 0 l 818 268 l 760 268 b 453 74 681 110 646 74 l 290 74 l 365 436 l 497 436 b 622 307 631 436 646 422 l 678 307 l 744 628 l 688 628 b 511 503 665 518 644 503 l 379 503 l 449 838 l 632 838 b 806 669 792 838 813 800 l 867 669 l 907 913 l 163 913 l 151 858 b 254 732 264 858 276 838 l 138 168 b -12 53 115 67 81 53 l -24 0 z m 446 1163 b 533 1213 465 1200 496 1213 b 707 1171 601 1213 631 1171 b 879 1311 788 1171 842 1218 l 831 1311 b 746 1263 808 1269 775 1263 b 569 1306 674 1263 642 1306 b 396 1163 488 1306 431 1247 z m 436 963 l 593 1060 l 715 963 l 785 963 l 669 1143 l 551 1143 l 361 963 z "},"Ể":{"ha":881,"x_min":0,"x_max":0,"o":"m 733 0 l 818 268 l 760 268 b 453 74 681 110 646 74 l 290 74 l 365 436 l 497 436 b 622 307 631 436 646 422 l 678 307 l 744 628 l 688 628 b 511 503 665 518 644 503 l 379 503 l 449 838 l 632 838 b 806 669 792 838 813 800 l 867 669 l 907 913 l 163 913 l 151 858 b 254 732 264 858 276 838 l 138 168 b -12 53 115 67 81 53 l -24 0 z m 436 963 l 594 1064 l 715 963 l 785 963 l 671 1149 l 553 1149 l 361 963 z m 814 1060 l 824 1103 b 968 1232 878 1111 968 1146 b 844 1331 968 1292 926 1331 b 704 1254 776 1331 704 1304 b 738 1219 704 1235 715 1219 b 836 1283 788 1219 779 1283 b 868 1238 854 1283 868 1276 b 758 1131 868 1164 819 1131 l 743 1060 z "},"Ệ":{"ha":881,"x_min":0,"x_max":0,"o":"m 733 0 l 818 268 l 760 268 b 453 74 681 110 646 74 l 290 74 l 365 436 l 497 436 b 622 307 631 436 646 422 l 678 307 l 744 628 l 688 628 b 511 503 665 518 644 503 l 379 503 l 449 838 l 632 838 b 806 669 792 838 813 800 l 867 669 l 907 913 l 163 913 l 151 858 b 254 732 264 858 276 838 l 138 168 b -12 53 115 67 81 53 l -24 0 z m 438 969 l 596 1071 l 718 969 l 786 969 l 674 1163 l 554 1163 l 363 969 z m 336 -285 b 436 -187 399 -285 436 -247 b 338 -92 436 -131 401 -92 b 239 -189 276 -92 239 -131 b 336 -285 239 -247 276 -285 z "},"Ě":{"ha":881,"x_min":0,"x_max":0,"o":"m 733 0 l 818 268 l 760 268 b 453 74 681 110 646 74 l 290 74 l 365 436 l 497 436 b 622 307 631 436 646 422 l 678 307 l 744 628 l 688 628 b 511 503 665 518 644 503 l 379 503 l 449 838 l 632 838 b 806 669 792 838 813 800 l 867 669 l 907 913 l 163 913 l 151 858 b 254 732 264 858 276 838 l 138 168 b -12 53 115 67 81 53 l -24 0 z m 633 969 l 825 1163 l 750 1163 l 593 1060 l 471 1163 l 401 1163 l 515 969 z "},"Ẽ":{"ha":881,"x_min":0,"x_max":0,"o":"m 733 0 l 818 268 l 760 268 b 453 74 681 110 646 74 l 290 74 l 365 436 l 497 436 b 622 307 631 436 646 422 l 678 307 l 744 628 l 688 628 b 511 503 665 518 644 503 l 379 503 l 449 838 l 632 838 b 806 669 792 838 813 800 l 867 669 l 907 913 l 163 913 l 151 858 b 254 732 264 858 276 838 l 138 168 b -12 53 115 67 81 53 l -24 0 z m 404 979 b 490 1029 424 1019 453 1029 b 664 985 565 1029 590 985 b 844 1136 747 985 810 1039 l 793 1136 b 706 1085 771 1092 739 1085 b 532 1128 633 1085 603 1128 b 353 979 450 1128 385 1069 z "},"Ë":{"ha":881,"x_min":0,"x_max":0,"o":"m 733 0 l 818 268 l 760 268 b 453 74 681 110 646 74 l 290 74 l 365 436 l 497 436 b 622 307 631 436 646 422 l 678 307 l 744 628 l 688 628 b 511 503 665 518 644 503 l 379 503 l 449 838 l 632 838 b 806 669 792 838 813 800 l 867 669 l 907 913 l 163 913 l 151 858 b 254 732 264 858 276 838 l 138 168 b -12 53 115 67 81 53 l -24 0 z m 744 975 b 839 1068 803 975 839 1011 b 746 1158 839 1121 806 1158 b 653 1067 688 1158 653 1122 b 744 975 653 1011 689 975 z m 442 975 b 535 1068 500 975 535 1011 b 442 1158 535 1121 503 1158 b 349 1067 385 1158 349 1122 b 442 975 349 1011 385 975 z "},"Ē":{"ha":881,"x_min":0,"x_max":0,"o":"m 733 0 l 818 268 l 760 268 b 453 74 681 110 646 74 l 290 74 l 365 436 l 497 436 b 622 307 631 436 646 422 l 678 307 l 744 628 l 688 628 b 511 503 665 518 644 503 l 379 503 l 449 838 l 632 838 b 806 669 792 838 813 800 l 867 669 l 907 913 l 163 913 l 151 858 b 254 732 264 858 276 838 l 138 168 b -12 53 115 67 81 53 l -24 0 z m 788 1008 l 806 1097 l 396 1097 l 376 1008 z "},"Ḕ":{"ha":881,"x_min":0,"x_max":0,"o":"m 733 0 l 818 268 l 760 268 b 453 74 681 110 646 74 l 290 74 l 365 436 l 497 436 b 622 307 631 436 646 422 l 678 307 l 744 628 l 688 628 b 511 503 665 518 644 503 l 379 503 l 449 838 l 632 838 b 806 669 792 838 813 800 l 867 669 l 907 913 l 163 913 l 151 858 b 254 732 264 858 276 838 l 138 168 b -12 53 115 67 81 53 l -24 0 z m 785 994 l 803 1083 l 393 1083 l 374 994 z m 743 1140 l 621 1322 l 482 1322 l 475 1283 l 664 1140 z "},"Ḗ":{"ha":881,"x_min":0,"x_max":0,"o":"m 733 0 l 818 268 l 760 268 b 453 74 681 110 646 74 l 290 74 l 365 436 l 497 436 b 622 307 631 436 646 422 l 678 307 l 744 628 l 688 628 b 511 503 665 518 644 503 l 379 503 l 449 838 l 632 838 b 806 669 792 838 813 800 l 867 669 l 907 913 l 163 913 l 151 858 b 254 732 264 858 276 838 l 138 168 b -12 53 115 67 81 53 l -24 0 z m 785 994 l 803 1083 l 393 1083 l 374 994 z m 553 1140 l 771 1283 l 778 1322 l 622 1322 l 472 1140 z "},"Ĕ":{"ha":881,"x_min":0,"x_max":0,"o":"m 733 0 l 818 268 l 760 268 b 453 74 681 110 646 74 l 290 74 l 365 436 l 497 436 b 622 307 631 436 646 422 l 678 307 l 744 628 l 688 628 b 511 503 665 518 644 503 l 379 503 l 449 838 l 632 838 b 806 669 792 838 813 800 l 867 669 l 907 913 l 163 913 l 151 858 b 254 732 264 858 276 838 l 138 168 b -12 53 115 67 81 53 l -24 0 z m 579 978 b 835 1189 710 978 790 1044 l 781 1189 b 597 1082 733 1097 685 1082 b 457 1189 510 1082 460 1097 l 408 1189 b 404 1132 404 1168 404 1150 b 579 978 404 1024 469 978 z "},"Ė":{"ha":881,"x_min":0,"x_max":0,"o":"m 733 0 l 818 268 l 760 268 b 453 74 681 110 646 74 l 290 74 l 365 436 l 497 436 b 622 307 631 436 646 422 l 678 307 l 744 628 l 688 628 b 511 503 665 518 644 503 l 379 503 l 449 838 l 632 838 b 806 669 792 838 813 800 l 867 669 l 907 913 l 163 913 l 151 858 b 254 732 264 858 276 838 l 138 168 b -12 53 115 67 81 53 l -24 0 z m 593 971 b 692 1067 654 971 692 1007 b 594 1163 692 1125 657 1163 b 497 1065 533 1163 497 1125 b 593 971 497 1007 533 971 z "},"Ẻ":{"ha":881,"x_min":0,"x_max":0,"o":"m 733 0 l 818 268 l 760 268 b 453 74 681 110 646 74 l 290 74 l 365 436 l 497 436 b 622 307 631 436 646 422 l 678 307 l 744 628 l 688 628 b 511 503 665 518 644 503 l 379 503 l 449 838 l 632 838 b 806 669 792 838 813 800 l 867 669 l 907 913 l 163 913 l 151 858 b 254 732 264 858 276 838 l 138 168 b -12 53 115 67 81 53 l -24 0 z m 607 969 l 618 1015 b 768 1151 671 1024 768 1058 b 639 1254 768 1213 724 1254 b 494 1174 568 1254 494 1226 b 529 1139 494 1154 506 1139 b 631 1204 581 1139 572 1204 b 663 1161 656 1204 663 1192 b 550 1044 663 1074 610 1044 l 533 969 z "},"Ḙ":{"ha":881,"x_min":0,"x_max":0,"o":"m 733 0 l 818 268 l 760 268 b 453 74 681 110 646 74 l 290 74 l 365 436 l 497 436 b 622 307 631 436 646 422 l 678 307 l 744 628 l 688 628 b 511 503 665 518 644 503 l 379 503 l 449 838 l 632 838 b 806 669 792 838 813 800 l 867 669 l 907 913 l 163 913 l 151 858 b 254 732 264 858 276 838 l 138 168 b -12 53 115 67 81 53 l -24 0 z m 185 -282 l 344 -157 l 457 -282 l 525 -282 l 419 -69 l 304 -69 l 111 -282 z "},"Ḛ":{"ha":881,"x_min":0,"x_max":0,"o":"m 733 0 l 818 268 l 760 268 b 453 74 681 110 646 74 l 290 74 l 365 436 l 497 436 b 622 307 631 436 646 422 l 678 307 l 744 628 l 688 628 b 511 503 665 518 644 503 l 379 503 l 449 838 l 632 838 b 806 669 792 838 813 800 l 867 669 l 907 913 l 163 913 l 151 858 b 254 732 264 858 276 838 l 138 168 b -12 53 115 67 81 53 l -24 0 z m 147 -229 b 236 -169 169 -185 200 -169 b 404 -225 301 -169 325 -225 b 581 -65 481 -225 538 -172 l 533 -65 b 443 -126 510 -111 476 -126 b 278 -71 379 -126 350 -71 b 99 -229 199 -71 133 -139 z "},"Ẹ":{"ha":881,"x_min":0,"x_max":0,"o":"m 733 0 l 818 268 l 760 268 b 453 74 681 110 646 74 l 290 74 l 365 436 l 497 436 b 622 307 631 436 646 422 l 678 307 l 744 628 l 688 628 b 511 503 665 518 644 503 l 379 503 l 449 838 l 632 838 b 806 669 792 838 813 800 l 867 669 l 907 913 l 163 913 l 151 858 b 254 732 264 858 276 838 l 138 168 b -12 53 115 67 81 53 l -24 0 z m 336 -285 b 436 -187 399 -285 436 -247 b 338 -92 436 -131 401 -92 b 239 -189 276 -92 239 -131 b 336 -285 239 -247 276 -285 z "},"Ȩ":{"ha":881,"x_min":0,"x_max":0,"o":"m 733 0 l 818 268 l 760 268 b 453 74 681 110 646 74 l 290 74 l 365 436 l 497 436 b 622 307 631 436 646 422 l 678 307 l 744 628 l 688 628 b 511 503 665 518 644 503 l 379 503 l 449 838 l 632 838 b 806 669 792 838 813 800 l 867 669 l 907 913 l 163 913 l 151 858 b 254 732 264 858 276 838 l 138 168 b -12 53 115 67 81 53 l -24 0 l 332 0 l 278 -115 l 294 -135 b 338 -131 294 -135 319 -131 b 390 -179 372 -131 390 -146 b 313 -243 390 -222 357 -243 b 222 -215 278 -243 244 -231 l 193 -253 b 324 -304 229 -286 275 -304 b 490 -171 407 -304 490 -257 b 382 -72 490 -107 444 -72 b 349 -75 367 -72 351 -75 l 382 0 z "},"Ḝ":{"ha":881,"x_min":0,"x_max":0,"o":"m 733 0 l 818 268 l 760 268 b 453 74 681 110 646 74 l 290 74 l 365 436 l 497 436 b 622 307 631 436 646 422 l 678 307 l 744 628 l 688 628 b 511 503 665 518 644 503 l 379 503 l 449 838 l 632 838 b 806 669 792 838 813 800 l 867 669 l 907 913 l 163 913 l 151 858 b 254 732 264 858 276 838 l 138 168 b -12 53 115 67 81 53 l -24 0 l 332 0 l 278 -115 l 294 -135 b 338 -131 294 -135 319 -131 b 390 -179 372 -131 390 -146 b 313 -243 390 -222 357 -243 b 222 -215 278 -243 244 -231 l 193 -253 b 324 -304 229 -286 275 -304 b 490 -171 407 -304 490 -257 b 382 -72 490 -107 444 -72 b 349 -75 367 -72 351 -75 l 382 0 z m 579 978 b 835 1189 710 978 790 1044 l 781 1189 b 597 1082 733 1097 685 1082 b 457 1189 510 1082 460 1097 l 408 1189 b 404 1132 404 1168 404 1150 b 579 978 404 1024 469 978 z "},"Ę":{"ha":881,"x_min":0,"x_max":0,"o":"m 733 0 l 818 268 l 760 268 b 453 74 681 110 646 74 l 290 74 l 365 436 l 497 436 b 622 307 631 436 646 422 l 678 307 l 744 628 l 688 628 b 511 503 665 518 644 503 l 379 503 l 449 838 l 632 838 b 806 669 792 838 813 800 l 867 669 l 907 913 l 163 913 l 151 858 b 254 732 264 858 276 838 l 138 168 b -12 53 115 67 81 53 l -24 0 l 550 0 l 550 -1 b 393 -192 489 -36 393 -96 b 522 -304 393 -260 439 -304 b 717 -212 604 -304 654 -267 l 692 -179 b 579 -222 647 -210 622 -222 b 511 -154 535 -222 511 -203 b 636 0 511 -72 582 -33 z "},"Ḟ":{"ha":835,"x_min":0,"x_max":0,"o":"m 419 0 l 431 53 b 304 115 342 53 304 64 b 310 163 304 128 306 144 l 365 432 l 486 432 b 614 306 606 432 636 419 l 671 306 l 738 631 l 681 631 b 500 499 657 518 618 499 l 379 499 l 449 838 l 628 838 b 808 668 806 838 811 800 l 869 668 l 910 913 l 163 913 l 151 858 b 257 743 260 858 275 842 l 139 174 b -12 53 117 71 88 53 l -24 0 z m 594 971 b 694 1067 657 971 694 1007 b 596 1163 694 1125 660 1163 b 500 1065 535 1163 500 1125 b 594 971 500 1007 536 971 z "},"Ĝ":{"ha":986,"x_min":0,"x_max":0,"o":"m 447 -15 b 813 79 596 -15 700 21 l 851 269 b 965 375 869 356 888 375 l 975 431 l 610 431 l 599 375 b 692 256 703 375 713 356 l 667 124 b 469 60 606 81 551 60 b 267 332 329 60 267 154 b 632 860 267 613 385 860 b 846 600 774 860 850 785 l 904 600 l 972 929 l 919 929 b 864 878 904 901 890 878 b 647 929 828 878 793 929 b 83 331 347 929 83 731 b 447 -15 83 126 189 -15 z m 517 969 l 674 1071 l 796 969 l 865 969 l 751 1163 l 633 1163 l 440 969 z "},"Ḡ":{"ha":986,"x_min":0,"x_max":0,"o":"m 447 -15 b 813 79 596 -15 700 21 l 851 269 b 965 375 869 356 888 375 l 975 431 l 610 431 l 599 375 b 692 256 703 375 713 356 l 667 124 b 469 60 606 81 551 60 b 267 332 329 60 267 154 b 632 860 267 613 385 860 b 846 600 774 860 850 785 l 904 600 l 972 929 l 919 929 b 864 878 904 901 890 878 b 647 929 828 878 793 929 b 83 331 347 929 83 731 b 447 -15 83 126 189 -15 z m 872 1008 l 890 1097 l 481 1097 l 463 1008 z "},"Ğ":{"ha":986,"x_min":0,"x_max":0,"o":"m 447 -15 b 813 79 596 -15 700 21 l 851 269 b 965 375 869 356 888 375 l 975 431 l 610 431 l 599 375 b 692 256 703 375 713 356 l 667 124 b 469 60 606 81 551 60 b 267 332 329 60 267 154 b 632 860 267 613 385 860 b 846 600 774 860 850 785 l 904 600 l 972 929 l 919 929 b 864 878 904 901 890 878 b 647 929 828 878 793 929 b 83 331 347 929 83 731 b 447 -15 83 126 189 -15 z m 657 978 b 914 1189 788 978 869 1044 l 860 1189 b 676 1082 811 1097 764 1082 b 535 1189 589 1082 539 1097 l 486 1189 b 482 1132 483 1168 482 1150 b 657 978 482 1024 549 978 z "},"Ġ":{"ha":986,"x_min":0,"x_max":0,"o":"m 447 -15 b 813 79 596 -15 700 21 l 851 269 b 965 375 869 356 888 375 l 975 431 l 610 431 l 599 375 b 692 256 703 375 713 356 l 667 124 b 469 60 606 81 551 60 b 267 332 329 60 267 154 b 632 860 267 613 385 860 b 846 600 774 860 850 785 l 904 600 l 972 929 l 919 929 b 864 878 904 901 890 878 b 647 929 828 878 793 929 b 83 331 347 929 83 731 b 447 -15 83 126 189 -15 z m 671 971 b 769 1067 732 971 769 1007 b 672 1163 769 1125 735 1163 b 575 1065 611 1163 575 1125 b 671 971 575 1007 613 971 z "},"Ģ":{"ha":986,"x_min":0,"x_max":0,"o":"m 447 -15 b 813 79 596 -15 700 21 l 851 269 b 965 375 869 356 888 375 l 975 431 l 610 431 l 599 375 b 692 256 703 375 713 356 l 667 124 b 469 60 606 81 551 60 b 267 332 329 60 267 154 b 632 860 267 613 385 860 b 846 600 774 860 850 785 l 904 600 l 972 929 l 919 929 b 864 878 904 901 890 878 b 647 929 828 878 793 929 b 83 331 347 929 83 731 b 447 -15 83 126 189 -15 z m 278 -407 b 511 -179 378 -383 511 -312 b 408 -61 511 -108 475 -61 b 311 -154 342 -61 311 -108 b 389 -231 311 -201 346 -231 b 417 -225 399 -231 407 -228 b 265 -365 401 -311 322 -346 z "},"Ĥ":{"ha":1106,"x_min":0,"x_max":0,"o":"m 401 0 l 413 53 b 317 193 299 53 290 71 l 365 431 l 781 431 l 731 193 b 579 53 706 72 694 53 l 568 0 l 993 0 l 1004 53 b 904 193 886 53 878 74 l 1013 717 b 1169 860 1035 826 1046 860 l 1179 913 l 754 913 l 743 860 b 840 717 863 860 861 826 l 794 499 l 379 499 l 424 717 b 583 860 449 826 457 860 l 592 913 l 163 913 l 151 860 b 251 717 274 860 274 826 l 143 193 b -12 53 117 71 100 53 l -24 0 z m 551 969 l 708 1071 l 831 969 l 900 969 l 786 1163 l 668 1163 l 475 969 z "},"Ḧ":{"ha":1106,"x_min":0,"x_max":0,"o":"m 401 0 l 413 53 b 317 193 299 53 290 71 l 365 431 l 781 431 l 731 193 b 579 53 706 72 694 53 l 568 0 l 993 0 l 1004 53 b 904 193 886 53 878 74 l 1013 717 b 1169 860 1035 826 1046 860 l 1179 913 l 754 913 l 743 860 b 840 717 863 860 861 826 l 794 499 l 379 499 l 424 717 b 583 860 449 826 457 860 l 592 913 l 163 913 l 151 860 b 251 717 274 860 274 826 l 143 193 b -12 53 117 71 100 53 l -24 0 z m 857 975 b 951 1068 915 975 951 1011 b 858 1158 951 1121 919 1158 b 765 1067 800 1158 765 1122 b 857 975 765 1011 801 975 z m 554 975 b 649 1068 613 975 649 1011 b 556 1158 649 1121 615 1158 b 463 1067 497 1158 463 1122 b 554 975 463 1011 497 975 z "},"Ḣ":{"ha":1106,"x_min":0,"x_max":0,"o":"m 401 0 l 413 53 b 317 193 299 53 290 71 l 365 431 l 781 431 l 731 193 b 579 53 706 72 694 53 l 568 0 l 993 0 l 1004 53 b 904 193 886 53 878 74 l 1013 717 b 1169 860 1035 826 1046 860 l 1179 913 l 754 913 l 743 860 b 840 717 863 860 861 826 l 794 499 l 379 499 l 424 717 b 583 860 449 826 457 860 l 592 913 l 163 913 l 151 860 b 251 717 274 860 274 826 l 143 193 b -12 53 117 71 100 53 l -24 0 z m 706 971 b 804 1067 767 971 804 1007 b 707 1163 804 1125 769 1163 b 610 1065 646 1163 610 1125 b 706 971 610 1007 646 971 z "},"Ḫ":{"ha":1106,"x_min":0,"x_max":0,"o":"m 401 0 l 413 53 b 317 193 299 53 290 71 l 365 431 l 781 431 l 731 193 b 579 53 706 72 694 53 l 568 0 l 993 0 l 1004 53 b 904 193 886 53 878 74 l 1013 717 b 1169 860 1035 826 1046 860 l 1179 913 l 754 913 l 743 860 b 840 717 863 860 861 826 l 794 499 l 379 499 l 424 717 b 583 860 449 826 457 860 l 592 913 l 163 913 l 151 860 b 251 717 274 860 274 826 l 143 193 b -12 53 117 71 100 53 l -24 0 z m 433 -287 b 689 -69 563 -287 643 -217 l 635 -69 b 450 -182 586 -164 539 -182 b 313 -69 365 -182 315 -164 l 263 -69 b 258 -126 258 -90 258 -110 b 433 -287 258 -236 324 -287 z "},"Ḥ":{"ha":1106,"x_min":0,"x_max":0,"o":"m 401 0 l 413 53 b 317 193 299 53 290 71 l 365 431 l 781 431 l 731 193 b 579 53 706 72 694 53 l 568 0 l 993 0 l 1004 53 b 904 193 886 53 878 74 l 1013 717 b 1169 860 1035 826 1046 860 l 1179 913 l 754 913 l 743 860 b 840 717 863 860 861 826 l 794 499 l 379 499 l 424 717 b 583 860 449 826 457 860 l 592 913 l 163 913 l 151 860 b 251 717 274 860 274 826 l 143 193 b -12 53 117 71 100 53 l -24 0 z m 449 -285 b 547 -187 510 -285 547 -247 b 450 -92 547 -131 514 -92 b 351 -189 389 -92 351 -131 b 449 -285 351 -247 389 -285 z "},"Ḩ":{"ha":1106,"x_min":0,"x_max":0,"o":"m 401 0 l 413 53 b 317 193 299 53 290 71 l 365 431 l 781 431 l 731 193 b 579 53 706 72 694 53 l 568 0 l 993 0 l 1004 53 b 904 193 886 53 878 74 l 1013 717 b 1169 860 1035 826 1046 860 l 1179 913 l 754 913 l 743 860 b 840 717 863 860 861 826 l 794 499 l 379 499 l 424 717 b 583 860 449 826 457 860 l 592 913 l 163 913 l 151 860 b 251 717 274 860 274 826 l 143 193 b -12 53 117 71 100 53 l -24 0 l 129 0 l 75 -115 l 92 -135 b 135 -131 92 -135 117 -131 b 188 -179 169 -131 188 -146 b 110 -243 188 -222 154 -243 b 19 -215 75 -243 42 -231 l -10 -253 b 121 -304 26 -286 72 -304 b 288 -171 204 -304 288 -257 b 179 -72 288 -107 242 -72 b 146 -75 164 -72 149 -75 l 179 0 z "},"Ħ":{"ha":1122,"x_min":0,"x_max":0,"o":"m 406 0 l 417 53 b 311 110 338 53 311 61 b 321 179 311 126 315 150 b 324 193 322 183 322 189 l 371 426 l 789 426 l 740 193 b 586 53 715 72 703 53 l 575 0 l 1003 0 l 1014 53 b 901 113 931 53 901 63 b 914 193 901 132 907 158 l 1007 640 l 1138 640 l 1153 710 l 1022 710 l 1024 717 b 1181 860 1044 826 1058 860 l 1190 913 l 764 913 l 754 860 b 861 797 838 860 861 843 b 850 717 861 776 857 750 l 849 710 l 429 710 l 431 717 b 594 860 456 826 468 860 l 604 913 l 174 913 l 163 860 b 271 799 246 860 271 844 b 258 717 271 778 265 751 l 257 710 l 132 710 l 117 640 l 243 640 l 150 193 b -6 53 124 71 107 53 l -17 0 z m 385 494 l 415 640 l 833 640 l 803 494 z "},"Ì":{"ha":517,"x_min":0,"x_max":0,"o":"m 400 0 l 411 53 b 315 192 296 53 292 72 l 424 717 b 582 860 447 825 460 860 l 593 913 l 163 913 l 151 860 b 251 717 274 860 274 826 l 143 193 b -12 53 117 72 104 53 l -24 0 z m 526 969 l 404 1151 l 265 1151 l 258 1113 l 446 969 z "},"Í":{"ha":517,"x_min":0,"x_max":0,"o":"m 400 0 l 411 53 b 315 192 296 53 292 72 l 424 717 b 582 860 447 825 460 860 l 593 913 l 163 913 l 151 860 b 251 717 274 860 274 826 l 143 193 b -12 53 117 72 104 53 l -24 0 z m 336 969 l 553 1113 l 560 1151 l 404 1151 l 256 969 z "},"Î":{"ha":517,"x_min":0,"x_max":0,"o":"m 400 0 l 411 53 b 315 192 296 53 292 72 l 424 717 b 582 860 447 825 460 860 l 593 913 l 163 913 l 151 860 b 251 717 274 860 274 826 l 143 193 b -12 53 117 72 104 53 l -24 0 z m 254 969 l 413 1071 l 535 969 l 603 969 l 490 1163 l 371 1163 l 179 969 z "},"Ĩ":{"ha":517,"x_min":0,"x_max":0,"o":"m 400 0 l 411 53 b 315 192 296 53 292 72 l 424 717 b 582 860 447 825 460 860 l 593 913 l 163 913 l 151 860 b 251 717 274 860 274 826 l 143 193 b -12 53 117 72 104 53 l -24 0 z m 221 979 b 307 1029 240 1019 271 1029 b 481 985 382 1029 407 985 b 661 1136 564 985 626 1039 l 611 1136 b 522 1085 588 1092 556 1085 b 349 1128 450 1085 419 1128 b 169 979 268 1128 201 1069 z "},"Ï":{"ha":517,"x_min":0,"x_max":0,"o":"m 400 0 l 411 53 b 315 192 296 53 292 72 l 424 717 b 582 860 447 825 460 860 l 593 913 l 163 913 l 151 860 b 251 717 274 860 274 826 l 143 193 b -12 53 117 72 104 53 l -24 0 z m 258 975 b 351 1068 317 975 351 1011 b 260 1158 351 1121 319 1158 b 167 1067 201 1158 167 1122 b 258 975 167 1011 201 975 z m 561 975 b 656 1068 619 975 656 1011 b 563 1158 656 1121 624 1158 b 469 1067 504 1158 469 1122 b 561 975 469 1011 506 975 z "},"Ḯ":{"ha":517,"x_min":0,"x_max":0,"o":"m 400 0 l 411 53 b 315 192 296 53 292 72 l 424 717 b 582 860 447 825 460 860 l 593 913 l 163 913 l 151 860 b 251 717 274 860 274 826 l 143 193 b -12 53 117 72 104 53 l -24 0 z m 256 961 b 349 1054 314 961 349 997 b 257 1144 349 1107 317 1144 b 164 1053 199 1144 164 1108 b 256 961 164 997 199 961 z m 558 961 b 653 1054 617 961 653 997 b 560 1144 653 1107 621 1144 b 467 1053 501 1144 467 1108 b 558 961 467 997 503 961 z m 378 1176 l 594 1321 l 601 1360 l 446 1360 l 297 1176 z "},"Ī":{"ha":517,"x_min":0,"x_max":0,"o":"m 400 0 l 411 53 b 315 192 296 53 292 72 l 424 717 b 582 860 447 825 460 860 l 593 913 l 163 913 l 151 860 b 251 717 274 860 274 826 l 143 193 b -12 53 117 72 104 53 l -24 0 z m 604 1008 l 622 1097 l 213 1097 l 194 1008 z "},"Ĭ":{"ha":517,"x_min":0,"x_max":0,"o":"m 400 0 l 411 53 b 315 192 296 53 292 72 l 424 717 b 582 860 447 825 460 860 l 593 913 l 163 913 l 151 860 b 251 717 274 860 274 826 l 143 193 b -12 53 117 72 104 53 l -24 0 z m 396 978 b 651 1189 526 978 608 1044 l 599 1189 b 414 1082 550 1097 503 1082 b 274 1189 328 1082 276 1097 l 225 1189 b 221 1132 221 1168 221 1150 b 396 978 221 1024 288 978 z "},"İ":{"ha":517,"x_min":0,"x_max":0,"o":"m 400 0 l 411 53 b 315 192 296 53 292 72 l 424 717 b 582 860 447 825 460 860 l 593 913 l 163 913 l 151 860 b 251 717 274 860 274 826 l 143 193 b -12 53 117 72 104 53 l -24 0 z m 410 971 b 508 1067 471 971 508 1007 b 411 1163 508 1125 474 1163 b 314 1065 350 1163 314 1125 b 410 971 314 1007 350 971 z "},"Ỉ":{"ha":517,"x_min":0,"x_max":0,"o":"m 400 0 l 411 53 b 315 192 296 53 292 72 l 424 717 b 582 860 447 825 460 860 l 593 913 l 163 913 l 151 860 b 251 717 274 860 274 826 l 143 193 b -12 53 117 72 104 53 l -24 0 z m 425 969 l 435 1015 b 585 1151 488 1024 585 1058 b 456 1254 585 1213 540 1254 b 311 1174 385 1254 311 1226 b 347 1139 311 1154 322 1139 b 449 1204 397 1139 389 1204 b 479 1161 472 1204 479 1192 b 368 1044 479 1074 426 1044 l 351 969 z "},"Ḭ":{"ha":517,"x_min":0,"x_max":0,"o":"m 400 0 l 411 53 b 315 192 296 53 292 72 l 424 717 b 582 860 447 825 460 860 l 593 913 l 163 913 l 151 860 b 251 717 274 860 274 826 l 143 193 b -12 53 117 72 104 53 l -24 0 z m -44 -229 b 44 -169 -22 -185 10 -169 b 213 -225 111 -169 135 -225 b 389 -65 290 -225 346 -172 l 343 -65 b 251 -126 318 -111 285 -126 b 88 -71 189 -126 160 -71 b -92 -229 8 -71 -58 -139 z "},"Ị":{"ha":517,"x_min":0,"x_max":0,"o":"m 400 0 l 411 53 b 315 192 296 53 292 72 l 424 717 b 582 860 447 825 460 860 l 593 913 l 163 913 l 151 860 b 251 717 274 860 274 826 l 143 193 b -12 53 117 72 104 53 l -24 0 z m 146 -285 b 244 -187 207 -285 244 -247 b 147 -92 244 -131 210 -92 b 49 -189 85 -92 49 -131 b 146 -285 49 -247 86 -285 z "},"Į":{"ha":517,"x_min":0,"x_max":0,"o":"m 400 0 l 411 53 b 304 111 328 53 304 64 b 315 192 304 131 308 158 l 424 717 b 582 860 447 825 460 860 l 593 913 l 163 913 l 151 860 b 263 796 238 860 263 843 b 251 717 263 775 258 750 l 143 193 b -12 53 117 72 104 53 l -24 0 l 182 0 l 182 -3 b 26 -192 121 -37 26 -96 b 154 -304 26 -260 71 -304 b 349 -212 236 -304 288 -267 l 325 -179 b 211 -222 281 -210 256 -222 b 143 -154 167 -222 143 -203 b 268 0 143 -72 214 -33 z "},"Ĵ":{"ha":614,"x_min":0,"x_max":0,"o":"m 119 -18 b 438 224 253 -18 396 18 l 540 717 b 699 860 563 825 578 860 l 708 913 l 265 913 l 253 860 b 367 717 385 860 388 825 l 256 179 b 164 42 233 74 217 42 b 35 185 99 42 138 185 b -43 97 -14 185 -43 149 b 119 -18 -43 14 35 -18 z m 371 969 l 528 1071 l 650 969 l 719 969 l 606 1163 l 488 1163 l 294 969 z "},"Ḱ":{"ha":972,"x_min":0,"x_max":0,"o":"m 404 0 l 415 53 b 315 193 297 53 293 75 l 364 424 l 376 424 l 463 308 b 596 94 563 176 596 132 b 535 53 596 63 569 53 l 514 53 l 504 0 l 942 0 l 953 53 b 821 114 888 53 854 69 l 519 507 l 854 767 b 1053 858 942 836 975 853 l 1064 913 l 711 913 l 699 858 l 722 858 b 769 826 753 858 769 847 b 653 689 769 783 736 757 l 381 469 l 374 469 l 424 717 b 586 860 447 825 458 860 l 596 913 l 163 913 l 151 860 b 251 717 274 860 274 826 l 143 193 b -12 53 117 74 104 53 l -24 0 z m 596 969 l 814 1113 l 821 1151 l 665 1151 l 515 969 z "},"Ḵ":{"ha":972,"x_min":0,"x_max":0,"o":"m 404 0 l 415 53 b 315 193 297 53 293 75 l 364 424 l 376 424 l 463 308 b 596 94 563 176 596 132 b 535 53 596 63 569 53 l 514 53 l 504 0 l 942 0 l 953 53 b 821 114 888 53 854 69 l 519 507 l 854 767 b 1053 858 942 836 975 853 l 1064 913 l 711 913 l 699 858 l 722 858 b 769 826 753 858 769 847 b 653 689 769 783 736 757 l 381 469 l 374 469 l 424 717 b 586 860 447 825 458 860 l 596 913 l 163 913 l 151 860 b 251 717 274 860 274 826 l 143 193 b -12 53 117 74 104 53 l -24 0 z m 607 -204 l 626 -111 l 224 -111 l 204 -204 z "},"Ḳ":{"ha":972,"x_min":0,"x_max":0,"o":"m 404 0 l 415 53 b 315 193 297 53 293 75 l 364 424 l 376 424 l 463 308 b 596 94 563 176 596 132 b 535 53 596 63 569 53 l 514 53 l 504 0 l 942 0 l 953 53 b 821 114 888 53 854 69 l 519 507 l 854 767 b 1053 858 942 836 975 853 l 1064 913 l 711 913 l 699 858 l 722 858 b 769 826 753 858 769 847 b 653 689 769 783 736 757 l 381 469 l 374 469 l 424 717 b 586 860 447 825 458 860 l 596 913 l 163 913 l 151 860 b 251 717 274 860 274 826 l 143 193 b -12 53 117 74 104 53 l -24 0 z m 407 -285 b 506 -187 468 -285 506 -247 b 408 -92 506 -131 472 -92 b 310 -189 347 -92 310 -131 b 407 -285 310 -247 347 -285 z "},"Ķ":{"ha":972,"x_min":0,"x_max":0,"o":"m 404 0 l 415 53 b 315 193 297 53 293 75 l 364 424 l 376 424 l 463 308 b 596 94 563 176 596 132 b 535 53 596 63 569 53 l 514 53 l 504 0 l 942 0 l 953 53 b 821 114 888 53 854 69 l 519 507 l 854 767 b 1053 858 942 836 975 853 l 1064 913 l 711 913 l 699 858 l 722 858 b 769 826 753 858 769 847 b 653 689 769 783 736 757 l 381 469 l 374 469 l 424 717 b 586 860 447 825 458 860 l 596 913 l 163 913 l 151 860 b 251 717 274 860 274 826 l 143 193 b -12 53 117 74 104 53 l -24 0 z m 293 -407 b 526 -179 392 -383 526 -312 b 422 -61 526 -108 489 -61 b 325 -154 356 -61 325 -108 b 403 -231 325 -201 360 -231 b 431 -225 413 -231 421 -228 b 279 -365 415 -311 338 -346 z "},"Ĺ":{"ha":849,"x_min":0,"x_max":0,"o":"m 717 0 l 810 285 l 750 285 b 472 74 672 122 633 74 l 396 74 b 308 153 314 74 296 86 l 428 729 b 590 860 449 835 479 860 l 600 913 l 163 913 l 153 860 b 254 731 269 860 275 831 l 140 183 b -14 53 117 74 99 53 l -25 0 z m 335 969 l 553 1113 l 560 1151 l 404 1151 l 254 969 z "},"Ľ":{"ha":849,"x_min":0,"x_max":0,"o":"m 717 0 l 810 285 l 750 285 b 472 74 672 122 633 74 l 396 74 b 308 153 314 74 296 86 l 428 729 b 590 860 449 835 479 860 l 600 913 l 163 913 l 153 860 b 254 731 269 860 275 831 l 140 183 b -14 53 117 74 99 53 l -25 0 z m 715 628 b 847 872 769 699 831 794 l 854 913 l 718 913 l 663 638 z "},"Ḹ":{"ha":849,"x_min":0,"x_max":0,"o":"m 717 0 l 810 285 l 750 285 b 472 74 672 122 633 74 l 396 74 b 308 153 314 74 296 86 l 428 729 b 590 860 449 835 479 860 l 600 913 l 163 913 l 153 860 b 254 731 269 860 275 831 l 140 183 b -14 53 117 74 99 53 l -25 0 z m 603 1008 l 621 1097 l 211 1097 l 193 1008 z m 328 -285 b 426 -187 389 -285 426 -247 b 329 -92 426 -131 393 -92 b 231 -189 268 -92 231 -131 b 328 -285 231 -247 268 -285 z "},"Ḽ":{"ha":849,"x_min":0,"x_max":0,"o":"m 717 0 l 810 285 l 750 285 b 472 74 672 122 633 74 l 396 74 b 308 153 314 74 296 86 l 428 729 b 590 860 449 835 479 860 l 600 913 l 163 913 l 153 860 b 254 731 269 860 275 831 l 140 183 b -14 53 117 74 99 53 l -25 0 z m 176 -282 l 336 -157 l 449 -282 l 515 -282 l 411 -69 l 296 -69 l 103 -282 z "},"Ḻ":{"ha":849,"x_min":0,"x_max":0,"o":"m 717 0 l 810 285 l 750 285 b 472 74 672 122 633 74 l 396 74 b 308 153 314 74 296 86 l 428 729 b 590 860 449 835 479 860 l 600 913 l 163 913 l 153 860 b 254 731 269 860 275 831 l 140 183 b -14 53 117 74 99 53 l -25 0 z m 528 -204 l 547 -111 l 144 -111 l 125 -204 z "},"Ḷ":{"ha":849,"x_min":0,"x_max":0,"o":"m 717 0 l 810 285 l 750 285 b 472 74 672 122 633 74 l 396 74 b 308 153 314 74 296 86 l 428 729 b 590 860 449 835 479 860 l 600 913 l 163 913 l 153 860 b 254 731 269 860 275 831 l 140 183 b -14 53 117 74 99 53 l -25 0 z m 328 -285 b 426 -187 389 -285 426 -247 b 329 -92 426 -131 393 -92 b 231 -189 268 -92 231 -131 b 328 -285 231 -247 268 -285 z "},"Ļ":{"ha":849,"x_min":0,"x_max":0,"o":"m 717 0 l 810 285 l 750 285 b 472 74 672 122 633 74 l 396 74 b 308 153 314 74 296 86 l 428 729 b 590 860 449 835 479 860 l 600 913 l 163 913 l 153 860 b 254 731 269 860 275 831 l 140 183 b -14 53 117 74 99 53 l -25 0 z m 214 -407 b 447 -179 313 -383 447 -312 b 343 -61 447 -108 410 -61 b 246 -154 276 -61 246 -108 b 324 -231 246 -201 281 -231 b 351 -225 333 -231 342 -228 b 200 -365 336 -311 258 -346 z "},"Ŀ":{"ha":860,"x_min":0,"x_max":0,"o":"m 717 0 l 810 285 l 750 285 b 472 74 672 122 633 74 l 396 74 b 308 153 314 74 296 86 l 428 729 b 590 860 449 835 479 860 l 600 913 l 163 913 l 153 860 b 254 731 269 860 275 831 l 140 183 b -14 53 117 74 99 53 l -25 0 z m 721 393 b 819 489 783 393 819 431 b 722 585 819 547 786 585 b 626 489 661 585 626 547 b 721 393 626 429 663 393 z "},"Ł":{"ha":857,"x_min":0,"x_max":0,"o":"m 725 0 l 818 285 l 758 285 b 481 74 679 122 642 74 l 403 74 b 317 153 322 74 303 86 l 381 463 l 663 601 l 629 664 l 399 550 l 436 729 b 599 860 457 835 488 860 l 608 913 l 171 913 l 161 860 b 261 731 278 860 283 831 l 204 454 l 14 361 l 46 297 l 186 367 l 149 183 b -6 53 125 74 106 53 l -17 0 z "},"Ḿ":{"ha":1294,"x_min":0,"x_max":0,"o":"m 300 0 l 311 53 b 221 208 207 53 192 65 l 331 739 l 338 739 l 493 0 l 572 0 l 1026 740 l 1033 740 l 915 169 b 772 53 896 74 875 53 l 761 0 l 1176 0 l 1186 53 b 1088 169 1090 53 1067 74 l 1203 732 b 1349 860 1226 835 1254 860 l 1361 913 l 1039 913 l 638 247 l 628 247 l 496 913 l 153 913 l 142 860 b 240 731 247 860 263 835 l 132 208 b -25 53 103 65 83 53 l -36 0 z m 724 969 l 940 1113 l 947 1151 l 792 1151 l 643 969 z "},"Ṁ":{"ha":1294,"x_min":0,"x_max":0,"o":"m 300 0 l 311 53 b 221 208 207 53 192 65 l 331 739 l 338 739 l 493 0 l 572 0 l 1026 740 l 1033 740 l 915 169 b 772 53 896 74 875 53 l 761 0 l 1176 0 l 1186 53 b 1088 169 1090 53 1067 74 l 1203 732 b 1349 860 1226 835 1254 860 l 1361 913 l 1039 913 l 638 247 l 628 247 l 496 913 l 153 913 l 142 860 b 240 731 247 860 263 835 l 132 208 b -25 53 103 65 83 53 l -36 0 z m 797 971 b 896 1067 858 971 896 1007 b 799 1163 896 1125 861 1163 b 701 1065 738 1163 701 1125 b 797 971 701 1007 738 971 z "},"Ṃ":{"ha":1294,"x_min":0,"x_max":0,"o":"m 300 0 l 311 53 b 221 208 207 53 192 65 l 331 739 l 338 739 l 493 0 l 572 0 l 1026 740 l 1033 740 l 915 169 b 772 53 896 74 875 53 l 761 0 l 1176 0 l 1186 53 b 1088 169 1090 53 1067 74 l 1203 732 b 1349 860 1226 835 1254 860 l 1361 913 l 1039 913 l 638 247 l 628 247 l 496 913 l 153 913 l 142 860 b 240 731 247 860 263 835 l 132 208 b -25 53 103 65 83 53 l -36 0 z m 490 -285 b 589 -187 553 -285 589 -247 b 492 -92 589 -131 556 -92 b 393 -189 431 -92 393 -131 b 490 -285 393 -247 431 -285 z "},"Ń":{"ha":1033,"x_min":0,"x_max":0,"o":"m 818 -10 l 960 678 b 1121 860 983 794 1015 860 l 1132 913 l 794 913 l 785 860 b 878 681 904 860 900 790 l 789 247 l 782 247 l 429 913 l 151 913 l 140 860 b 253 793 200 860 222 847 l 135 218 b -26 53 106 79 83 53 l -36 0 l 296 0 l 308 53 b 217 218 204 53 188 79 l 319 717 l 326 717 l 713 -10 z m 600 969 l 818 1113 l 825 1151 l 669 1151 l 519 969 z "},"Ň":{"ha":1033,"x_min":0,"x_max":0,"o":"m 818 -10 l 960 678 b 1121 860 983 794 1015 860 l 1132 913 l 794 913 l 785 860 b 878 681 904 860 900 790 l 789 247 l 782 247 l 429 913 l 151 913 l 140 860 b 253 793 200 860 222 847 l 135 218 b -26 53 106 79 83 53 l -36 0 l 296 0 l 308 53 b 217 218 204 53 188 79 l 319 717 l 326 717 l 713 -10 z m 714 969 l 907 1163 l 831 1163 l 674 1060 l 551 1163 l 482 1163 l 596 969 z "},"Ñ":{"ha":1033,"x_min":0,"x_max":0,"o":"m 818 -10 l 960 678 b 1121 860 983 794 1015 860 l 1132 913 l 794 913 l 785 860 b 878 681 904 860 900 790 l 789 247 l 782 247 l 429 913 l 151 913 l 140 860 b 253 793 200 860 222 847 l 135 218 b -26 53 106 79 83 53 l -36 0 l 296 0 l 308 53 b 217 218 204 53 188 79 l 319 717 l 326 717 l 713 -10 z m 485 979 b 571 1029 506 1019 535 1029 b 744 985 646 1029 671 985 b 925 1136 828 985 890 1039 l 875 1136 b 786 1085 853 1092 821 1085 b 614 1128 714 1085 685 1128 b 435 979 532 1128 467 1069 z "},"Ṅ":{"ha":1033,"x_min":0,"x_max":0,"o":"m 818 -10 l 960 678 b 1121 860 983 794 1015 860 l 1132 913 l 794 913 l 785 860 b 878 681 904 860 900 790 l 789 247 l 782 247 l 429 913 l 151 913 l 140 860 b 253 793 200 860 222 847 l 135 218 b -26 53 106 79 83 53 l -36 0 l 296 0 l 308 53 b 217 218 204 53 188 79 l 319 717 l 326 717 l 713 -10 z m 674 971 b 772 1067 735 971 772 1007 b 675 1163 772 1125 739 1163 b 578 1065 614 1163 578 1125 b 674 971 578 1007 615 971 z "},"Ṋ":{"ha":1033,"x_min":0,"x_max":0,"o":"m 818 -10 l 960 678 b 1121 860 983 794 1015 860 l 1132 913 l 794 913 l 785 860 b 878 681 904 860 900 790 l 789 247 l 782 247 l 429 913 l 151 913 l 140 860 b 253 793 200 860 222 847 l 135 218 b -26 53 106 79 83 53 l -36 0 l 296 0 l 308 53 b 217 218 204 53 188 79 l 319 717 l 326 717 l 713 -10 z m 244 -282 l 404 -157 l 517 -282 l 585 -282 l 479 -69 l 364 -69 l 171 -282 z "},"Ṉ":{"ha":1033,"x_min":0,"x_max":0,"o":"m 818 -10 l 960 678 b 1121 860 983 794 1015 860 l 1132 913 l 794 913 l 785 860 b 878 681 904 860 900 790 l 789 247 l 782 247 l 429 913 l 151 913 l 140 860 b 253 793 200 860 222 847 l 135 218 b -26 53 106 79 83 53 l -36 0 l 296 0 l 308 53 b 217 218 204 53 188 79 l 319 717 l 326 717 l 713 -10 z m 596 -204 l 615 -111 l 213 -111 l 193 -204 z "},"Ṇ":{"ha":1033,"x_min":0,"x_max":0,"o":"m 818 -10 l 960 678 b 1121 860 983 794 1015 860 l 1132 913 l 794 913 l 785 860 b 878 681 904 860 900 790 l 789 247 l 782 247 l 429 913 l 151 913 l 140 860 b 253 793 200 860 222 847 l 135 218 b -26 53 106 79 83 53 l -36 0 l 296 0 l 308 53 b 217 218 204 53 188 79 l 319 717 l 326 717 l 713 -10 z m 396 -285 b 496 -187 458 -285 496 -247 b 397 -92 496 -131 461 -92 b 299 -189 336 -92 299 -131 b 396 -285 299 -247 336 -285 z "},"Ņ":{"ha":1033,"x_min":0,"x_max":0,"o":"m 818 -10 l 960 678 b 1121 860 983 794 1015 860 l 1132 913 l 794 913 l 785 860 b 878 681 904 860 900 790 l 789 247 l 782 247 l 429 913 l 151 913 l 140 860 b 253 793 200 860 222 847 l 135 218 b -26 53 106 79 83 53 l -36 0 l 296 0 l 308 53 b 217 218 204 53 188 79 l 319 717 l 326 717 l 713 -10 z m 282 -407 b 515 -179 381 -383 515 -312 b 413 -61 515 -108 478 -61 b 314 -154 346 -61 314 -108 b 392 -231 314 -201 349 -231 b 419 -225 403 -231 410 -228 b 269 -365 404 -311 326 -346 z "},"Ò":{"ha":1019,"x_min":0,"x_max":0,"o":"m 443 -18 b 990 574 772 -18 990 228 b 628 929 990 782 871 929 b 85 342 304 929 85 682 b 443 -18 85 124 199 -18 z m 460 49 b 268 322 322 49 268 160 b 611 864 268 629 406 864 b 806 589 735 864 806 767 b 460 49 806 340 718 49 z m 781 969 l 658 1151 l 519 1151 l 513 1113 l 700 969 z "},"Ó":{"ha":1019,"x_min":0,"x_max":0,"o":"m 443 -18 b 990 574 772 -18 990 228 b 628 929 990 782 871 929 b 85 342 304 929 85 682 b 443 -18 85 124 199 -18 z m 460 49 b 268 322 322 49 268 160 b 611 864 268 629 406 864 b 806 589 735 864 806 767 b 460 49 806 340 718 49 z m 590 969 l 807 1113 l 815 1151 l 658 1151 l 510 969 z "},"Ô":{"ha":1019,"x_min":0,"x_max":0,"o":"m 443 -18 b 990 574 772 -18 990 228 b 628 929 990 782 871 929 b 85 342 304 929 85 682 b 443 -18 85 124 199 -18 z m 460 49 b 268 322 322 49 268 160 b 611 864 268 629 406 864 b 806 589 735 864 806 767 b 460 49 806 340 718 49 z m 510 969 l 667 1071 l 789 969 l 858 969 l 744 1163 l 626 1163 l 433 969 z "},"Ồ":{"ha":1019,"x_min":0,"x_max":0,"o":"m 443 -18 b 990 574 772 -18 990 228 b 628 929 990 782 871 929 b 85 342 304 929 85 682 b 443 -18 85 124 199 -18 z m 460 49 b 268 322 322 49 268 160 b 611 864 268 629 406 864 b 806 589 735 864 806 767 b 460 49 806 340 718 49 z m 507 963 l 665 1064 l 788 963 l 856 963 l 742 1149 l 624 1149 l 432 963 z m 1007 1060 l 896 1236 l 765 1236 l 758 1199 l 935 1060 z "},"Ố":{"ha":1019,"x_min":0,"x_max":0,"o":"m 443 -18 b 990 574 772 -18 990 228 b 628 929 990 782 871 929 b 85 342 304 929 85 682 b 443 -18 85 124 199 -18 z m 460 49 b 268 322 322 49 268 160 b 611 864 268 629 406 864 b 806 589 735 864 806 767 b 460 49 806 340 718 49 z m 507 963 l 665 1064 l 788 963 l 856 963 l 742 1149 l 624 1149 l 432 963 z m 883 1060 l 1096 1199 l 1103 1236 l 958 1236 l 811 1060 z "},"Ỗ":{"ha":1019,"x_min":0,"x_max":0,"o":"m 443 -18 b 990 574 772 -18 990 228 b 628 929 990 782 871 929 b 85 342 304 929 85 682 b 443 -18 85 124 199 -18 z m 460 49 b 268 322 322 49 268 160 b 611 864 268 629 406 864 b 806 589 735 864 806 767 b 460 49 806 340 718 49 z m 517 1163 b 604 1213 536 1200 568 1213 b 778 1171 672 1213 701 1171 b 950 1311 858 1171 913 1218 l 901 1311 b 817 1263 879 1269 846 1263 b 642 1306 744 1263 713 1306 b 467 1163 558 1306 501 1247 z m 507 963 l 664 1060 l 788 963 l 856 963 l 742 1143 l 622 1143 l 432 963 z "},"Ổ":{"ha":1019,"x_min":0,"x_max":0,"o":"m 443 -18 b 990 574 772 -18 990 228 b 628 929 990 782 871 929 b 85 342 304 929 85 682 b 443 -18 85 124 199 -18 z m 460 49 b 268 322 322 49 268 160 b 611 864 268 629 406 864 b 806 589 735 864 806 767 b 460 49 806 340 718 49 z m 507 963 l 665 1064 l 788 963 l 856 963 l 742 1149 l 624 1149 l 432 963 z m 885 1060 l 894 1103 b 1039 1232 949 1111 1039 1146 b 915 1331 1039 1292 997 1331 b 775 1254 849 1331 775 1304 b 810 1219 775 1235 786 1219 b 907 1283 858 1219 851 1283 b 939 1238 925 1283 939 1276 b 829 1131 939 1164 892 1131 l 814 1060 z "},"Ộ":{"ha":1019,"x_min":0,"x_max":0,"o":"m 443 -18 b 990 574 772 -18 990 228 b 628 929 990 782 871 929 b 85 342 304 929 85 682 b 443 -18 85 124 199 -18 z m 460 49 b 268 322 322 49 268 160 b 611 864 268 629 406 864 b 806 589 735 864 806 767 b 460 49 806 340 718 49 z m 510 969 l 667 1071 l 789 969 l 858 969 l 744 1163 l 626 1163 l 433 969 z m 397 -285 b 496 -187 460 -285 496 -247 b 399 -92 496 -131 463 -92 b 300 -189 338 -92 300 -131 b 397 -285 300 -247 338 -285 z "},"Õ":{"ha":1019,"x_min":0,"x_max":0,"o":"m 443 -18 b 990 574 772 -18 990 228 b 628 929 990 782 871 929 b 85 342 304 929 85 682 b 443 -18 85 124 199 -18 z m 460 49 b 268 322 322 49 268 160 b 611 864 268 629 406 864 b 806 589 735 864 806 767 b 460 49 806 340 718 49 z m 475 979 b 561 1029 494 1019 525 1029 b 735 985 636 1029 661 985 b 915 1136 818 985 881 1039 l 865 1136 b 776 1085 842 1092 810 1085 b 603 1128 704 1085 675 1128 b 425 979 522 1128 457 1069 z "},"Ṍ":{"ha":1019,"x_min":0,"x_max":0,"o":"m 443 -18 b 990 574 772 -18 990 228 b 628 929 990 782 871 929 b 85 342 304 929 85 682 b 443 -18 85 124 199 -18 z m 460 49 b 268 322 322 49 268 160 b 611 864 268 629 406 864 b 806 589 735 864 806 767 b 460 49 806 340 718 49 z m 472 965 b 558 1015 492 1006 522 1015 b 732 971 633 1015 658 971 b 913 1122 815 971 878 1025 l 863 1122 b 774 1071 839 1078 807 1071 b 600 1114 701 1071 672 1114 b 422 965 519 1114 454 1056 z m 628 1158 l 846 1303 l 853 1340 l 697 1340 l 547 1158 z "},"Ṏ":{"ha":1019,"x_min":0,"x_max":0,"o":"m 443 -18 b 990 574 772 -18 990 228 b 628 929 990 782 871 929 b 85 342 304 929 85 682 b 443 -18 85 124 199 -18 z m 460 49 b 268 322 322 49 268 160 b 611 864 268 629 406 864 b 806 589 735 864 806 767 b 460 49 806 340 718 49 z m 472 965 b 558 1015 492 1006 522 1015 b 732 971 633 1015 658 971 b 913 1122 815 971 878 1025 l 863 1122 b 774 1071 839 1078 807 1071 b 600 1114 701 1071 672 1114 b 422 965 519 1114 454 1056 z m 850 1151 b 944 1243 908 1151 944 1186 b 851 1333 944 1297 911 1333 b 758 1242 793 1333 758 1297 b 850 1151 758 1186 794 1151 z m 546 1151 b 640 1243 604 1151 640 1186 b 547 1333 640 1297 608 1333 b 454 1242 489 1333 454 1297 b 546 1151 454 1186 490 1151 z "},"Ö":{"ha":1019,"x_min":0,"x_max":0,"o":"m 443 -18 b 990 574 772 -18 990 228 b 628 929 990 782 871 929 b 85 342 304 929 85 682 b 443 -18 85 124 199 -18 z m 460 49 b 268 322 322 49 268 160 b 611 864 268 629 406 864 b 806 589 735 864 806 767 b 460 49 806 340 718 49 z m 815 975 b 910 1068 874 975 910 1011 b 817 1158 910 1121 878 1158 b 724 1067 758 1158 724 1122 b 815 975 724 1011 760 975 z m 513 975 b 607 1068 571 975 607 1011 b 514 1158 607 1121 574 1158 b 421 1067 456 1158 421 1122 b 513 975 421 1011 456 975 z "},"Ō":{"ha":1019,"x_min":0,"x_max":0,"o":"m 443 -18 b 990 574 772 -18 990 228 b 628 929 990 782 871 929 b 85 342 304 929 85 682 b 443 -18 85 124 199 -18 z m 460 49 b 268 322 322 49 268 160 b 611 864 268 629 406 864 b 806 589 735 864 806 767 b 460 49 806 340 718 49 z m 858 1008 l 876 1097 l 467 1097 l 449 1008 z "},"Ṑ":{"ha":1019,"x_min":0,"x_max":0,"o":"m 443 -18 b 990 574 772 -18 990 228 b 628 929 990 782 871 929 b 85 342 304 929 85 682 b 443 -18 85 124 199 -18 z m 460 49 b 268 322 322 49 268 160 b 611 864 268 629 406 864 b 806 589 735 864 806 767 b 460 49 806 340 718 49 z m 856 994 l 874 1083 l 464 1083 l 446 994 z m 814 1140 l 693 1322 l 553 1322 l 546 1283 l 735 1140 z "},"Ṓ":{"ha":1019,"x_min":0,"x_max":0,"o":"m 443 -18 b 990 574 772 -18 990 228 b 628 929 990 782 871 929 b 85 342 304 929 85 682 b 443 -18 85 124 199 -18 z m 460 49 b 268 322 322 49 268 160 b 611 864 268 629 406 864 b 806 589 735 864 806 767 b 460 49 806 340 718 49 z m 856 994 l 874 1083 l 464 1083 l 446 994 z m 624 1140 l 842 1283 l 849 1322 l 693 1322 l 543 1140 z "},"Ŏ":{"ha":1019,"x_min":0,"x_max":0,"o":"m 443 -18 b 990 574 772 -18 990 228 b 628 929 990 782 871 929 b 85 342 304 929 85 682 b 443 -18 85 124 199 -18 z m 460 49 b 268 322 322 49 268 160 b 611 864 268 629 406 864 b 806 589 735 864 806 767 b 460 49 806 340 718 49 z m 650 978 b 906 1189 781 978 863 1044 l 853 1189 b 669 1082 804 1097 757 1082 b 528 1189 582 1082 531 1097 l 479 1189 b 475 1132 475 1168 475 1150 b 650 978 475 1024 542 978 z "},"Ỏ":{"ha":1019,"x_min":0,"x_max":0,"o":"m 443 -18 b 990 574 772 -18 990 228 b 628 929 990 782 871 929 b 85 342 304 929 85 682 b 443 -18 85 124 199 -18 z m 460 49 b 268 322 322 49 268 160 b 611 864 268 629 406 864 b 806 589 735 864 806 767 b 460 49 806 340 718 49 z m 679 969 l 689 1015 b 840 1151 742 1024 840 1058 b 710 1254 840 1213 794 1254 b 565 1174 640 1254 565 1226 b 601 1139 565 1154 578 1139 b 703 1204 651 1139 644 1204 b 733 1161 726 1204 733 1192 b 622 1044 733 1074 681 1044 l 606 969 z "},"Ő":{"ha":1019,"x_min":0,"x_max":0,"o":"m 443 -18 b 990 574 772 -18 990 228 b 628 929 990 782 871 929 b 85 342 304 929 85 682 b 443 -18 85 124 199 -18 z m 460 49 b 268 322 322 49 268 160 b 611 864 268 629 406 864 b 806 589 735 864 806 767 b 460 49 806 340 718 49 z m 557 969 l 761 1113 l 768 1151 l 624 1151 l 483 969 z m 788 969 l 992 1113 l 999 1151 l 854 1151 l 714 969 z "},"Ọ":{"ha":1019,"x_min":0,"x_max":0,"o":"m 443 -18 b 990 574 772 -18 990 228 b 628 929 990 782 871 929 b 85 342 304 929 85 682 b 443 -18 85 124 199 -18 z m 460 49 b 268 322 322 49 268 160 b 611 864 268 629 406 864 b 806 589 735 864 806 767 b 460 49 806 340 718 49 z m 397 -285 b 496 -187 460 -285 496 -247 b 399 -92 496 -131 463 -92 b 300 -189 338 -92 300 -131 b 397 -285 300 -247 338 -285 z "},"Ơ":{"ha":1026,"x_min":0,"x_max":0,"o":"m 443 -18 b 990 574 772 -18 990 228 b 875 849 990 689 950 785 l 876 853 b 904 853 885 853 896 853 b 1117 1032 1063 853 1117 969 b 1044 1114 1117 1090 1082 1114 b 964 1044 1004 1114 964 1092 b 989 956 964 1014 989 983 b 879 896 989 914 939 896 b 628 929 789 896 738 929 b 85 342 304 929 85 682 b 443 -18 85 124 199 -18 z m 460 49 b 268 322 322 49 268 160 b 611 864 268 629 406 864 b 806 589 735 864 806 767 b 460 49 806 340 718 49 z "},"Ờ":{"ha":1026,"x_min":0,"x_max":0,"o":"m 443 -18 b 990 574 772 -18 990 228 b 875 849 990 689 950 785 l 876 853 b 904 853 885 853 896 853 b 1117 1032 1063 853 1117 969 b 1044 1114 1117 1090 1082 1114 b 964 1044 1004 1114 964 1092 b 989 956 964 1014 989 983 b 879 896 989 914 939 896 b 628 929 789 896 738 929 b 85 342 304 929 85 682 b 443 -18 85 124 199 -18 z m 460 49 b 268 322 322 49 268 160 b 611 864 268 629 406 864 b 806 589 735 864 806 767 b 460 49 806 340 718 49 z m 781 969 l 658 1151 l 519 1151 l 513 1113 l 700 969 z "},"Ớ":{"ha":1026,"x_min":0,"x_max":0,"o":"m 443 -18 b 990 574 772 -18 990 228 b 875 849 990 689 950 785 l 876 853 b 904 853 885 853 896 853 b 1117 1032 1063 853 1117 969 b 1044 1114 1117 1090 1082 1114 b 964 1044 1004 1114 964 1092 b 989 956 964 1014 989 983 b 879 896 989 914 939 896 b 628 929 789 896 738 929 b 85 342 304 929 85 682 b 443 -18 85 124 199 -18 z m 460 49 b 268 322 322 49 268 160 b 611 864 268 629 406 864 b 806 589 735 864 806 767 b 460 49 806 340 718 49 z m 590 969 l 807 1113 l 815 1151 l 658 1151 l 510 969 z "},"Ỡ":{"ha":1026,"x_min":0,"x_max":0,"o":"m 443 -18 b 990 574 772 -18 990 228 b 875 849 990 689 950 785 l 876 853 b 904 853 885 853 896 853 b 1117 1032 1063 853 1117 969 b 1044 1114 1117 1090 1082 1114 b 964 1044 1004 1114 964 1092 b 989 956 964 1014 989 983 b 879 896 989 914 939 896 b 628 929 789 896 738 929 b 85 342 304 929 85 682 b 443 -18 85 124 199 -18 z m 460 49 b 268 322 322 49 268 160 b 611 864 268 629 406 864 b 806 589 735 864 806 767 b 460 49 806 340 718 49 z m 475 979 b 561 1029 494 1019 525 1029 b 735 985 636 1029 661 985 b 915 1136 818 985 881 1039 l 865 1136 b 776 1085 842 1092 810 1085 b 603 1128 704 1085 675 1128 b 425 979 522 1128 457 1069 z "},"Ở":{"ha":1026,"x_min":0,"x_max":0,"o":"m 443 -18 b 990 574 772 -18 990 228 b 875 849 990 689 950 785 l 876 853 b 904 853 885 853 896 853 b 1117 1032 1063 853 1117 969 b 1044 1114 1117 1090 1082 1114 b 964 1044 1004 1114 964 1092 b 989 956 964 1014 989 983 b 879 896 989 914 939 896 b 628 929 789 896 738 929 b 85 342 304 929 85 682 b 443 -18 85 124 199 -18 z m 460 49 b 268 322 322 49 268 160 b 611 864 268 629 406 864 b 806 589 735 864 806 767 b 460 49 806 340 718 49 z m 679 969 l 689 1015 b 840 1151 742 1024 840 1058 b 710 1254 840 1213 794 1254 b 565 1174 640 1254 565 1226 b 601 1139 565 1154 578 1139 b 703 1204 651 1139 644 1204 b 733 1161 726 1204 733 1192 b 622 1044 733 1074 681 1044 l 606 969 z "},"Ợ":{"ha":1026,"x_min":0,"x_max":0,"o":"m 443 -18 b 990 574 772 -18 990 228 b 875 849 990 689 950 785 l 876 853 b 904 853 885 853 896 853 b 1117 1032 1063 853 1117 969 b 1044 1114 1117 1090 1082 1114 b 964 1044 1004 1114 964 1092 b 989 956 964 1014 989 983 b 879 896 989 914 939 896 b 628 929 789 896 738 929 b 85 342 304 929 85 682 b 443 -18 85 124 199 -18 z m 460 49 b 268 322 322 49 268 160 b 611 864 268 629 406 864 b 806 589 735 864 806 767 b 460 49 806 340 718 49 z m 397 -285 b 496 -187 460 -285 496 -247 b 399 -92 496 -131 463 -92 b 300 -189 338 -92 300 -131 b 397 -285 300 -247 338 -285 z "},"Ø":{"ha":1019,"x_min":0,"x_max":0,"o":"m 444 -18 b 990 574 774 -18 990 228 b 893 835 990 685 956 774 l 953 901 l 900 944 l 839 876 b 626 929 782 911 711 929 b 85 342 301 929 85 678 b 161 92 85 236 110 151 l 83 4 l 136 -39 l 211 46 b 444 -18 269 4 347 -18 z m 463 49 b 300 146 381 49 329 85 l 789 717 b 806 589 800 678 806 635 b 463 49 806 340 719 49 z m 276 222 b 268 322 271 253 268 286 b 610 864 268 622 401 864 b 758 785 678 864 726 833 z "},"Ǿ":{"ha":1019,"x_min":0,"x_max":0,"o":"m 444 -18 b 990 574 774 -18 990 228 b 893 835 990 685 956 774 l 953 901 l 900 944 l 839 876 b 626 929 782 911 711 929 b 85 342 301 929 85 678 b 161 92 85 236 110 151 l 83 4 l 136 -39 l 211 46 b 444 -18 269 4 347 -18 z m 463 49 b 300 146 381 49 329 85 l 789 717 b 806 589 800 678 806 635 b 463 49 806 340 719 49 z m 276 222 b 268 322 271 253 268 286 b 610 864 268 622 401 864 b 758 785 678 864 726 833 z m 590 969 l 807 1113 l 814 1151 l 658 1151 l 510 969 z "},"Œ":{"ha":1383,"x_min":0,"x_max":0,"o":"m 451 -18 b 621 0 500 -18 578 -8 l 1226 0 l 1321 268 l 1265 268 b 943 74 1183 110 1142 74 l 788 74 l 865 438 l 988 438 b 1115 308 1126 438 1142 424 l 1172 308 l 1242 628 l 1185 628 b 1003 501 1163 518 1140 501 l 879 501 l 951 838 l 1117 838 b 1307 669 1290 838 1314 803 l 1365 669 l 1410 913 l 813 913 b 658 929 772 922 713 929 b 85 340 317 929 85 683 b 451 -18 85 114 213 -18 z m 469 47 b 271 318 329 47 271 163 b 642 865 271 624 424 865 b 758 746 738 865 776 824 l 633 164 b 469 47 614 72 558 47 z "},"Ṕ":{"ha":854,"x_min":0,"x_max":0,"o":"m 425 0 l 436 53 b 314 182 307 53 292 69 l 360 399 b 456 385 383 392 418 385 b 875 719 663 385 875 468 b 568 913 875 875 735 913 l 165 913 l 156 860 b 260 754 249 860 278 842 l 142 188 b -10 53 118 71 101 53 l -21 0 z m 372 463 l 451 844 b 521 850 481 847 494 850 b 693 700 644 850 693 800 b 443 457 693 544 608 457 b 372 463 414 457 390 461 z m 496 969 l 713 1113 l 721 1151 l 565 1151 l 415 969 z "},"Ṗ":{"ha":854,"x_min":0,"x_max":0,"o":"m 425 0 l 436 53 b 314 182 307 53 292 69 l 360 399 b 456 385 383 392 418 385 b 875 719 663 385 875 468 b 568 913 875 875 735 913 l 165 913 l 156 860 b 260 754 249 860 278 842 l 142 188 b -10 53 118 71 101 53 l -21 0 z m 372 463 l 451 844 b 521 850 481 847 494 850 b 693 700 644 850 693 800 b 443 457 693 544 608 457 b 372 463 414 457 390 461 z m 564 971 b 663 1067 626 971 663 1007 b 565 1163 663 1125 629 1163 b 468 1065 504 1163 468 1125 b 564 971 468 1007 506 971 z "},"Ŕ":{"ha":926,"x_min":0,"x_max":0,"o":"m 413 0 l 422 53 b 313 182 304 53 289 68 l 360 408 l 393 408 b 475 361 440 408 457 403 b 621 0 514 272 535 225 l 890 0 l 901 53 b 772 124 839 53 803 65 b 599 435 665 336 640 403 l 600 442 b 876 719 732 468 876 536 b 567 913 876 861 744 913 l 165 913 l 154 860 b 258 753 264 860 275 833 l 140 183 b -10 53 115 68 93 53 l -22 0 z m 372 471 l 450 846 b 532 850 479 849 501 850 b 692 707 650 850 692 792 b 421 469 692 540 599 478 z m 499 969 l 715 1113 l 722 1151 l 567 1151 l 418 969 z "},"Ř":{"ha":926,"x_min":0,"x_max":0,"o":"m 413 0 l 422 53 b 313 182 304 53 289 68 l 360 408 l 393 408 b 475 361 440 408 457 403 b 621 0 514 272 535 225 l 890 0 l 901 53 b 772 124 839 53 803 65 b 599 435 665 336 640 403 l 600 442 b 876 719 732 468 876 536 b 567 913 876 861 744 913 l 165 913 l 154 860 b 258 753 264 860 275 833 l 140 183 b -10 53 115 68 93 53 l -22 0 z m 372 471 l 450 846 b 532 850 479 849 501 850 b 692 707 650 850 692 792 b 421 469 692 540 599 478 z m 613 969 l 804 1163 l 729 1163 l 571 1060 l 450 1163 l 381 1163 l 494 969 z "},"Ṝ":{"ha":926,"x_min":0,"x_max":0,"o":"m 413 0 l 422 53 b 313 182 304 53 289 68 l 360 408 l 393 408 b 475 361 440 408 457 403 b 621 0 514 272 535 225 l 890 0 l 901 53 b 772 124 839 53 803 65 b 599 435 665 336 640 403 l 600 442 b 876 719 732 468 876 536 b 567 913 876 861 744 913 l 165 913 l 154 860 b 258 753 264 860 275 833 l 140 183 b -10 53 115 68 93 53 l -22 0 z m 372 471 l 450 846 b 532 850 479 849 501 850 b 692 707 650 850 692 792 b 421 469 692 540 599 478 z m 767 1008 l 785 1097 l 374 1097 l 356 1008 z m 369 -285 b 468 -187 431 -285 468 -247 b 371 -92 468 -131 433 -92 b 272 -189 308 -92 272 -131 b 369 -285 272 -247 310 -285 z "},"Ṙ":{"ha":926,"x_min":0,"x_max":0,"o":"m 413 0 l 422 53 b 313 182 304 53 289 68 l 360 408 l 393 408 b 475 361 440 408 457 403 b 621 0 514 272 535 225 l 890 0 l 901 53 b 772 124 839 53 803 65 b 599 435 665 336 640 403 l 600 442 b 876 719 732 468 876 536 b 567 913 876 861 744 913 l 165 913 l 154 860 b 258 753 264 860 275 833 l 140 183 b -10 53 115 68 93 53 l -22 0 z m 372 471 l 450 846 b 532 850 479 849 501 850 b 692 707 650 850 692 792 b 421 469 692 540 599 478 z m 571 971 b 671 1067 633 971 671 1007 b 574 1163 671 1125 636 1163 b 476 1065 511 1163 476 1125 b 571 971 476 1007 513 971 z "},"Ṟ":{"ha":926,"x_min":0,"x_max":0,"o":"m 413 0 l 422 53 b 313 182 304 53 289 68 l 360 408 l 393 408 b 475 361 440 408 457 403 b 621 0 514 272 535 225 l 890 0 l 901 53 b 772 124 839 53 803 65 b 599 435 665 336 640 403 l 600 442 b 876 719 732 468 876 536 b 567 913 876 861 744 913 l 165 913 l 154 860 b 258 753 264 860 275 833 l 140 183 b -10 53 115 68 93 53 l -22 0 z m 372 471 l 450 846 b 532 850 479 849 501 850 b 692 707 650 850 692 792 b 421 469 692 540 599 478 z m 569 -204 l 589 -111 l 186 -111 l 167 -204 z "},"Ṛ":{"ha":926,"x_min":0,"x_max":0,"o":"m 413 0 l 422 53 b 313 182 304 53 289 68 l 360 408 l 393 408 b 475 361 440 408 457 403 b 621 0 514 272 535 225 l 890 0 l 901 53 b 772 124 839 53 803 65 b 599 435 665 336 640 403 l 600 442 b 876 719 732 468 876 536 b 567 913 876 861 744 913 l 165 913 l 154 860 b 258 753 264 860 275 833 l 140 183 b -10 53 115 68 93 53 l -22 0 z m 372 471 l 450 846 b 532 850 479 849 501 850 b 692 707 650 850 692 792 b 421 469 692 540 599 478 z m 369 -285 b 468 -187 431 -285 468 -247 b 371 -92 468 -131 433 -92 b 272 -189 308 -92 272 -131 b 369 -285 272 -247 310 -285 z "},"Ŗ":{"ha":926,"x_min":0,"x_max":0,"o":"m 413 0 l 422 53 b 313 182 304 53 289 68 l 360 408 l 393 408 b 475 361 440 408 457 403 b 621 0 514 272 535 225 l 890 0 l 901 53 b 772 124 839 53 803 65 b 599 435 665 336 640 403 l 600 442 b 876 719 732 468 876 536 b 567 913 876 861 744 913 l 165 913 l 154 860 b 258 753 264 860 275 833 l 140 183 b -10 53 115 68 93 53 l -22 0 z m 372 471 l 450 846 b 532 850 479 849 501 850 b 692 707 650 850 692 792 b 421 469 692 540 599 478 z m 254 -407 b 488 -179 354 -383 488 -312 b 385 -61 488 -108 451 -61 b 288 -154 318 -61 288 -108 b 365 -231 288 -201 322 -231 b 393 -225 375 -231 383 -228 b 242 -365 378 -311 300 -346 z "},"Ś":{"ha":767,"x_min":0,"x_max":0,"o":"m 83 -19 b 129 25 89 8 107 25 b 321 -17 158 25 185 -17 b 694 288 532 -17 694 94 b 496 544 694 424 597 486 b 325 726 406 594 325 642 b 501 868 325 817 388 868 b 669 644 618 868 664 806 l 724 644 l 776 928 l 731 928 b 682 892 719 899 700 892 b 503 928 649 892 610 928 b 167 654 313 928 167 833 b 344 417 167 525 250 472 b 517 211 433 364 518 315 b 315 54 517 97 421 54 b 142 281 194 53 149 99 l 85 281 l 31 -19 z m 463 969 l 679 1113 l 688 1151 l 531 1151 l 382 969 z "},"Ṥ":{"ha":767,"x_min":0,"x_max":0,"o":"m 83 -19 b 129 25 89 8 107 25 b 321 -17 158 25 185 -17 b 694 288 532 -17 694 94 b 496 544 694 424 597 486 b 325 726 406 594 325 642 b 501 868 325 817 388 868 b 669 644 618 868 664 806 l 724 644 l 776 928 l 731 928 b 682 892 719 899 700 892 b 503 928 649 892 610 928 b 167 654 313 928 167 833 b 344 417 167 525 250 472 b 517 211 433 364 518 315 b 315 54 517 97 421 54 b 142 281 194 53 149 99 l 85 281 l 31 -19 z m 564 969 l 781 1113 l 788 1151 l 632 1151 l 483 969 z m 449 1058 b 535 1144 501 1058 535 1092 b 450 1231 535 1196 504 1231 b 365 1144 396 1231 365 1197 b 449 1058 365 1092 397 1058 z "},"Ŝ":{"ha":767,"x_min":0,"x_max":0,"o":"m 83 -19 b 129 25 89 8 107 25 b 321 -17 158 25 185 -17 b 694 288 532 -17 694 94 b 496 544 694 424 597 486 b 325 726 406 594 325 642 b 501 868 325 817 388 868 b 669 644 618 868 664 806 l 724 644 l 776 928 l 731 928 b 682 892 719 899 700 892 b 503 928 649 892 610 928 b 167 654 313 928 167 833 b 344 417 167 525 250 472 b 517 211 433 364 518 315 b 315 54 517 97 421 54 b 142 281 194 53 149 99 l 85 281 l 31 -19 z m 382 969 l 539 1071 l 661 969 l 731 969 l 617 1163 l 499 1163 l 306 969 z "},"Š":{"ha":767,"x_min":0,"x_max":0,"o":"m 83 -19 b 129 25 89 8 107 25 b 321 -17 158 25 185 -17 b 694 288 532 -17 694 94 b 496 544 694 424 597 486 b 325 726 406 594 325 642 b 501 868 325 817 388 868 b 669 644 618 868 664 806 l 724 644 l 776 928 l 731 928 b 682 892 719 899 700 892 b 503 928 649 892 610 928 b 167 654 313 928 167 833 b 344 417 167 525 250 472 b 517 211 433 364 518 315 b 315 54 517 97 421 54 b 142 281 194 53 149 99 l 85 281 l 31 -19 z m 576 969 l 769 1163 l 693 1163 l 536 1060 l 414 1163 l 344 1163 l 458 969 z "},"Ṧ":{"ha":767,"x_min":0,"x_max":0,"o":"m 83 -19 b 129 25 89 8 107 25 b 321 -17 158 25 185 -17 b 694 288 532 -17 694 94 b 496 544 694 424 597 486 b 325 726 406 594 325 642 b 501 868 325 817 388 868 b 669 644 618 868 664 806 l 724 644 l 776 928 l 731 928 b 682 892 719 899 700 892 b 503 928 649 892 610 928 b 167 654 313 928 167 833 b 344 417 167 525 250 472 b 517 211 433 364 518 315 b 315 54 517 97 421 54 b 142 281 194 53 149 99 l 85 281 l 31 -19 z m 576 969 l 769 1163 l 693 1163 l 536 1060 l 414 1163 l 344 1163 l 458 969 z m 563 1140 b 647 1228 615 1140 647 1174 b 564 1315 647 1281 618 1315 b 479 1226 511 1315 479 1281 b 563 1140 479 1172 511 1140 z "},"Ṡ":{"ha":767,"x_min":0,"x_max":0,"o":"m 83 -19 b 129 25 89 8 107 25 b 321 -17 158 25 185 -17 b 694 288 532 -17 694 94 b 496 544 694 424 597 486 b 325 726 406 594 325 642 b 501 868 325 817 388 868 b 669 644 618 868 664 806 l 724 644 l 776 928 l 731 928 b 682 892 719 899 700 892 b 503 928 649 892 610 928 b 167 654 313 928 167 833 b 344 417 167 525 250 472 b 517 211 433 364 518 315 b 315 54 517 97 421 54 b 142 281 194 53 149 99 l 85 281 l 31 -19 z m 536 971 b 635 1067 597 971 635 1007 b 538 1163 635 1125 600 1163 b 440 1065 476 1163 440 1125 b 536 971 440 1007 476 971 z "},"Ṩ":{"ha":767,"x_min":0,"x_max":0,"o":"m 83 -19 b 129 25 89 8 107 25 b 321 -17 158 25 185 -17 b 694 288 532 -17 694 94 b 496 544 694 424 597 486 b 325 726 406 594 325 642 b 501 868 325 817 388 868 b 669 644 618 868 664 806 l 724 644 l 776 928 l 731 928 b 682 892 719 899 700 892 b 503 928 649 892 610 928 b 167 654 313 928 167 833 b 344 417 167 525 250 472 b 517 211 433 364 518 315 b 315 54 517 97 421 54 b 142 281 194 53 149 99 l 85 281 l 31 -19 z m 264 -285 b 363 -187 325 -285 363 -247 b 265 -92 363 -131 328 -92 b 167 -189 203 -92 167 -131 b 264 -285 167 -247 204 -285 z m 536 971 b 635 1067 597 971 635 1007 b 538 1163 635 1125 600 1163 b 440 1065 476 1163 440 1125 b 536 971 440 1007 476 971 z "},"Ṣ":{"ha":767,"x_min":0,"x_max":0,"o":"m 83 -19 b 129 25 89 8 107 25 b 321 -17 158 25 185 -17 b 694 288 532 -17 694 94 b 496 544 694 424 597 486 b 325 726 406 594 325 642 b 501 868 325 817 388 868 b 669 644 618 868 664 806 l 724 644 l 776 928 l 731 928 b 682 892 719 899 700 892 b 503 928 649 892 610 928 b 167 654 313 928 167 833 b 344 417 167 525 250 472 b 517 211 433 364 518 315 b 315 54 517 97 421 54 b 142 281 194 53 149 99 l 85 281 l 31 -19 z m 264 -285 b 363 -187 325 -285 363 -247 b 265 -92 363 -131 328 -92 b 167 -189 203 -92 167 -131 b 264 -285 167 -247 204 -285 z "},"Ș":{"ha":767,"x_min":0,"x_max":0,"o":"m 83 -19 b 129 25 89 8 107 25 b 321 -17 158 25 185 -17 b 694 288 532 -17 694 94 b 496 544 694 424 597 486 b 325 726 406 594 325 642 b 501 868 325 817 388 868 b 669 644 618 868 664 806 l 724 644 l 776 928 l 731 928 b 682 892 719 899 700 892 b 503 928 649 892 610 928 b 167 654 313 928 167 833 b 344 417 167 525 250 472 b 517 211 433 364 518 315 b 315 54 517 97 421 54 b 142 281 194 53 149 99 l 85 281 l 31 -19 z m 149 -407 b 382 -179 249 -383 382 -312 b 279 -61 382 -108 346 -61 b 182 -154 213 -61 182 -108 b 260 -231 182 -201 217 -231 b 288 -225 269 -231 278 -228 b 136 -365 272 -311 193 -346 z "},"Ş":{"ha":767,"x_min":0,"x_max":0,"o":"m 83 -19 b 129 25 89 8 107 25 b 253 -12 153 25 174 -1 l 206 -115 l 222 -135 b 264 -131 222 -135 246 -131 b 318 -179 299 -131 318 -146 b 239 -243 318 -222 283 -243 b 149 -215 206 -243 171 -231 l 121 -253 b 251 -304 156 -286 201 -304 b 418 -171 335 -304 418 -257 b 308 -72 418 -107 371 -72 b 275 -75 293 -72 279 -75 l 301 -17 b 321 -17 308 -17 314 -17 b 694 288 532 -17 694 94 b 496 544 694 424 597 486 b 325 726 406 594 325 642 b 501 868 325 817 388 868 b 669 644 618 868 664 806 l 724 644 l 776 928 l 731 928 b 682 892 719 899 700 892 b 503 928 649 892 610 928 b 167 654 313 928 167 833 b 344 417 167 525 250 472 b 517 211 433 364 518 315 b 315 54 517 97 421 54 b 142 281 194 53 149 99 l 85 281 l 31 -19 z "},"ẞ":{"ha":1000,"x_min":0,"x_max":0,"o":"m 553 -17 b 942 285 772 -17 942 86 b 735 513 942 413 872 489 l 1003 831 l 1015 886 b 699 931 921 913 818 931 b 206 581 432 931 261 843 l 118 165 b -39 53 99 71 68 53 l -50 0 l 257 0 l 376 567 b 699 861 413 738 490 861 b 819 847 742 861 782 857 l 547 526 l 535 471 b 761 274 718 457 761 364 b 579 42 761 158 693 42 b 419 185 456 42 526 185 b 340 101 360 185 340 140 b 553 -17 340 29 407 -17 z "},"Ť":{"ha":896,"x_min":0,"x_max":0,"o":"m 596 0 l 607 53 b 503 194 490 53 476 68 l 636 843 l 704 843 b 861 650 856 843 861 801 l 921 650 l 965 913 l 167 913 l 100 650 l 160 650 b 394 843 221 801 243 843 l 463 843 l 329 194 b 167 53 303 68 283 53 l 156 0 z m 638 969 l 829 1163 l 754 1163 l 596 1060 l 474 1163 l 406 1163 l 518 969 z "},"Ṫ":{"ha":896,"x_min":0,"x_max":0,"o":"m 596 0 l 607 53 b 503 194 490 53 476 68 l 636 843 l 704 843 b 861 650 856 843 861 801 l 921 650 l 965 913 l 167 913 l 100 650 l 160 650 b 394 843 221 801 243 843 l 463 843 l 329 194 b 167 53 303 68 283 53 l 156 0 z m 596 971 b 694 1067 657 971 694 1007 b 597 1163 694 1125 661 1163 b 500 1065 536 1163 500 1125 b 596 971 500 1007 538 971 z "},"Ṱ":{"ha":896,"x_min":0,"x_max":0,"o":"m 596 0 l 607 53 b 503 194 490 53 476 68 l 636 843 l 704 843 b 861 650 856 843 861 801 l 921 650 l 965 913 l 167 913 l 100 650 l 160 650 b 394 843 221 801 243 843 l 463 843 l 329 194 b 167 53 303 68 283 53 l 156 0 z m 188 -282 l 347 -157 l 460 -282 l 528 -282 l 422 -69 l 307 -69 l 114 -282 z "},"Ṯ":{"ha":896,"x_min":0,"x_max":0,"o":"m 596 0 l 607 53 b 503 194 490 53 476 68 l 636 843 l 704 843 b 861 650 856 843 861 801 l 921 650 l 965 913 l 167 913 l 100 650 l 160 650 b 394 843 221 801 243 843 l 463 843 l 329 194 b 167 53 303 68 283 53 l 156 0 z m 539 -204 l 558 -111 l 156 -111 l 136 -204 z "},"Ṭ":{"ha":896,"x_min":0,"x_max":0,"o":"m 596 0 l 607 53 b 503 194 490 53 476 68 l 636 843 l 704 843 b 861 650 856 843 861 801 l 921 650 l 965 913 l 167 913 l 100 650 l 160 650 b 394 843 221 801 243 843 l 463 843 l 329 194 b 167 53 303 68 283 53 l 156 0 z m 339 -285 b 439 -187 401 -285 439 -247 b 340 -92 439 -131 404 -92 b 242 -189 279 -92 242 -131 b 339 -285 242 -247 281 -285 z "},"Ț":{"ha":896,"x_min":0,"x_max":0,"o":"m 596 0 l 607 53 b 503 194 490 53 476 68 l 636 843 l 704 843 b 861 650 856 843 861 801 l 921 650 l 965 913 l 167 913 l 100 650 l 160 650 b 394 843 221 801 243 843 l 463 843 l 329 194 b 167 53 303 68 283 53 l 156 0 z m 225 -407 b 458 -179 324 -383 458 -312 b 356 -61 458 -108 421 -61 b 257 -154 289 -61 257 -108 b 335 -231 257 -201 292 -231 b 363 -225 346 -231 353 -228 b 213 -365 349 -311 269 -346 z "},"Ţ":{"ha":896,"x_min":0,"x_max":0,"o":"m 596 0 l 607 53 b 503 194 490 53 476 68 l 636 843 l 704 843 b 861 650 856 843 861 801 l 921 650 l 965 913 l 167 913 l 100 650 l 160 650 b 394 843 221 801 243 843 l 463 843 l 329 194 b 167 53 303 68 283 53 l 156 0 l 335 0 l 281 -115 l 297 -135 b 340 -131 297 -135 322 -131 b 393 -179 375 -131 393 -146 b 315 -243 393 -222 360 -243 b 225 -215 281 -243 247 -231 l 196 -253 b 326 -304 232 -286 278 -304 b 493 -171 410 -304 493 -257 b 385 -72 493 -107 447 -72 b 351 -75 369 -72 354 -75 l 385 0 z "},"Ŧ":{"ha":896,"x_min":0,"x_max":0,"o":"m 596 0 l 607 53 b 492 114 522 53 492 61 b 503 194 492 135 496 160 l 557 457 l 742 457 l 756 524 l 571 524 l 636 843 l 704 843 b 861 650 856 843 861 801 l 921 650 l 965 913 l 167 913 l 100 650 l 160 650 b 394 843 221 801 243 843 l 463 843 l 397 524 l 218 524 l 203 457 l 383 457 l 329 194 b 167 53 303 68 283 53 l 156 0 z "},"Ù":{"ha":1050,"x_min":0,"x_max":0,"o":"m 461 -18 b 910 365 728 -18 857 110 l 976 685 b 1142 860 1006 828 1024 860 l 1153 913 l 804 913 l 794 860 b 900 788 872 860 900 844 b 885 681 900 763 894 726 l 817 353 b 517 88 779 161 692 88 b 321 250 372 88 321 140 b 333 361 321 281 325 319 l 411 731 b 568 860 433 835 456 860 l 579 913 l 143 913 l 132 860 b 246 793 215 860 246 844 b 238 738 246 779 243 760 l 156 344 b 142 221 146 299 142 258 b 461 -18 142 53 240 -18 z m 831 969 l 708 1151 l 569 1151 l 563 1113 l 751 969 z "},"Ú":{"ha":1050,"x_min":0,"x_max":0,"o":"m 461 -18 b 910 365 728 -18 857 110 l 976 685 b 1142 860 1006 828 1024 860 l 1153 913 l 804 913 l 794 860 b 900 788 872 860 900 844 b 885 681 900 763 894 726 l 817 353 b 517 88 779 161 692 88 b 321 250 372 88 321 140 b 333 361 321 281 325 319 l 411 731 b 568 860 433 835 456 860 l 579 913 l 143 913 l 132 860 b 246 793 215 860 246 844 b 238 738 246 779 243 760 l 156 344 b 142 221 146 299 142 258 b 461 -18 142 53 240 -18 z m 640 969 l 858 1113 l 865 1151 l 710 1151 l 560 969 z "},"Û":{"ha":1050,"x_min":0,"x_max":0,"o":"m 461 -18 b 910 365 728 -18 857 110 l 976 685 b 1142 860 1006 828 1024 860 l 1153 913 l 804 913 l 794 860 b 900 788 872 860 900 844 b 885 681 900 763 894 726 l 817 353 b 517 88 779 161 692 88 b 321 250 372 88 321 140 b 333 361 321 281 325 319 l 411 731 b 568 860 433 835 456 860 l 579 913 l 143 913 l 132 860 b 246 793 215 860 246 844 b 238 738 246 779 243 760 l 156 344 b 142 221 146 299 142 258 b 461 -18 142 53 240 -18 z m 560 969 l 717 1071 l 839 969 l 908 969 l 794 1163 l 676 1163 l 485 969 z "},"Ũ":{"ha":1050,"x_min":0,"x_max":0,"o":"m 461 -18 b 910 365 728 -18 857 110 l 976 685 b 1142 860 1006 828 1024 860 l 1153 913 l 804 913 l 794 860 b 900 788 872 860 900 844 b 885 681 900 763 894 726 l 817 353 b 517 88 779 161 692 88 b 321 250 372 88 321 140 b 333 361 321 281 325 319 l 411 731 b 568 860 433 835 456 860 l 579 913 l 143 913 l 132 860 b 246 793 215 860 246 844 b 238 738 246 779 243 760 l 156 344 b 142 221 146 299 142 258 b 461 -18 142 53 240 -18 z m 525 979 b 611 1029 546 1019 575 1029 b 785 985 686 1029 711 985 b 965 1136 868 985 931 1039 l 915 1136 b 826 1085 893 1092 861 1085 b 654 1128 754 1085 725 1128 b 475 979 572 1128 507 1069 z "},"Ṹ":{"ha":1050,"x_min":0,"x_max":0,"o":"m 461 -18 b 910 365 728 -18 857 110 l 976 685 b 1142 860 1006 828 1024 860 l 1153 913 l 804 913 l 794 860 b 900 788 872 860 900 844 b 885 681 900 763 894 726 l 817 353 b 517 88 779 161 692 88 b 321 250 372 88 321 140 b 333 361 321 281 325 319 l 411 731 b 568 860 433 835 456 860 l 579 913 l 143 913 l 132 860 b 246 793 215 860 246 844 b 238 738 246 779 243 760 l 156 344 b 142 221 146 299 142 258 b 461 -18 142 53 240 -18 z m 522 965 b 608 1015 543 1006 572 1015 b 782 971 683 1015 708 971 b 963 1122 865 971 928 1025 l 913 1122 b 824 1071 890 1078 858 1071 b 651 1114 751 1071 722 1114 b 472 965 569 1114 504 1056 z m 678 1154 l 894 1297 l 901 1336 l 746 1336 l 597 1154 z "},"Ü":{"ha":1050,"x_min":0,"x_max":0,"o":"m 461 -18 b 910 365 728 -18 857 110 l 976 685 b 1142 860 1006 828 1024 860 l 1153 913 l 804 913 l 794 860 b 900 788 872 860 900 844 b 885 681 900 763 894 726 l 817 353 b 517 88 779 161 692 88 b 321 250 372 88 321 140 b 333 361 321 281 325 319 l 411 731 b 568 860 433 835 456 860 l 579 913 l 143 913 l 132 860 b 246 793 215 860 246 844 b 238 738 246 779 243 760 l 156 344 b 142 221 146 299 142 258 b 461 -18 142 53 240 -18 z m 563 975 b 657 1068 621 975 657 1011 b 564 1158 657 1121 624 1158 b 471 1067 506 1158 471 1122 b 563 975 471 1011 507 975 z m 867 975 b 960 1068 925 975 960 1011 b 867 1158 960 1121 928 1158 b 774 1067 810 1158 774 1122 b 867 975 774 1011 810 975 z "},"Ū":{"ha":1050,"x_min":0,"x_max":0,"o":"m 461 -18 b 910 365 728 -18 857 110 l 976 685 b 1142 860 1006 828 1024 860 l 1153 913 l 804 913 l 794 860 b 900 788 872 860 900 844 b 885 681 900 763 894 726 l 817 353 b 517 88 779 161 692 88 b 321 250 372 88 321 140 b 333 361 321 281 325 319 l 411 731 b 568 860 433 835 456 860 l 579 913 l 143 913 l 132 860 b 246 793 215 860 246 844 b 238 738 246 779 243 760 l 156 344 b 142 221 146 299 142 258 b 461 -18 142 53 240 -18 z m 908 1008 l 926 1097 l 517 1097 l 499 1008 z "},"Ṻ":{"ha":1050,"x_min":0,"x_max":0,"o":"m 461 -18 b 910 365 728 -18 857 110 l 976 685 b 1142 860 1006 828 1024 860 l 1153 913 l 804 913 l 794 860 b 900 788 872 860 900 844 b 885 681 900 763 894 726 l 817 353 b 517 88 779 161 692 88 b 321 250 372 88 321 140 b 333 361 321 281 325 319 l 411 731 b 568 860 433 835 456 860 l 579 913 l 143 913 l 132 860 b 246 793 215 860 246 844 b 238 738 246 779 243 760 l 156 344 b 142 221 146 299 142 258 b 461 -18 142 53 240 -18 z m 906 994 l 924 1083 l 514 1083 l 496 994 z m 596 1140 b 690 1233 654 1140 690 1176 b 597 1324 690 1286 657 1324 b 504 1232 539 1324 504 1288 b 596 1140 504 1175 540 1140 z m 900 1140 b 993 1233 958 1140 993 1176 b 900 1324 993 1286 961 1324 b 807 1232 842 1324 807 1288 b 900 1140 807 1175 843 1140 z "},"Ŭ":{"ha":1050,"x_min":0,"x_max":0,"o":"m 461 -18 b 910 365 728 -18 857 110 l 976 685 b 1142 860 1006 828 1024 860 l 1153 913 l 804 913 l 794 860 b 900 788 872 860 900 844 b 885 681 900 763 894 726 l 817 353 b 517 88 779 161 692 88 b 321 250 372 88 321 140 b 333 361 321 281 325 319 l 411 731 b 568 860 433 835 456 860 l 579 913 l 143 913 l 132 860 b 246 793 215 860 246 844 b 238 738 246 779 243 760 l 156 344 b 142 221 146 299 142 258 b 461 -18 142 53 240 -18 z m 700 978 b 957 1189 832 978 913 1044 l 903 1189 b 719 1082 854 1097 807 1082 b 578 1189 632 1082 582 1097 l 529 1189 b 525 1132 526 1168 525 1150 b 700 978 525 1024 592 978 z "},"Ů":{"ha":1050,"x_min":0,"x_max":0,"o":"m 461 -18 b 910 365 728 -18 857 110 l 976 685 b 1142 860 1006 828 1024 860 l 1153 913 l 804 913 l 794 860 b 900 788 872 860 900 844 b 885 681 900 763 894 726 l 817 353 b 517 88 779 161 692 88 b 321 250 372 88 321 140 b 333 361 321 281 325 319 l 411 731 b 568 860 433 835 456 860 l 579 913 l 143 913 l 132 860 b 246 793 215 860 246 844 b 238 738 246 779 243 760 l 156 344 b 142 221 146 299 142 258 b 461 -18 142 53 240 -18 z m 700 967 b 881 1122 799 967 881 1028 b 746 1243 881 1197 828 1243 b 565 1081 646 1243 565 1175 b 700 967 565 1003 622 967 z m 708 1031 b 650 1089 667 1031 650 1054 b 739 1181 650 1138 683 1181 b 796 1122 778 1181 796 1160 b 708 1031 796 1075 768 1031 z "},"Ủ":{"ha":1050,"x_min":0,"x_max":0,"o":"m 461 -18 b 910 365 728 -18 857 110 l 976 685 b 1142 860 1006 828 1024 860 l 1153 913 l 804 913 l 794 860 b 900 788 872 860 900 844 b 885 681 900 763 894 726 l 817 353 b 517 88 779 161 692 88 b 321 250 372 88 321 140 b 333 361 321 281 325 319 l 411 731 b 568 860 433 835 456 860 l 579 913 l 143 913 l 132 860 b 246 793 215 860 246 844 b 238 738 246 779 243 760 l 156 344 b 142 221 146 299 142 258 b 461 -18 142 53 240 -18 z m 729 969 l 740 1015 b 890 1151 792 1024 890 1058 b 760 1254 890 1213 846 1254 b 615 1174 690 1254 615 1226 b 651 1139 615 1154 628 1139 b 753 1204 701 1139 694 1204 b 783 1161 778 1204 783 1192 b 672 1044 783 1074 731 1044 l 656 969 z "},"Ű":{"ha":1050,"x_min":0,"x_max":0,"o":"m 461 -18 b 910 365 728 -18 857 110 l 976 685 b 1142 860 1006 828 1024 860 l 1153 913 l 804 913 l 794 860 b 900 788 872 860 900 844 b 885 681 900 763 894 726 l 817 353 b 517 88 779 161 692 88 b 321 250 372 88 321 140 b 333 361 321 281 325 319 l 411 731 b 568 860 433 835 456 860 l 579 913 l 143 913 l 132 860 b 246 793 215 860 246 844 b 238 738 246 779 243 760 l 156 344 b 142 221 146 299 142 258 b 461 -18 142 53 240 -18 z m 607 969 l 811 1113 l 818 1151 l 674 1151 l 535 969 z m 838 969 l 1042 1113 l 1049 1151 l 904 1151 l 765 969 z "},"Ṷ":{"ha":1050,"x_min":0,"x_max":0,"o":"m 461 -18 b 910 365 728 -18 857 110 l 976 685 b 1142 860 1006 828 1024 860 l 1153 913 l 804 913 l 794 860 b 900 788 872 860 900 844 b 885 681 900 763 894 726 l 817 353 b 517 88 779 161 692 88 b 321 250 372 88 321 140 b 333 361 321 281 325 319 l 411 731 b 568 860 433 835 456 860 l 579 913 l 143 913 l 132 860 b 246 793 215 860 246 844 b 238 738 246 779 243 760 l 156 344 b 142 221 146 299 142 258 b 461 -18 142 53 240 -18 z m 256 -282 l 415 -157 l 528 -282 l 594 -282 l 490 -69 l 375 -69 l 182 -282 z "},"Ṵ":{"ha":1050,"x_min":0,"x_max":0,"o":"m 461 -18 b 910 365 728 -18 857 110 l 976 685 b 1142 860 1006 828 1024 860 l 1153 913 l 804 913 l 794 860 b 900 788 872 860 900 844 b 885 681 900 763 894 726 l 817 353 b 517 88 779 161 692 88 b 321 250 372 88 321 140 b 333 361 321 281 325 319 l 411 731 b 568 860 433 835 456 860 l 579 913 l 143 913 l 132 860 b 246 793 215 860 246 844 b 238 738 246 779 243 760 l 156 344 b 142 221 146 299 142 258 b 461 -18 142 53 240 -18 z m 217 -229 b 306 -169 239 -185 271 -169 b 474 -225 372 -169 396 -225 b 651 -65 551 -225 607 -172 l 604 -65 b 513 -126 581 -111 547 -126 b 349 -71 450 -126 421 -71 b 169 -229 269 -71 204 -139 z "},"Ṳ":{"ha":1050,"x_min":0,"x_max":0,"o":"m 461 -18 b 910 365 728 -18 857 110 l 976 685 b 1142 860 1006 828 1024 860 l 1153 913 l 804 913 l 794 860 b 900 788 872 860 900 844 b 885 681 900 763 894 726 l 817 353 b 517 88 779 161 692 88 b 321 250 372 88 321 140 b 333 361 321 281 325 319 l 411 731 b 568 860 433 835 456 860 l 579 913 l 143 913 l 132 860 b 246 793 215 860 246 844 b 238 738 246 779 243 760 l 156 344 b 142 221 146 299 142 258 b 461 -18 142 53 240 -18 z m 258 -275 b 351 -183 317 -275 351 -240 b 258 -92 351 -129 319 -92 b 165 -183 200 -92 165 -128 b 258 -275 165 -240 201 -275 z m 558 -275 b 653 -183 617 -275 653 -240 b 560 -92 653 -129 619 -92 b 465 -183 500 -92 465 -128 b 558 -275 465 -240 501 -275 z "},"Ụ":{"ha":1050,"x_min":0,"x_max":0,"o":"m 461 -18 b 910 365 728 -18 857 110 l 976 685 b 1142 860 1006 828 1024 860 l 1153 913 l 804 913 l 794 860 b 900 788 872 860 900 844 b 885 681 900 763 894 726 l 817 353 b 517 88 779 161 692 88 b 321 250 372 88 321 140 b 333 361 321 281 325 319 l 411 731 b 568 860 433 835 456 860 l 579 913 l 143 913 l 132 860 b 246 793 215 860 246 844 b 238 738 246 779 243 760 l 156 344 b 142 221 146 299 142 258 b 461 -18 142 53 240 -18 z m 407 -285 b 506 -187 468 -285 506 -247 b 408 -92 506 -131 472 -92 b 310 -189 347 -92 310 -131 b 407 -285 310 -247 347 -285 z "},"Ų":{"ha":1050,"x_min":0,"x_max":0,"o":"m 496 -304 b 689 -212 578 -304 628 -267 l 665 -179 b 551 -222 621 -210 596 -222 b 483 -154 504 -222 483 -199 b 636 6 483 -60 574 -24 b 910 365 788 56 868 164 l 976 685 b 1142 860 1006 828 1024 860 l 1153 913 l 804 913 l 794 860 b 900 788 872 860 900 844 b 885 681 900 763 894 726 l 817 353 b 517 88 779 161 692 88 b 321 250 372 88 321 140 b 333 361 321 281 325 319 l 411 731 b 568 860 433 835 456 860 l 579 913 l 143 913 l 132 860 b 246 793 215 860 246 844 b 238 738 246 779 243 760 l 156 344 b 142 221 146 299 142 258 b 460 -18 142 53 239 -18 b 494 -17 471 -18 482 -18 l 494 -22 b 367 -192 433 -61 367 -108 b 496 -304 367 -254 407 -304 z "},"Ư":{"ha":1092,"x_min":0,"x_max":0,"o":"m 461 -18 b 910 365 728 -18 857 110 l 976 685 b 1125 868 1007 832 1018 847 b 1307 1049 1257 893 1307 992 b 1235 1131 1307 1106 1272 1131 b 1154 1058 1193 1131 1154 1104 b 1178 963 1154 1025 1178 993 b 1067 913 1178 935 1167 913 l 804 913 l 793 860 b 900 786 872 860 900 843 b 885 681 900 760 894 725 l 817 353 b 517 88 779 161 692 88 b 321 250 372 88 321 140 b 333 361 321 281 325 319 l 411 731 b 568 860 433 835 456 860 l 579 913 l 143 913 l 132 860 b 246 793 215 860 246 844 b 238 738 246 779 243 760 l 156 344 b 142 221 146 299 142 258 b 461 -18 142 53 240 -18 z "},"Ừ":{"ha":1092,"x_min":0,"x_max":0,"o":"m 461 -18 b 910 365 728 -18 857 110 l 976 685 b 1125 868 1007 832 1018 847 b 1307 1049 1257 893 1307 992 b 1235 1131 1307 1106 1272 1131 b 1154 1058 1193 1131 1154 1104 b 1178 963 1154 1025 1178 993 b 1067 913 1178 935 1167 913 l 804 913 l 793 860 b 900 786 872 860 900 843 b 885 681 900 760 894 725 l 817 353 b 517 88 779 161 692 88 b 321 250 372 88 321 140 b 333 361 321 281 325 319 l 411 731 b 568 860 433 835 456 860 l 579 913 l 143 913 l 132 860 b 246 793 215 860 246 844 b 238 738 246 779 243 760 l 156 344 b 142 221 146 299 142 258 b 461 -18 142 53 240 -18 z m 831 969 l 708 1151 l 569 1151 l 563 1113 l 751 969 z "},"Ứ":{"ha":1092,"x_min":0,"x_max":0,"o":"m 461 -18 b 910 365 728 -18 857 110 l 976 685 b 1125 868 1007 832 1018 847 b 1307 1049 1257 893 1307 992 b 1235 1131 1307 1106 1272 1131 b 1154 1058 1193 1131 1154 1104 b 1178 963 1154 1025 1178 993 b 1067 913 1178 935 1167 913 l 804 913 l 793 860 b 900 786 872 860 900 843 b 885 681 900 760 894 725 l 817 353 b 517 88 779 161 692 88 b 321 250 372 88 321 140 b 333 361 321 281 325 319 l 411 731 b 568 860 433 835 456 860 l 579 913 l 143 913 l 132 860 b 246 793 215 860 246 844 b 238 738 246 779 243 760 l 156 344 b 142 221 146 299 142 258 b 461 -18 142 53 240 -18 z m 640 969 l 858 1113 l 865 1151 l 710 1151 l 560 969 z "},"Ữ":{"ha":1092,"x_min":0,"x_max":0,"o":"m 461 -18 b 910 365 728 -18 857 110 l 976 685 b 1125 868 1007 832 1018 847 b 1307 1049 1257 893 1307 992 b 1235 1131 1307 1106 1272 1131 b 1154 1058 1193 1131 1154 1104 b 1178 963 1154 1025 1178 993 b 1067 913 1178 935 1167 913 l 804 913 l 793 860 b 900 786 872 860 900 843 b 885 681 900 760 894 725 l 817 353 b 517 88 779 161 692 88 b 321 250 372 88 321 140 b 333 361 321 281 325 319 l 411 731 b 568 860 433 835 456 860 l 579 913 l 143 913 l 132 860 b 246 793 215 860 246 844 b 238 738 246 779 243 760 l 156 344 b 142 221 146 299 142 258 b 461 -18 142 53 240 -18 z m 528 979 b 614 1029 549 1019 578 1029 b 788 985 689 1029 714 985 b 968 1136 871 985 933 1039 l 918 1136 b 829 1085 896 1092 864 1085 b 657 1128 757 1085 728 1128 b 478 979 575 1128 510 1069 z "},"Ử":{"ha":1092,"x_min":0,"x_max":0,"o":"m 461 -18 b 910 365 728 -18 857 110 l 976 685 b 1125 868 1007 832 1018 847 b 1307 1049 1257 893 1307 992 b 1235 1131 1307 1106 1272 1131 b 1154 1058 1193 1131 1154 1104 b 1178 963 1154 1025 1178 993 b 1067 913 1178 935 1167 913 l 804 913 l 793 860 b 900 786 872 860 900 843 b 885 681 900 760 894 725 l 817 353 b 517 88 779 161 692 88 b 321 250 372 88 321 140 b 333 361 321 281 325 319 l 411 731 b 568 860 433 835 456 860 l 579 913 l 143 913 l 132 860 b 246 793 215 860 246 844 b 238 738 246 779 243 760 l 156 344 b 142 221 146 299 142 258 b 461 -18 142 53 240 -18 z m 729 969 l 740 1015 b 890 1151 792 1024 890 1058 b 760 1254 890 1213 846 1254 b 615 1174 690 1254 615 1226 b 651 1139 615 1154 628 1139 b 753 1204 701 1139 694 1204 b 783 1161 778 1204 783 1192 b 672 1044 783 1074 731 1044 l 656 969 z "},"Ự":{"ha":1092,"x_min":0,"x_max":0,"o":"m 461 -18 b 910 365 728 -18 857 110 l 976 685 b 1125 868 1007 832 1018 847 b 1307 1049 1257 893 1307 992 b 1235 1131 1307 1106 1272 1131 b 1154 1058 1193 1131 1154 1104 b 1178 963 1154 1025 1178 993 b 1067 913 1178 935 1167 913 l 804 913 l 793 860 b 900 786 872 860 900 843 b 885 681 900 760 894 725 l 817 353 b 517 88 779 161 692 88 b 321 250 372 88 321 140 b 333 361 321 281 325 319 l 411 731 b 568 860 433 835 456 860 l 579 913 l 143 913 l 132 860 b 246 793 215 860 246 844 b 238 738 246 779 243 760 l 156 344 b 142 221 146 299 142 258 b 461 -18 142 53 240 -18 z m 407 -285 b 506 -187 468 -285 506 -247 b 408 -92 506 -131 472 -92 b 310 -189 347 -92 310 -131 b 407 -285 310 -247 347 -285 z "},"Ṽ":{"ha":939,"x_min":0,"x_max":0,"o":"m 369 -7 l 849 668 b 1071 860 967 838 994 860 l 1081 913 l 775 913 l 765 860 b 842 824 819 860 842 850 b 807 746 842 800 821 767 l 533 344 l 447 211 l 436 211 l 428 357 l 383 711 b 381 758 382 726 381 747 b 496 860 379 839 426 860 l 503 913 l 99 913 l 90 860 b 197 735 169 860 183 826 l 293 -7 z m 456 979 b 542 1029 475 1019 506 1029 b 715 985 617 1029 642 985 b 896 1136 799 985 861 1039 l 846 1136 b 757 1085 822 1092 790 1085 b 583 1128 685 1085 656 1128 b 406 979 503 1128 438 1069 z "},"Ṿ":{"ha":939,"x_min":0,"x_max":0,"o":"m 369 -7 l 849 668 b 1071 860 967 838 994 860 l 1081 913 l 775 913 l 765 860 b 842 824 819 860 842 850 b 807 746 842 800 821 767 l 533 344 l 447 211 l 436 211 l 428 357 l 383 711 b 381 758 382 726 381 747 b 496 860 379 839 426 860 l 503 913 l 99 913 l 90 860 b 197 735 169 860 183 826 l 293 -7 z m 294 -285 b 393 -187 357 -285 393 -247 b 296 -92 393 -131 360 -92 b 197 -189 235 -92 197 -131 b 294 -285 197 -247 235 -285 z "},"Ẁ":{"ha":1342,"x_min":0,"x_max":0,"o":"m 838 -10 l 1326 763 b 1468 860 1371 833 1404 858 l 1476 913 l 1181 913 l 1168 860 b 1244 815 1218 860 1244 851 b 1189 690 1244 774 1200 707 l 910 243 l 901 243 l 900 367 l 872 729 b 871 764 872 740 871 753 b 994 860 871 836 911 860 l 1004 913 l 614 913 l 603 860 b 699 728 679 860 690 847 l 704 626 l 439 242 l 428 242 l 425 361 l 388 744 b 386 779 385 757 385 771 b 386 783 386 781 386 782 b 493 860 386 826 406 860 l 503 913 l 106 913 l 94 860 b 201 728 175 860 193 824 l 272 -10 l 356 -10 l 704 506 l 711 506 l 749 -10 z m 956 969 l 833 1151 l 694 1151 l 688 1113 l 875 969 z "},"Ẃ":{"ha":1342,"x_min":0,"x_max":0,"o":"m 838 -10 l 1326 763 b 1468 860 1371 833 1404 858 l 1476 913 l 1181 913 l 1168 860 b 1244 815 1218 860 1244 851 b 1189 690 1244 774 1200 707 l 910 243 l 901 243 l 900 367 l 872 729 b 871 764 872 740 871 753 b 994 860 871 836 911 860 l 1004 913 l 614 913 l 603 860 b 699 728 679 860 690 847 l 704 626 l 439 242 l 428 242 l 425 361 l 388 744 b 386 779 385 757 385 771 b 386 783 386 781 386 782 b 493 860 386 826 406 860 l 503 913 l 106 913 l 94 860 b 201 728 175 860 193 824 l 272 -10 l 356 -10 l 704 506 l 711 506 l 749 -10 z m 765 969 l 982 1113 l 990 1151 l 835 1151 l 685 969 z "},"Ŵ":{"ha":1342,"x_min":0,"x_max":0,"o":"m 838 -10 l 1326 763 b 1468 860 1371 833 1404 858 l 1476 913 l 1181 913 l 1168 860 b 1244 815 1218 860 1244 851 b 1189 690 1244 774 1200 707 l 910 243 l 901 243 l 900 367 l 872 729 b 871 764 872 740 871 753 b 994 860 871 836 911 860 l 1004 913 l 614 913 l 603 860 b 699 728 679 860 690 847 l 704 626 l 439 242 l 428 242 l 425 361 l 388 744 b 386 779 385 757 385 771 b 386 783 386 781 386 782 b 493 860 386 826 406 860 l 503 913 l 106 913 l 94 860 b 201 728 175 860 193 824 l 272 -10 l 356 -10 l 704 506 l 711 506 l 749 -10 z m 685 969 l 842 1071 l 964 969 l 1033 969 l 919 1163 l 801 1163 l 608 969 z "},"Ẅ":{"ha":1342,"x_min":0,"x_max":0,"o":"m 838 -10 l 1326 763 b 1468 860 1371 833 1404 858 l 1476 913 l 1181 913 l 1168 860 b 1244 815 1218 860 1244 851 b 1189 690 1244 774 1200 707 l 910 243 l 901 243 l 900 367 l 872 729 b 871 764 872 740 871 753 b 994 860 871 836 911 860 l 1004 913 l 614 913 l 603 860 b 699 728 679 860 690 847 l 704 626 l 439 242 l 428 242 l 425 361 l 388 744 b 386 779 385 757 385 771 b 386 783 386 781 386 782 b 493 860 386 826 406 860 l 503 913 l 106 913 l 94 860 b 201 728 175 860 193 824 l 272 -10 l 356 -10 l 704 506 l 711 506 l 749 -10 z m 688 975 b 782 1068 746 975 782 1011 b 689 1158 782 1121 749 1158 b 596 1067 631 1158 596 1122 b 688 975 596 1011 632 975 z m 992 975 b 1085 1068 1050 975 1085 1011 b 992 1158 1085 1121 1053 1158 b 899 1067 933 1158 899 1122 b 992 975 899 1011 935 975 z "},"Ẇ":{"ha":1342,"x_min":0,"x_max":0,"o":"m 838 -10 l 1326 763 b 1468 860 1371 833 1404 858 l 1476 913 l 1181 913 l 1168 860 b 1244 815 1218 860 1244 851 b 1189 690 1244 774 1200 707 l 910 243 l 901 243 l 900 367 l 872 729 b 871 764 872 740 871 753 b 994 860 871 836 911 860 l 1004 913 l 614 913 l 603 860 b 699 728 679 860 690 847 l 704 626 l 439 242 l 428 242 l 425 361 l 388 744 b 386 779 385 757 385 771 b 386 783 386 781 386 782 b 493 860 386 826 406 860 l 503 913 l 106 913 l 94 860 b 201 728 175 860 193 824 l 272 -10 l 356 -10 l 704 506 l 711 506 l 749 -10 z m 839 971 b 938 1067 900 971 938 1007 b 840 1163 938 1125 903 1163 b 743 1065 779 1163 743 1125 b 839 971 743 1007 781 971 z "},"Ẉ":{"ha":1342,"x_min":0,"x_max":0,"o":"m 838 -10 l 1326 763 b 1468 860 1371 833 1404 858 l 1476 913 l 1181 913 l 1168 860 b 1244 815 1218 860 1244 851 b 1189 690 1244 774 1200 707 l 910 243 l 901 243 l 900 367 l 872 729 b 871 764 872 740 871 753 b 994 860 871 836 911 860 l 1004 913 l 614 913 l 603 860 b 699 728 679 860 690 847 l 704 626 l 439 242 l 428 242 l 425 361 l 388 744 b 386 779 385 757 385 771 b 386 783 386 781 386 782 b 493 860 386 826 406 860 l 503 913 l 106 913 l 94 860 b 201 728 175 860 193 824 l 272 -10 l 356 -10 l 704 506 l 711 506 l 749 -10 z m 517 -285 b 615 -187 578 -285 615 -247 b 518 -92 615 -131 582 -92 b 419 -189 457 -92 419 -131 b 517 -285 419 -247 457 -285 z "},"Ẍ":{"ha":900,"x_min":0,"x_max":0,"o":"m 849 0 l 860 53 b 733 139 796 54 765 72 l 556 496 l 788 729 b 1001 858 888 831 917 854 l 1014 913 l 686 913 l 675 858 b 754 829 735 858 754 850 b 697 738 754 801 733 779 l 528 553 l 522 553 l 476 675 b 429 808 460 718 429 774 b 513 858 429 847 451 858 l 525 858 l 539 913 l 119 913 l 108 858 b 251 756 201 858 211 833 l 397 451 l 97 149 b -68 53 24 75 -3 54 l -79 0 l 247 0 l 260 53 b 172 89 190 53 172 64 b 228 179 172 119 206 156 l 426 390 l 431 390 l 457 321 l 507 200 b 532 110 525 157 532 131 b 442 53 532 75 503 53 l 431 53 l 419 0 z m 465 975 b 560 1068 524 975 560 1011 b 467 1158 560 1121 526 1158 b 374 1067 408 1158 374 1122 b 465 975 374 1011 410 975 z m 769 975 b 863 1068 828 975 863 1011 b 769 1158 863 1121 831 1158 b 676 1067 711 1158 676 1122 b 769 975 676 1011 713 975 z "},"Ẋ":{"ha":900,"x_min":0,"x_max":0,"o":"m 849 0 l 860 53 b 733 139 796 54 765 72 l 556 496 l 788 729 b 1001 858 888 831 917 854 l 1014 913 l 686 913 l 675 858 b 754 829 735 858 754 850 b 697 738 754 801 733 779 l 528 553 l 522 553 l 476 675 b 429 808 460 718 429 774 b 513 858 429 847 451 858 l 525 858 l 539 913 l 119 913 l 108 858 b 251 756 201 858 211 833 l 397 451 l 97 149 b -68 53 24 75 -3 54 l -79 0 l 247 0 l 260 53 b 172 89 190 53 172 64 b 228 179 172 119 206 156 l 426 390 l 431 390 l 457 321 l 507 200 b 532 110 525 157 532 131 b 442 53 532 75 503 53 l 431 53 l 419 0 z m 617 971 b 715 1067 678 971 715 1007 b 618 1163 715 1125 681 1163 b 521 1065 557 1163 521 1125 b 617 971 521 1007 558 971 z "},"Ỳ":{"ha":882,"x_min":0,"x_max":0,"o":"m 818 733 b 1017 860 903 840 936 854 l 1026 913 l 721 913 l 708 860 b 783 831 771 860 783 847 b 757 775 783 814 771 790 l 513 444 l 504 444 l 472 558 l 397 767 b 388 819 392 785 388 804 b 483 860 388 840 408 860 l 494 913 l 96 913 l 85 860 b 244 671 150 860 178 847 l 364 361 l 326 188 b 163 53 301 64 283 53 l 151 0 l 601 0 l 611 53 b 492 119 526 53 492 61 b 500 188 492 138 494 158 l 538 361 z m 739 969 l 617 1151 l 478 1151 l 471 1113 l 658 969 z "},"Ý":{"ha":882,"x_min":0,"x_max":0,"o":"m 818 733 b 1017 860 903 840 936 854 l 1026 913 l 721 913 l 708 860 b 783 831 771 860 783 847 b 757 775 783 814 771 790 l 513 444 l 504 444 l 472 558 l 397 767 b 388 819 392 785 388 804 b 483 860 388 840 408 860 l 494 913 l 96 913 l 85 860 b 244 671 150 860 178 847 l 364 361 l 326 188 b 163 53 301 64 283 53 l 151 0 l 601 0 l 611 53 b 492 119 526 53 492 61 b 500 188 492 138 494 158 l 538 361 z m 549 969 l 765 1113 l 774 1151 l 617 1151 l 468 969 z "},"Ŷ":{"ha":882,"x_min":0,"x_max":0,"o":"m 818 733 b 1017 860 903 840 936 854 l 1026 913 l 721 913 l 708 860 b 783 831 771 860 783 847 b 757 775 783 814 771 790 l 513 444 l 504 444 l 472 558 l 397 767 b 388 819 392 785 388 804 b 483 860 388 840 408 860 l 494 913 l 96 913 l 85 860 b 244 671 150 860 178 847 l 364 361 l 326 188 b 163 53 301 64 283 53 l 151 0 l 601 0 l 611 53 b 492 119 526 53 492 61 b 500 188 492 138 494 158 l 538 361 z m 468 969 l 625 1071 l 747 969 l 817 969 l 703 1163 l 585 1163 l 392 969 z "},"Ỹ":{"ha":882,"x_min":0,"x_max":0,"o":"m 818 733 b 1017 860 903 840 936 854 l 1026 913 l 721 913 l 708 860 b 783 831 771 860 783 847 b 757 775 783 814 771 790 l 513 444 l 504 444 l 472 558 l 397 767 b 388 819 392 785 388 804 b 483 860 388 840 408 860 l 494 913 l 96 913 l 85 860 b 244 671 150 860 178 847 l 364 361 l 326 188 b 163 53 301 64 283 53 l 151 0 l 601 0 l 611 53 b 492 119 526 53 492 61 b 500 188 492 138 494 158 l 538 361 z m 433 979 b 519 1029 453 1019 483 1029 b 693 985 594 1029 619 985 b 874 1136 776 985 839 1039 l 824 1136 b 735 1085 800 1092 768 1085 b 561 1128 663 1085 633 1128 b 383 979 481 1128 415 1069 z "},"Ÿ":{"ha":882,"x_min":0,"x_max":0,"o":"m 818 733 b 1017 860 903 840 936 854 l 1026 913 l 721 913 l 708 860 b 783 831 771 860 783 847 b 757 775 783 814 771 790 l 513 444 l 504 444 l 472 558 l 397 767 b 388 819 392 785 388 804 b 483 860 388 840 408 860 l 494 913 l 96 913 l 85 860 b 244 671 150 860 178 847 l 364 361 l 326 188 b 163 53 301 64 283 53 l 151 0 l 601 0 l 611 53 b 492 119 526 53 492 61 b 500 188 492 138 494 158 l 538 361 z m 774 975 b 868 1068 832 975 868 1011 b 775 1158 868 1121 836 1158 b 682 1067 717 1158 682 1122 b 774 975 682 1011 718 975 z m 471 975 b 565 1068 529 975 565 1011 b 472 1158 565 1121 532 1158 b 379 1067 414 1158 379 1122 b 471 975 379 1011 414 975 z "},"Ẏ":{"ha":882,"x_min":0,"x_max":0,"o":"m 818 733 b 1017 860 903 840 936 854 l 1026 913 l 721 913 l 708 860 b 783 831 771 860 783 847 b 757 775 783 814 771 790 l 513 444 l 504 444 l 472 558 l 397 767 b 388 819 392 785 388 804 b 483 860 388 840 408 860 l 494 913 l 96 913 l 85 860 b 244 671 150 860 178 847 l 364 361 l 326 188 b 163 53 301 64 283 53 l 151 0 l 601 0 l 611 53 b 492 119 526 53 492 61 b 500 188 492 138 494 158 l 538 361 z m 622 971 b 721 1067 683 971 721 1007 b 624 1163 721 1125 686 1163 b 526 1065 563 1163 526 1125 b 622 971 526 1007 563 971 z "},"Ỷ":{"ha":882,"x_min":0,"x_max":0,"o":"m 818 733 b 1017 860 903 840 936 854 l 1026 913 l 721 913 l 708 860 b 783 831 771 860 783 847 b 757 775 783 814 771 790 l 513 444 l 504 444 l 472 558 l 397 767 b 388 819 392 785 388 804 b 483 860 388 840 408 860 l 494 913 l 96 913 l 85 860 b 244 671 150 860 178 847 l 364 361 l 326 188 b 163 53 301 64 283 53 l 151 0 l 601 0 l 611 53 b 492 119 526 53 492 61 b 500 188 492 138 494 158 l 538 361 z m 638 969 l 647 1015 b 799 1151 700 1024 799 1058 b 668 1254 799 1213 753 1254 b 524 1174 599 1254 524 1226 b 560 1139 524 1154 536 1139 b 661 1204 610 1139 603 1204 b 692 1161 685 1204 692 1192 b 581 1044 692 1074 639 1044 l 564 969 z "},"Ỵ":{"ha":882,"x_min":0,"x_max":0,"o":"m 818 733 b 1017 860 903 840 936 854 l 1026 913 l 721 913 l 708 860 b 783 831 771 860 783 847 b 757 775 783 814 771 790 l 513 444 l 504 444 l 472 558 l 397 767 b 388 819 392 785 388 804 b 483 860 388 840 408 860 l 494 913 l 96 913 l 85 860 b 244 671 150 860 178 847 l 364 361 l 326 188 b 163 53 301 64 283 53 l 151 0 l 601 0 l 611 53 b 492 119 526 53 492 61 b 500 188 492 138 494 158 l 538 361 z m 340 -285 b 440 -187 403 -285 440 -247 b 342 -92 440 -131 406 -92 b 244 -189 281 -92 244 -131 b 340 -285 244 -247 282 -285 z "},"Ź":{"ha":869,"x_min":0,"x_max":0,"o":"m 711 0 l 799 279 l 736 279 b 458 75 668 129 626 75 l 231 75 l 231 82 l 907 850 l 919 913 l 222 913 l 156 658 l 218 658 b 463 836 278 813 331 836 l 683 836 l 683 829 l 4 63 l -8 0 z m 526 969 l 743 1113 l 750 1151 l 594 1151 l 446 969 z "},"Ẑ":{"ha":869,"x_min":0,"x_max":0,"o":"m 711 0 l 799 279 l 736 279 b 458 75 668 129 626 75 l 231 75 l 231 82 l 907 850 l 919 913 l 222 913 l 156 658 l 218 658 b 463 836 278 813 331 836 l 683 836 l 683 829 l 4 63 l -8 0 z m 444 969 l 603 1071 l 725 969 l 793 969 l 681 1163 l 561 1163 l 369 969 z "},"Ž":{"ha":869,"x_min":0,"x_max":0,"o":"m 711 0 l 799 279 l 736 279 b 458 75 668 129 626 75 l 231 75 l 231 82 l 907 850 l 919 913 l 222 913 l 156 658 l 218 658 b 463 836 278 813 331 836 l 683 836 l 683 829 l 4 63 l -8 0 z m 640 969 l 832 1163 l 757 1163 l 600 1060 l 478 1163 l 408 1163 l 522 969 z "},"Ż":{"ha":869,"x_min":0,"x_max":0,"o":"m 711 0 l 799 279 l 736 279 b 458 75 668 129 626 75 l 231 75 l 231 82 l 907 850 l 919 913 l 222 913 l 156 658 l 218 658 b 463 836 278 813 331 836 l 683 836 l 683 829 l 4 63 l -8 0 z m 600 971 b 699 1067 661 971 699 1007 b 601 1163 699 1125 664 1163 b 504 1065 540 1163 504 1125 b 600 971 504 1007 540 971 z "},"Ẕ":{"ha":869,"x_min":0,"x_max":0,"o":"m 711 0 l 799 279 l 736 279 b 458 75 668 129 626 75 l 231 75 l 231 82 l 907 850 l 919 913 l 222 913 l 156 658 l 218 658 b 463 836 278 813 331 836 l 683 836 l 683 829 l 4 63 l -8 0 z m 521 -204 l 540 -111 l 138 -111 l 118 -204 z "},"Ẓ":{"ha":869,"x_min":0,"x_max":0,"o":"m 711 0 l 799 279 l 736 279 b 458 75 668 129 626 75 l 231 75 l 231 82 l 907 850 l 919 913 l 222 913 l 156 658 l 218 658 b 463 836 278 813 331 836 l 683 836 l 683 829 l 4 63 l -8 0 z m 321 -285 b 419 -187 382 -285 419 -247 b 322 -92 419 -131 386 -92 b 224 -189 261 -92 224 -131 b 321 -285 224 -247 261 -285 z "},"Ƶ":{"ha":869,"x_min":0,"x_max":0,"o":"m 711 0 l 800 279 l 738 279 b 460 75 669 129 626 75 l 231 75 l 232 82 l 551 446 l 774 446 l 786 514 l 611 514 l 907 850 l 919 913 l 224 913 l 157 658 l 218 658 b 463 836 278 813 331 836 l 685 836 l 683 829 l 404 514 l 178 514 l 165 446 l 344 446 l 6 63 l -8 0 z "},"Ɛ":{"ha":746,"x_min":0,"x_max":0,"o":"m 329 -17 b 707 164 497 -17 625 65 l 674 194 b 400 89 593 122 510 89 b 215 228 294 89 215 118 b 497 447 215 364 297 447 l 572 447 l 589 524 l 518 524 b 319 669 406 524 319 554 b 522 867 319 785 388 867 b 722 696 678 867 608 696 b 813 776 772 696 813 718 b 538 928 813 860 736 928 b 144 669 310 928 144 832 b 313 492 144 558 232 521 l 311 483 b 29 186 199 464 29 369 b 329 -17 29 32 161 -17 z "},"Ⅎ":{"ha":833,"x_min":0,"x_max":0,"o":"m 721 0 l 733 54 b 621 117 653 54 621 65 b 628 169 621 131 624 149 l 747 739 b 899 860 768 842 793 860 l 910 913 l 468 913 l 457 860 b 582 793 546 860 582 849 b 576 749 582 781 581 767 l 521 481 l 393 481 b 260 549 300 481 260 489 b 267 606 260 564 263 582 l 208 606 l 140 282 l 197 282 b 381 414 222 394 263 414 l 507 414 l 436 78 l 253 78 b 76 246 74 78 72 114 l 14 246 l -32 0 z "},"Ŋ":{"ha":1033,"x_min":0,"x_max":0,"o":"m 481 -328 b 818 -14 661 -328 769 -239 l 960 678 b 1121 860 985 794 1015 860 l 1132 913 l 794 913 l 785 860 b 878 681 904 860 900 790 l 789 247 l 782 247 l 429 913 l 150 913 l 139 860 b 253 792 200 860 222 847 l 135 218 b -26 53 106 79 82 53 l -36 0 l 296 0 l 308 53 b 217 218 204 53 188 79 l 319 717 l 326 717 l 708 -6 l 724 -6 l 714 -51 b 554 -253 681 -200 626 -253 b 407 -150 486 -253 493 -150 b 331 -228 354 -150 331 -185 b 481 -328 331 -296 392 -328 z "},"Ð":{"ha":1028,"x_min":0,"x_max":0,"o":"m 364 0 b 997 558 715 0 997 149 b 551 913 997 821 808 913 l 172 913 l 161 857 b 264 742 258 857 285 844 l 214 499 l 71 499 l 54 425 l 199 425 l 149 183 b -6 53 125 71 104 53 l -17 0 z m 565 425 l 582 499 l 386 499 l 457 840 b 514 842 482 842 494 842 b 810 539 732 842 810 725 b 371 69 810 201 664 69 b 297 72 346 69 321 69 l 371 425 z "},"Þ":{"ha":854,"x_min":0,"x_max":0,"o":"m 407 0 l 417 53 b 315 193 299 53 292 76 l 322 229 b 417 217 349 222 378 217 b 838 539 629 217 838 294 b 540 736 838 703 704 736 b 428 731 489 736 451 732 b 592 860 449 825 472 860 l 601 913 l 165 913 l 154 860 b 253 717 275 860 275 826 l 143 193 b -12 53 117 72 107 53 l -25 0 z m 336 290 l 415 674 b 478 676 440 675 456 676 b 656 535 600 676 656 632 b 399 286 656 372 556 286 b 336 290 368 286 350 288 z "},"Ĳ":{"ha":1131,"x_min":0,"x_max":0,"o":"m 636 -18 b 954 224 769 -18 913 18 l 1057 717 b 1215 860 1079 825 1094 860 l 1225 913 l 782 913 l 769 860 b 883 717 901 860 906 825 l 772 179 b 681 42 751 74 733 42 b 551 185 615 42 654 185 b 474 97 503 185 474 149 b 636 -18 474 14 551 -18 z m 400 0 l 411 53 b 315 192 296 53 292 72 l 424 717 b 582 860 447 825 460 860 l 593 913 l 163 913 l 151 860 b 251 717 274 860 274 826 l 143 193 b -12 53 117 72 104 53 l -24 0 z "},"a":{"ha":786,"x_min":0,"x_max":0,"o":"m 233 -19 b 438 106 317 -19 376 25 l 447 106 b 443 63 446 90 443 76 b 539 -15 443 4 476 -15 b 761 126 663 -15 719 64 l 722 157 b 632 92 701 129 672 92 b 600 126 606 92 600 107 b 607 176 600 147 607 176 l 707 657 l 610 657 l 557 592 l 549 592 b 404 667 519 631 486 667 b 42 226 218 667 42 482 b 233 -19 42 46 131 -19 z m 301 88 b 214 239 246 88 214 119 b 404 608 214 419 288 608 b 496 479 468 608 496 550 b 458 257 496 414 474 315 b 301 88 429 151 376 88 z "},"b":{"ha":743,"x_min":0,"x_max":0,"o":"m 285 -18 b 701 422 550 -18 701 168 b 504 667 701 589 614 667 b 318 571 429 667 385 638 l 310 571 l 392 979 l 329 979 l 117 965 l 117 915 b 160 917 117 915 144 917 b 210 878 188 917 210 908 b 204 829 210 861 206 835 l 46 33 b 285 -18 121 -1 197 -18 z m 325 57 b 221 101 281 57 239 85 l 286 438 b 439 578 310 499 365 578 b 526 421 486 578 526 542 b 325 57 526 214 458 57 z "},"c":{"ha":604,"x_min":0,"x_max":0,"o":"m 272 -19 b 557 151 413 -19 499 60 l 524 178 b 342 88 483 126 426 88 b 211 268 254 88 211 128 b 407 611 211 435 274 611 b 467 574 449 611 467 593 b 443 485 467 551 443 522 b 510 424 443 444 469 424 b 604 532 574 424 604 476 b 426 667 604 622 528 667 b 43 233 213 667 43 471 b 272 -19 43 89 108 -19 z "},"d":{"ha":781,"x_min":0,"x_max":0,"o":"m 236 -18 b 440 106 319 -18 378 24 l 451 106 b 449 67 450 93 449 79 b 546 -15 449 17 478 -15 b 767 128 668 -15 721 63 l 729 156 b 632 88 710 129 672 88 b 600 115 615 88 600 94 b 607 169 600 131 607 169 l 765 979 l 714 979 l 490 964 l 490 915 b 533 918 490 915 517 918 b 582 875 575 918 582 899 b 578 831 582 856 578 831 l 536 617 l 531 617 b 397 667 497 649 456 667 b 44 229 208 667 44 476 b 236 -18 44 56 124 -18 z m 301 88 b 217 242 251 88 217 118 b 401 608 217 414 285 608 b 500 483 467 608 500 547 b 458 239 500 440 485 347 b 301 88 439 157 379 88 z "},"e":{"ha":618,"x_min":0,"x_max":0,"o":"m 276 -19 b 568 157 382 -19 486 25 l 533 185 b 347 89 479 118 419 89 b 208 254 264 89 208 126 b 208 272 208 261 208 267 b 607 533 368 286 607 354 b 436 668 607 647 510 668 b 40 233 192 668 40 446 b 276 -19 40 96 104 -19 z m 214 322 b 390 607 232 461 306 607 b 439 538 426 607 439 582 b 214 322 439 415 340 333 z "},"f":{"ha":449,"x_min":0,"x_max":0,"o":"m -43 -317 b 272 114 183 -317 251 -25 l 344 579 l 485 579 l 494 650 l 356 650 l 371 750 b 476 938 389 865 425 938 b 518 864 506 938 511 901 b 588 796 526 829 542 796 b 663 868 629 796 663 821 b 496 989 663 950 589 989 b 251 858 351 989 290 925 b 190 650 222 807 204 733 l 69 650 l 60 579 l 179 579 l 97 58 b -22 -256 85 -18 51 -256 b -137 -119 -75 -256 -39 -119 b -207 -197 -183 -119 -207 -156 b -43 -317 -207 -275 -142 -317 z "},"g":{"ha":658,"x_min":0,"x_max":0,"o":"m 249 -317 b 590 -99 476 -317 590 -224 b 225 151 590 114 225 72 b 313 217 225 175 251 211 b 590 444 493 224 590 324 b 546 572 590 507 564 546 l 546 576 l 661 557 l 669 649 l 475 649 b 347 665 440 658 399 665 b 60 425 172 665 60 565 b 192 239 60 310 133 263 l 192 231 b 71 111 129 214 71 171 b 129 21 71 69 99 36 l 129 14 b -40 -150 21 -12 -40 -75 b 249 -317 -40 -242 35 -317 z m 174 -10 b 438 -151 306 -35 438 -65 b 267 -254 438 -208 379 -254 b 99 -133 146 -254 99 -194 b 174 -10 99 -78 135 -33 z m 308 271 b 218 425 243 271 218 322 b 335 614 218 546 264 614 b 429 461 396 614 429 560 b 308 271 429 371 401 271 z "},"h":{"ha":810,"x_min":0,"x_max":0,"o":"m 556 -15 b 783 128 696 -15 747 78 l 744 156 b 646 88 726 133 693 88 b 617 115 625 88 617 99 b 622 147 617 131 622 147 l 700 458 b 714 563 704 479 714 526 b 601 667 714 615 692 667 b 279 394 431 667 336 493 l 264 394 l 311 578 l 404 981 l 344 981 l 128 965 l 128 915 b 171 918 128 915 154 918 b 218 879 203 918 218 903 b 213 835 218 861 213 835 l 35 0 l 201 0 l 251 219 b 506 549 292 311 418 549 b 540 504 531 549 540 529 b 531 442 540 478 531 442 l 450 126 b 442 67 449 119 442 92 b 556 -15 442 25 460 -15 z "},"i":{"ha":428,"x_min":0,"x_max":0,"o":"m 172 -15 b 406 128 308 -14 358 60 l 368 156 b 267 88 346 131 314 88 b 240 114 250 88 240 96 b 249 172 240 133 249 172 l 351 661 l 294 661 l 72 646 l 72 594 b 118 597 72 594 94 597 b 163 558 156 597 163 576 b 158 514 163 536 158 514 l 90 197 b 68 67 72 115 68 90 b 172 -15 68 18 101 -15 z m 288 760 b 386 857 349 760 386 797 b 289 953 386 914 353 953 b 190 856 228 953 190 915 b 288 760 190 797 228 760 z "},"j":{"ha":418,"x_min":0,"x_max":0,"o":"m -56 -317 b 264 104 169 -317 233 -65 l 365 661 l 308 661 l 88 646 l 88 596 b 135 599 88 596 111 599 b 179 560 172 599 179 578 b 175 515 179 536 175 515 l 86 47 b -42 -254 64 -72 25 -254 b -154 -119 -97 -254 -57 -119 b -226 -201 -203 -119 -226 -160 b -56 -317 -226 -276 -158 -317 z m 300 761 b 399 857 364 761 399 797 b 300 953 399 914 364 953 b 201 856 239 953 201 915 b 300 761 201 797 239 761 z "},"k":{"ha":754,"x_min":0,"x_max":0,"o":"m 206 0 l 256 263 l 313 307 l 383 110 b 529 -14 401 64 429 -14 b 749 135 672 -14 722 92 l 711 160 b 608 89 679 118 657 89 b 532 167 568 89 551 122 l 432 397 l 582 522 b 768 607 631 563 682 604 l 772 650 l 454 650 l 450 607 b 508 567 492 606 508 589 b 481 517 508 547 499 532 l 275 343 l 267 343 l 393 979 l 344 979 l 118 964 l 118 915 b 164 918 118 915 139 918 b 207 874 200 918 207 892 b 203 832 207 851 203 832 l 39 0 z "},"l":{"ha":415,"x_min":0,"x_max":0,"o":"m 168 -15 b 399 128 299 -15 351 60 l 361 156 b 261 88 339 131 307 88 b 232 114 244 88 232 96 b 239 175 232 129 238 167 l 399 979 l 351 979 l 124 964 l 124 915 b 168 918 124 915 143 918 b 211 878 206 918 211 896 b 207 832 211 856 207 832 l 79 200 b 60 69 69 149 60 101 b 168 -15 60 21 86 -15 z "},"m":{"ha":1197,"x_min":0,"x_max":0,"o":"m 943 -15 b 1169 128 1086 -15 1144 94 l 1132 156 b 1032 88 1110 129 1076 88 b 1004 115 1013 88 1004 99 b 1008 147 1004 131 1008 147 l 1089 464 b 1103 568 1092 478 1103 529 b 1003 667 1103 619 1083 667 b 697 404 869 667 769 538 l 685 404 l 707 482 b 719 569 708 488 719 532 b 618 668 719 618 700 668 b 308 406 461 668 363 500 l 293 406 l 356 661 l 313 661 l 88 646 l 88 596 b 131 599 88 596 115 599 b 178 560 167 599 178 585 b 172 515 178 540 172 515 l 61 0 l 228 0 l 272 193 b 521 549 331 350 443 549 b 554 499 547 549 554 526 b 547 439 554 474 547 442 b 436 0 514 289 496 219 l 604 0 l 638 154 b 899 549 679 290 819 549 b 932 499 924 549 932 525 b 910 379 932 467 918 410 l 838 122 b 831 69 836 114 831 89 b 943 -15 831 26 853 -15 z "},"n":{"ha":831,"x_min":0,"x_max":0,"o":"m 575 -15 b 801 128 719 -15 779 94 l 764 156 b 665 88 743 129 710 88 b 638 115 644 88 638 99 b 642 147 638 131 642 147 l 724 464 b 736 561 729 489 736 522 b 631 667 736 619 715 667 b 304 383 451 667 354 474 l 288 383 l 356 661 l 303 661 l 89 646 l 89 596 b 132 599 89 596 115 599 b 178 558 165 599 178 585 b 172 515 178 540 172 515 l 63 0 l 228 0 l 279 217 b 529 549 331 335 451 549 b 564 496 556 549 564 526 b 554 428 564 464 554 428 l 471 124 b 464 72 468 115 464 94 b 575 -15 464 22 490 -15 z "},"o":{"ha":719,"x_min":0,"x_max":0,"o":"m 308 -17 b 679 390 533 -17 679 169 b 417 667 679 578 569 667 b 44 256 190 667 44 478 b 308 -17 44 67 157 -17 z m 322 43 b 222 235 242 43 222 128 b 401 608 222 429 288 608 b 500 417 481 608 500 526 b 322 43 500 224 431 43 z "},"p":{"ha":778,"x_min":0,"x_max":0,"o":"m 368 -15 b 735 417 568 -15 735 160 b 536 667 735 592 647 667 b 338 553 454 667 404 624 l 329 553 l 350 658 l 304 658 l 83 638 l 83 590 b 125 593 83 590 106 593 b 178 553 163 593 178 581 b 175 526 178 543 176 535 l -1 -306 l 328 -306 l 339 -256 b 199 -182 228 -256 199 -218 b 204 -128 199 -168 201 -142 l 235 21 b 368 -15 261 6 310 -15 z m 250 100 l 318 429 b 472 576 349 506 399 576 b 560 413 511 576 560 551 b 360 54 560 199 479 54 b 250 100 314 54 278 76 z "},"q":{"ha":758,"x_min":0,"x_max":0,"o":"m 638 -306 l 644 -254 b 547 -182 563 -254 547 -231 b 551 -139 547 -158 551 -139 l 711 657 l 622 657 l 576 603 l 569 603 b 411 667 542 633 494 667 b 42 231 219 667 42 482 b 235 -18 42 86 100 -18 b 419 86 296 -18 351 3 l 433 86 l 343 -306 z m 303 88 b 218 239 236 88 218 144 b 401 608 218 432 290 608 b 499 483 464 608 499 551 b 457 239 499 431 479 314 b 303 88 431 150 374 88 z "},"r":{"ha":583,"x_min":0,"x_max":0,"o":"m 232 0 l 272 190 b 478 528 322 318 410 528 b 546 471 483 528 492 471 b 633 572 589 471 633 506 b 543 665 633 636 596 665 b 311 392 408 665 354 488 l 294 392 l 356 661 l 299 661 l 88 646 l 88 596 b 131 599 88 596 115 599 b 176 557 168 599 176 583 b 164 471 176 532 169 497 l 61 0 z "},"s":{"ha":557,"x_min":0,"x_max":0,"o":"m 236 -19 b 488 168 383 -19 488 56 b 364 382 488 254 435 310 b 256 538 300 449 256 489 b 343 613 256 578 282 613 b 469 443 425 613 461 550 l 517 443 l 547 665 l 510 665 l 474 626 l 468 626 b 311 667 435 647 376 667 b 103 492 183 667 103 597 b 225 289 103 408 160 357 b 326 128 286 228 326 188 b 225 39 326 69 288 39 b 90 233 131 39 104 110 l 42 233 l -4 -15 l 39 -15 l 68 21 l 74 21 b 236 -19 110 1 163 -19 z "},"t":{"ha":454,"x_min":0,"x_max":0,"o":"m 181 -17 b 411 132 304 -17 371 76 l 374 160 b 269 88 331 106 303 88 b 243 117 247 88 243 100 b 253 186 243 140 253 186 l 336 583 l 472 583 l 486 650 l 350 650 l 386 824 l 317 824 b 100 632 239 708 200 676 l 92 583 l 174 583 l 83 161 b 72 79 78 136 72 103 b 181 -17 72 11 113 -17 z "},"u":{"ha":815,"x_min":0,"x_max":0,"o":"m 178 -15 b 465 201 332 -15 424 133 l 481 201 b 456 67 467 146 456 107 b 565 -15 456 11 492 -15 b 793 128 685 -15 742 49 l 756 156 b 657 88 750 147 706 88 b 629 111 635 88 629 100 b 638 171 629 132 638 171 l 738 657 l 571 657 l 525 447 b 288 108 494 307 374 108 b 250 168 261 108 250 133 b 258 231 250 189 256 217 l 357 661 l 296 661 l 72 646 l 72 594 b 118 597 79 594 96 597 b 165 558 151 597 165 581 b 157 499 165 536 157 499 l 88 201 b 72 99 79 171 72 131 b 178 -15 72 33 99 -15 z "},"v":{"ha":650,"x_min":0,"x_max":0,"o":"m 261 -11 b 636 526 453 106 636 282 b 538 671 636 607 611 671 b 463 603 496 671 463 650 b 533 428 463 533 533 528 b 299 82 533 300 429 186 l 293 82 l 300 150 b 271 663 297 324 286 485 l 188 663 l 4 642 l 4 589 b 49 593 22 592 35 593 b 111 511 96 593 104 576 b 143 -11 129 343 140 160 z "},"w":{"ha":1047,"x_min":0,"x_max":0,"o":"m 308 -11 l 528 460 l 536 460 b 557 -11 546 294 551 154 l 678 -11 b 1029 524 864 101 1029 283 b 931 669 1029 607 1006 669 b 856 601 892 669 856 651 b 926 424 856 531 926 532 b 717 85 926 303 853 189 l 710 85 l 714 151 b 689 654 708 332 700 483 l 551 654 l 303 104 l 294 104 l 301 172 b 271 663 299 346 288 485 l 189 663 l 4 642 l 4 589 b 49 593 24 592 33 593 b 111 511 94 593 104 576 b 144 -11 128 331 140 199 z "},"x":{"ha":681,"x_min":0,"x_max":0,"o":"m 460 -15 b 669 160 561 -15 631 99 l 632 186 b 536 110 599 139 571 110 b 449 261 503 110 482 151 l 418 363 l 497 489 b 572 546 521 528 542 546 b 651 525 599 546 618 525 b 722 596 693 525 722 558 b 642 669 722 642 701 669 b 463 535 553 669 504 610 l 403 428 l 394 428 l 382 499 b 315 660 364 574 344 621 l 235 660 l 46 638 l 46 583 b 88 588 51 585 69 588 b 235 447 175 589 201 564 l 269 325 l 175 176 b 99 110 136 118 118 110 b 11 126 75 110 42 126 b -50 63 -25 126 -50 97 b 38 -14 -50 24 -25 -14 b 207 118 125 -14 167 44 l 283 258 l 293 258 l 326 121 b 460 -15 347 29 381 -15 z "},"y":{"ha":674,"x_min":0,"x_max":0,"o":"m 13 -306 b 389 49 135 -306 214 -189 b 607 361 456 138 535 249 b 674 558 654 438 674 507 b 576 672 674 626 639 672 b 501 606 529 672 501 646 b 567 468 501 546 567 522 b 522 358 567 438 549 399 l 375 136 l 364 136 l 354 278 l 322 453 b 258 660 303 564 292 607 l 207 660 l -4 644 l -4 592 b 40 594 1 592 25 594 b 144 460 122 594 131 531 l 239 -26 b 61 -222 188 -104 94 -222 b -60 -129 31 -222 14 -129 b -131 -201 -100 -129 -131 -154 b 13 -306 -131 -279 -44 -306 z "},"z":{"ha":622,"x_min":0,"x_max":0,"o":"m 442 -125 b 628 15 513 -125 628 -106 b 549 115 628 75 600 115 b 478 40 503 115 478 81 b 496 -40 478 4 496 -19 b 454 -72 496 -58 483 -72 b 201 147 349 -72 331 135 l 201 157 l 625 585 l 628 650 l 115 650 l 60 404 l 117 404 b 232 518 146 485 163 518 l 442 518 l 442 510 l -35 26 l 8 -19 b 96 19 42 10 63 19 b 442 -125 226 19 239 -125 z "},"à":{"ha":786,"x_min":0,"x_max":0,"o":"m 233 -19 b 438 106 317 -19 376 25 l 447 106 b 443 63 446 90 443 76 b 539 -15 443 4 476 -15 b 761 126 663 -15 719 64 l 722 157 b 632 92 701 129 672 92 b 600 126 606 92 600 107 b 607 176 600 147 607 176 l 707 657 l 610 657 l 557 592 l 549 592 b 404 667 519 631 486 667 b 42 226 218 667 42 482 b 233 -19 42 46 131 -19 z m 301 88 b 214 239 246 88 214 119 b 404 608 214 419 288 608 b 496 479 468 608 496 550 b 458 257 496 414 474 315 b 301 88 429 151 376 88 z m 522 724 l 476 944 l 338 944 l 329 907 l 463 724 z "},"á":{"ha":786,"x_min":0,"x_max":0,"o":"m 233 -19 b 438 106 317 -19 376 25 l 447 106 b 443 63 446 90 443 76 b 539 -15 443 4 476 -15 b 761 126 663 -15 719 64 l 722 157 b 632 92 701 129 672 92 b 600 126 606 92 600 107 b 607 176 600 147 607 176 l 707 657 l 610 657 l 557 592 l 549 592 b 404 667 519 631 486 667 b 42 226 218 667 42 482 b 233 -19 42 46 131 -19 z m 301 88 b 214 239 246 88 214 119 b 404 608 214 419 288 608 b 496 479 468 608 496 550 b 458 257 496 414 474 315 b 301 88 429 151 376 88 z m 428 724 l 596 907 l 603 944 l 453 944 l 365 724 z "},"â":{"ha":786,"x_min":0,"x_max":0,"o":"m 233 -19 b 438 106 317 -19 376 25 l 447 106 b 443 63 446 90 443 76 b 539 -15 443 4 476 -15 b 761 126 663 -15 719 64 l 722 157 b 632 92 701 129 672 92 b 600 126 606 92 600 107 b 607 176 600 147 607 176 l 707 657 l 610 657 l 557 592 l 549 592 b 404 667 519 631 486 667 b 42 226 218 667 42 482 b 233 -19 42 46 131 -19 z m 301 88 b 214 239 246 88 214 119 b 404 608 214 419 288 608 b 496 479 468 608 496 550 b 458 257 496 414 474 315 b 301 88 429 151 376 88 z m 311 724 l 472 854 l 583 724 l 651 724 l 549 944 l 433 944 l 239 724 z "},"ầ":{"ha":786,"x_min":0,"x_max":0,"o":"m 233 -19 b 438 106 317 -19 376 25 l 447 106 b 443 63 446 90 443 76 b 539 -15 443 4 476 -15 b 761 126 663 -15 719 64 l 722 157 b 632 92 701 129 672 92 b 600 126 606 92 600 107 b 607 176 600 147 607 176 l 707 657 l 610 657 l 557 592 l 549 592 b 404 667 519 631 486 667 b 42 226 218 667 42 482 b 233 -19 42 46 131 -19 z m 301 88 b 214 239 246 88 214 119 b 404 608 214 419 288 608 b 496 479 468 608 496 550 b 458 257 496 414 474 315 b 301 88 429 151 376 88 z m 311 724 l 469 842 l 583 724 l 651 724 l 543 931 l 432 931 l 239 724 z m 740 849 l 696 1056 l 568 1056 l 560 1018 l 685 849 z "},"ấ":{"ha":786,"x_min":0,"x_max":0,"o":"m 233 -19 b 438 106 317 -19 376 25 l 447 106 b 443 63 446 90 443 76 b 539 -15 443 4 476 -15 b 761 126 663 -15 719 64 l 722 157 b 632 92 701 129 672 92 b 600 126 606 92 600 107 b 607 176 600 147 607 176 l 707 657 l 610 657 l 557 592 l 549 592 b 404 667 519 631 486 667 b 42 226 218 667 42 482 b 233 -19 42 46 131 -19 z m 301 88 b 214 239 246 88 214 119 b 404 608 214 419 288 608 b 496 479 468 608 496 550 b 458 257 496 414 474 315 b 301 88 429 151 376 88 z m 311 724 l 469 842 l 583 724 l 651 724 l 543 931 l 432 931 l 239 724 z m 663 849 l 828 1018 l 835 1056 l 694 1056 l 608 849 z "},"ẫ":{"ha":786,"x_min":0,"x_max":0,"o":"m 233 -19 b 438 106 317 -19 376 25 l 447 106 b 443 63 446 90 443 76 b 539 -15 443 4 476 -15 b 761 126 663 -15 719 64 l 722 157 b 632 92 701 129 672 92 b 600 126 606 92 600 107 b 607 176 600 147 607 176 l 707 657 l 610 657 l 557 592 l 549 592 b 404 667 519 631 486 667 b 42 226 218 667 42 482 b 233 -19 42 46 131 -19 z m 301 88 b 214 239 246 88 214 119 b 404 608 214 419 288 608 b 496 479 468 608 496 550 b 458 257 496 414 474 315 b 301 88 429 151 376 88 z m 326 968 b 417 1026 347 1010 379 1026 b 585 972 485 1026 506 972 b 760 1125 661 972 718 1022 l 713 1125 b 621 1065 689 1081 656 1065 b 454 1119 554 1065 528 1119 b 279 968 381 1119 314 1060 z m 311 724 l 469 842 l 583 724 l 651 724 l 543 931 l 432 931 l 239 724 z "},"ẩ":{"ha":786,"x_min":0,"x_max":0,"o":"m 233 -19 b 438 106 317 -19 376 25 l 447 106 b 443 63 446 90 443 76 b 539 -15 443 4 476 -15 b 761 126 663 -15 719 64 l 722 157 b 632 92 701 129 672 92 b 600 126 606 92 600 107 b 607 176 600 147 607 176 l 707 657 l 610 657 l 557 592 l 549 592 b 404 667 519 631 486 667 b 42 226 218 667 42 482 b 233 -19 42 46 131 -19 z m 301 88 b 214 239 246 88 214 119 b 404 608 214 419 288 608 b 496 479 468 608 496 550 b 458 257 496 414 474 315 b 301 88 429 151 376 88 z m 311 724 l 469 842 l 583 724 l 651 724 l 543 931 l 432 931 l 239 724 z m 683 849 l 693 893 b 844 1026 742 900 844 933 b 718 1128 844 1088 799 1128 b 576 1046 649 1128 576 1097 b 611 1010 576 1026 588 1010 b 711 1076 660 1010 654 1076 b 742 1032 729 1076 742 1071 b 631 922 742 956 694 922 l 615 849 z "},"ậ":{"ha":786,"x_min":0,"x_max":0,"o":"m 233 -19 b 438 106 317 -19 376 25 l 447 106 b 443 63 446 90 443 76 b 539 -15 443 4 476 -15 b 761 126 663 -15 719 64 l 722 157 b 632 92 701 129 672 92 b 600 126 606 92 600 107 b 607 176 600 147 607 176 l 707 657 l 610 657 l 557 592 l 549 592 b 404 667 519 631 486 667 b 42 226 218 667 42 482 b 233 -19 42 46 131 -19 z m 301 88 b 214 239 246 88 214 119 b 404 608 214 419 288 608 b 496 479 468 608 496 550 b 458 257 496 414 474 315 b 301 88 429 151 376 88 z m 311 724 l 472 854 l 583 724 l 651 724 l 549 944 l 433 944 l 239 724 z m 272 -285 b 371 -187 335 -285 371 -247 b 274 -92 371 -131 338 -92 b 175 -189 213 -92 175 -131 b 272 -285 175 -247 213 -285 z "},"ã":{"ha":786,"x_min":0,"x_max":0,"o":"m 233 -19 b 438 106 317 -19 376 25 l 447 106 b 443 63 446 90 443 76 b 539 -15 443 4 476 -15 b 761 126 663 -15 719 64 l 722 157 b 632 92 701 129 672 92 b 600 126 606 92 600 107 b 607 176 600 147 607 176 l 707 657 l 610 657 l 557 592 l 549 592 b 404 667 519 631 486 667 b 42 226 218 667 42 482 b 233 -19 42 46 131 -19 z m 301 88 b 214 239 246 88 214 119 b 404 608 214 419 288 608 b 496 479 468 608 496 550 b 458 257 496 414 474 315 b 301 88 429 151 376 88 z m 281 740 b 368 800 303 786 333 800 b 538 744 439 800 463 744 b 714 911 614 744 674 803 l 665 911 b 576 849 642 864 610 849 b 411 906 511 849 483 906 b 232 740 332 906 263 833 z "},"ä":{"ha":786,"x_min":0,"x_max":0,"o":"m 233 -19 b 438 106 317 -19 376 25 l 447 106 b 443 63 446 90 443 76 b 539 -15 443 4 476 -15 b 761 126 663 -15 719 64 l 722 157 b 632 92 701 129 672 92 b 600 126 606 92 600 107 b 607 176 600 147 607 176 l 707 657 l 610 657 l 557 592 l 549 592 b 404 667 519 631 486 667 b 42 226 218 667 42 482 b 233 -19 42 46 131 -19 z m 301 88 b 214 239 246 88 214 119 b 404 608 214 419 288 608 b 496 479 468 608 496 550 b 458 257 496 414 474 315 b 301 88 429 151 376 88 z m 622 760 b 717 853 681 760 717 796 b 624 943 717 907 683 943 b 529 851 565 943 529 907 b 622 760 529 794 565 760 z m 322 760 b 417 853 381 760 417 796 b 322 943 417 907 383 943 b 229 851 264 943 229 907 b 322 760 229 794 265 760 z "},"ǟ":{"ha":786,"x_min":0,"x_max":0,"o":"m 233 -19 b 438 106 317 -19 376 25 l 447 106 b 443 63 446 90 443 76 b 539 -15 443 4 476 -15 b 761 126 663 -15 719 64 l 722 157 b 632 92 701 129 672 92 b 600 126 606 92 600 107 b 607 176 600 147 607 176 l 707 657 l 610 657 l 557 592 l 549 592 b 404 667 519 631 486 667 b 42 226 218 667 42 482 b 233 -19 42 46 131 -19 z m 301 88 b 214 239 246 88 214 119 b 404 608 214 419 288 608 b 496 479 468 608 496 550 b 458 257 496 414 474 315 b 301 88 429 151 376 88 z m 701 1001 l 722 1096 l 319 1096 l 299 1001 z m 319 751 b 414 843 379 751 414 788 b 321 935 414 897 382 935 b 228 843 263 935 228 899 b 319 751 228 786 264 751 z m 621 751 b 715 843 679 751 715 788 b 621 935 715 897 682 935 b 528 843 563 935 528 899 b 621 751 528 786 564 751 z "},"ā":{"ha":786,"x_min":0,"x_max":0,"o":"m 233 -19 b 438 106 317 -19 376 25 l 447 106 b 443 63 446 90 443 76 b 539 -15 443 4 476 -15 b 761 126 663 -15 719 64 l 722 157 b 632 92 701 129 672 92 b 600 126 606 92 600 107 b 607 176 600 147 607 176 l 707 657 l 610 657 l 557 592 l 549 592 b 404 667 519 631 486 667 b 42 226 218 667 42 482 b 233 -19 42 46 131 -19 z m 301 88 b 214 239 246 88 214 119 b 404 608 214 419 288 608 b 496 479 468 608 496 550 b 458 257 496 414 474 315 b 301 88 429 151 376 88 z m 656 771 l 675 865 l 272 865 l 253 771 z "},"ă":{"ha":786,"x_min":0,"x_max":0,"o":"m 233 -19 b 438 106 317 -19 376 25 l 447 106 b 443 63 446 90 443 76 b 539 -15 443 4 476 -15 b 761 126 663 -15 719 64 l 722 157 b 632 92 701 129 672 92 b 600 126 606 92 600 107 b 607 176 600 147 607 176 l 707 657 l 610 657 l 557 592 l 549 592 b 404 667 519 631 486 667 b 42 226 218 667 42 482 b 233 -19 42 46 131 -19 z m 301 88 b 214 239 246 88 214 119 b 404 608 214 419 288 608 b 496 479 468 608 496 550 b 458 257 496 414 474 315 b 301 88 429 151 376 88 z m 450 735 b 706 953 579 735 661 806 l 651 953 b 468 840 603 858 556 840 b 329 953 382 840 332 857 l 281 953 b 275 894 276 931 275 911 b 450 735 275 786 340 735 z "},"ằ":{"ha":786,"x_min":0,"x_max":0,"o":"m 233 -19 b 438 106 317 -19 376 25 l 447 106 b 443 63 446 90 443 76 b 539 -15 443 4 476 -15 b 761 126 663 -15 719 64 l 722 157 b 632 92 701 129 672 92 b 600 126 606 92 600 107 b 607 176 600 147 607 176 l 707 657 l 610 657 l 557 592 l 549 592 b 404 667 519 631 486 667 b 42 226 218 667 42 482 b 233 -19 42 46 131 -19 z m 301 88 b 214 239 246 88 214 119 b 404 608 214 419 288 608 b 496 479 468 608 496 550 b 458 257 496 414 474 315 b 301 88 429 151 376 88 z m 447 721 b 703 939 576 721 658 792 l 649 939 b 464 821 600 844 551 821 b 326 939 379 821 329 843 l 278 939 b 272 881 274 917 272 897 b 447 721 272 772 338 721 z m 540 867 l 496 1074 l 367 1074 l 358 1038 l 485 867 z "},"ắ":{"ha":786,"x_min":0,"x_max":0,"o":"m 233 -19 b 438 106 317 -19 376 25 l 447 106 b 443 63 446 90 443 76 b 539 -15 443 4 476 -15 b 761 126 663 -15 719 64 l 722 157 b 632 92 701 129 672 92 b 600 126 606 92 600 107 b 607 176 600 147 607 176 l 707 657 l 610 657 l 557 592 l 549 592 b 404 667 519 631 486 667 b 42 226 218 667 42 482 b 233 -19 42 46 131 -19 z m 301 88 b 214 239 246 88 214 119 b 404 608 214 419 288 608 b 496 479 468 608 496 550 b 458 257 496 414 474 315 b 301 88 429 151 376 88 z m 447 721 b 703 939 576 721 658 792 l 649 939 b 464 821 600 844 551 821 b 326 939 379 821 329 843 l 278 939 b 272 881 274 917 272 897 b 447 721 272 772 338 721 z m 464 867 l 629 1038 l 636 1074 l 496 1074 l 410 867 z "},"ẵ":{"ha":786,"x_min":0,"x_max":0,"o":"m 233 -19 b 438 106 317 -19 376 25 l 447 106 b 443 63 446 90 443 76 b 539 -15 443 4 476 -15 b 761 126 663 -15 719 64 l 722 157 b 632 92 701 129 672 92 b 600 126 606 92 600 107 b 607 176 600 147 607 176 l 707 657 l 610 657 l 557 592 l 549 592 b 404 667 519 631 486 667 b 42 226 218 667 42 482 b 233 -19 42 46 131 -19 z m 301 88 b 214 239 246 88 214 119 b 404 608 214 419 288 608 b 496 479 468 608 496 550 b 458 257 496 414 474 315 b 301 88 429 151 376 88 z m 447 721 b 703 939 576 721 658 792 l 649 939 b 464 821 600 844 551 821 b 326 939 379 821 329 843 l 278 939 b 272 881 274 917 272 897 b 447 721 272 772 338 721 z m 331 978 b 419 1036 350 1019 382 1036 b 588 982 489 1036 510 982 b 763 1135 664 982 721 1032 l 717 1135 b 624 1075 692 1089 658 1075 b 458 1129 558 1075 531 1129 b 282 978 385 1129 317 1069 z "},"ẳ":{"ha":786,"x_min":0,"x_max":0,"o":"m 233 -19 b 438 106 317 -19 376 25 l 447 106 b 443 63 446 90 443 76 b 539 -15 443 4 476 -15 b 761 126 663 -15 719 64 l 722 157 b 632 92 701 129 672 92 b 600 126 606 92 600 107 b 607 176 600 147 607 176 l 707 657 l 610 657 l 557 592 l 549 592 b 404 667 519 631 486 667 b 42 226 218 667 42 482 b 233 -19 42 46 131 -19 z m 301 88 b 214 239 246 88 214 119 b 404 608 214 419 288 608 b 496 479 468 608 496 550 b 458 257 496 414 474 315 b 301 88 429 151 376 88 z m 447 721 b 703 939 576 721 658 792 l 649 939 b 464 821 600 844 551 821 b 326 939 379 821 329 843 l 278 939 b 272 881 274 917 272 897 b 447 721 272 772 338 721 z m 488 867 l 497 911 b 649 1044 546 918 649 951 b 522 1146 649 1106 603 1146 b 381 1064 453 1146 381 1115 b 415 1028 381 1044 392 1028 b 515 1094 464 1028 458 1094 b 546 1050 533 1094 546 1089 b 436 940 546 975 499 942 l 419 867 z "},"ặ":{"ha":786,"x_min":0,"x_max":0,"o":"m 233 -19 b 438 106 317 -19 376 25 l 447 106 b 443 63 446 90 443 76 b 539 -15 443 4 476 -15 b 761 126 663 -15 719 64 l 722 157 b 632 92 701 129 672 92 b 600 126 606 92 600 107 b 607 176 600 147 607 176 l 707 657 l 610 657 l 557 592 l 549 592 b 404 667 519 631 486 667 b 42 226 218 667 42 482 b 233 -19 42 46 131 -19 z m 301 88 b 214 239 246 88 214 119 b 404 608 214 419 288 608 b 496 479 468 608 496 550 b 458 257 496 414 474 315 b 301 88 429 151 376 88 z m 450 735 b 706 953 579 735 661 806 l 651 953 b 468 840 603 858 556 840 b 329 953 382 840 332 857 l 281 953 b 275 894 276 931 275 911 b 450 735 275 786 340 735 z m 272 -285 b 371 -187 335 -285 371 -247 b 274 -92 371 -131 338 -92 b 175 -189 213 -92 175 -131 b 272 -285 175 -247 213 -285 z "},"å":{"ha":786,"x_min":0,"x_max":0,"o":"m 233 -19 b 438 106 317 -19 376 25 l 447 106 b 443 63 446 90 443 76 b 539 -15 443 4 476 -15 b 761 126 663 -15 719 64 l 722 157 b 632 92 701 129 672 92 b 600 126 606 92 600 107 b 607 176 600 147 607 176 l 707 657 l 610 657 l 557 592 l 549 592 b 404 667 519 631 486 667 b 42 226 218 667 42 482 b 233 -19 42 46 131 -19 z m 301 88 b 214 239 246 88 214 119 b 404 608 214 419 288 608 b 496 479 468 608 496 550 b 458 257 496 414 474 315 b 301 88 429 151 376 88 z m 453 731 b 631 892 551 731 631 794 b 500 1017 631 971 579 1017 b 322 849 401 1017 322 946 b 453 731 322 769 378 731 z m 461 794 b 400 856 418 794 400 818 b 492 953 400 907 435 953 b 550 892 532 953 550 931 b 461 794 550 842 521 794 z "},"ǻ":{"ha":786,"x_min":0,"x_max":0,"o":"m 233 -19 b 438 106 317 -19 376 25 l 447 106 b 443 63 446 90 443 76 b 539 -15 443 4 476 -15 b 761 126 663 -15 719 64 l 722 157 b 632 92 701 129 672 92 b 600 126 606 92 600 107 b 607 176 600 147 607 176 l 707 657 l 610 657 l 557 592 l 549 592 b 404 667 519 631 486 667 b 42 226 218 667 42 482 b 233 -19 42 46 131 -19 z m 301 88 b 214 239 246 88 214 119 b 404 608 214 419 288 608 b 496 479 468 608 496 550 b 458 257 496 414 474 315 b 301 88 429 151 376 88 z m 451 717 b 629 878 549 717 629 781 b 499 1003 629 957 578 1003 b 321 835 400 1003 321 932 b 451 717 321 756 376 717 z m 456 1038 l 672 1182 l 681 1221 l 525 1221 l 375 1038 z m 458 781 b 399 842 415 781 399 804 b 490 939 399 893 433 939 b 549 878 531 939 549 917 b 458 781 549 828 518 781 z "},"ả":{"ha":786,"x_min":0,"x_max":0,"o":"m 233 -19 b 438 106 317 -19 376 25 l 447 106 b 443 63 446 90 443 76 b 539 -15 443 4 476 -15 b 761 126 663 -15 719 64 l 722 157 b 632 92 701 129 672 92 b 600 126 606 92 600 107 b 607 176 600 147 607 176 l 707 657 l 610 657 l 557 592 l 549 592 b 404 667 519 631 486 667 b 42 226 218 667 42 482 b 233 -19 42 46 131 -19 z m 301 88 b 214 239 246 88 214 119 b 404 608 214 419 288 608 b 496 479 468 608 496 550 b 458 257 496 414 474 315 b 301 88 429 151 376 88 z m 476 724 l 486 771 b 639 915 539 781 639 817 b 508 1022 639 979 593 1022 b 361 938 436 1022 361 993 b 396 901 361 917 372 901 b 500 969 447 901 442 969 b 532 926 526 969 532 956 b 417 803 532 831 476 803 l 400 724 z "},"ẚ":{"ha":786,"x_min":0,"x_max":0,"o":"m 233 -19 b 438 106 317 -19 376 25 l 447 106 b 443 63 446 90 443 76 b 539 -15 443 4 476 -15 b 761 126 663 -15 719 64 l 722 157 b 632 92 701 129 672 92 b 600 126 606 92 600 107 b 607 176 600 147 607 176 l 707 657 l 610 657 l 557 592 l 549 592 b 404 667 519 631 486 667 b 42 226 218 667 42 482 b 233 -19 42 46 131 -19 z m 301 88 b 214 239 246 88 214 119 b 404 608 214 419 288 608 b 496 479 468 608 496 550 b 458 257 496 414 474 315 b 301 88 429 151 376 88 z m 419 735 b 607 899 522 735 607 790 b 478 1022 607 981 553 1022 l 435 1022 l 418 946 l 460 946 b 522 892 501 946 522 926 b 431 810 522 843 486 810 l 389 810 l 372 735 z "},"ḁ":{"ha":786,"x_min":0,"x_max":0,"o":"m 233 -19 b 438 106 317 -19 376 25 l 447 106 b 443 63 446 90 443 76 b 539 -15 443 4 476 -15 b 761 126 663 -15 719 64 l 722 157 b 632 92 701 129 672 92 b 600 126 606 92 600 107 b 607 176 600 147 607 176 l 707 657 l 610 657 l 557 592 l 549 592 b 404 667 519 631 486 667 b 42 226 218 667 42 482 b 233 -19 42 46 131 -19 z m 301 88 b 214 239 246 88 214 119 b 404 608 214 419 288 608 b 496 479 468 608 496 550 b 458 257 496 414 474 315 b 301 88 429 151 376 88 z m 246 -356 b 422 -194 343 -356 422 -293 b 293 -71 422 -117 372 -71 b 114 -237 194 -71 114 -140 b 246 -356 114 -318 169 -356 z m 253 -292 b 193 -231 210 -292 193 -268 b 283 -133 193 -179 226 -133 b 343 -196 325 -133 343 -156 b 253 -292 343 -244 313 -292 z "},"ạ":{"ha":786,"x_min":0,"x_max":0,"o":"m 233 -19 b 438 106 317 -19 376 25 l 447 106 b 443 63 446 90 443 76 b 539 -15 443 4 476 -15 b 761 126 663 -15 719 64 l 722 157 b 632 92 701 129 672 92 b 600 126 606 92 600 107 b 607 176 600 147 607 176 l 707 657 l 610 657 l 557 592 l 549 592 b 404 667 519 631 486 667 b 42 226 218 667 42 482 b 233 -19 42 46 131 -19 z m 301 88 b 214 239 246 88 214 119 b 404 608 214 419 288 608 b 496 479 468 608 496 550 b 458 257 496 414 474 315 b 301 88 429 151 376 88 z m 272 -285 b 371 -187 335 -285 371 -247 b 274 -92 371 -131 338 -92 b 175 -189 213 -92 175 -131 b 272 -285 175 -247 213 -285 z "},"ą":{"ha":785,"x_min":0,"x_max":0,"o":"m 513 -304 b 710 -212 594 -304 649 -267 l 686 -179 b 568 -222 642 -210 621 -222 b 506 -157 529 -222 506 -199 b 638 6 506 -69 575 -35 b 761 126 696 32 733 85 l 722 157 b 631 92 701 129 671 92 b 600 126 606 92 600 108 b 607 176 600 147 607 176 l 707 657 l 608 657 l 556 592 l 549 592 b 407 667 524 626 486 667 b 42 201 215 667 42 488 b 211 -18 42 50 115 -18 b 436 106 310 -18 371 19 l 447 106 b 443 61 444 89 443 76 b 521 -12 443 10 468 -8 l 521 -18 b 388 -199 460 -57 388 -110 b 513 -304 388 -261 433 -304 z m 303 88 b 217 233 250 88 217 121 b 401 608 217 421 286 608 b 497 478 468 608 497 543 b 458 257 497 432 471 310 b 303 88 436 160 375 88 z "},"æ":{"ha":1011,"x_min":0,"x_max":0,"o":"m 211 -18 b 458 156 340 -18 410 63 l 465 156 b 646 -18 469 61 518 -18 b 963 157 763 -18 874 14 l 928 185 b 739 89 875 118 815 89 b 601 256 661 89 601 128 b 603 272 601 261 603 267 b 997 542 757 286 997 344 b 839 665 997 638 915 665 b 603 538 749 665 683 636 l 589 538 l 614 622 l 600 644 b 457 664 563 658 511 664 b 42 196 199 664 42 474 b 211 -18 42 47 111 -18 z m 293 88 b 215 235 246 88 215 113 b 378 586 215 433 279 586 b 490 536 444 586 492 542 b 435 265 476 439 449 321 b 293 88 410 167 357 88 z m 607 324 b 778 604 626 468 703 604 b 828 524 808 604 828 581 b 607 324 828 411 729 333 z "},"ǽ":{"ha":1011,"x_min":0,"x_max":0,"o":"m 211 -18 b 458 156 340 -18 410 63 l 465 156 b 646 -18 469 61 518 -18 b 963 157 763 -18 874 14 l 928 185 b 739 89 875 118 815 89 b 601 256 661 89 601 128 b 603 272 601 261 603 267 b 997 542 757 286 997 344 b 839 665 997 638 915 665 b 603 538 749 665 683 636 l 589 538 l 614 622 l 600 644 b 457 664 563 658 511 664 b 42 196 199 664 42 474 b 211 -18 42 47 111 -18 z m 293 88 b 215 235 246 88 215 113 b 378 586 215 433 279 586 b 490 536 444 586 492 542 b 435 265 476 439 449 321 b 293 88 410 167 357 88 z m 607 324 b 778 604 626 468 703 604 b 828 524 808 604 828 581 b 607 324 828 411 729 333 z m 629 724 l 797 907 l 806 944 l 656 944 l 568 724 z "},"ḃ":{"ha":743,"x_min":0,"x_max":0,"o":"m 285 -18 b 701 422 550 -18 701 168 b 504 667 701 589 614 667 b 318 571 429 667 385 638 l 310 571 l 392 979 l 329 979 l 117 965 l 117 915 b 160 917 117 915 144 917 b 210 878 188 917 210 908 b 204 829 210 861 206 835 l 46 33 b 285 -18 121 -1 197 -18 z m 325 57 b 221 101 281 57 239 85 l 286 438 b 439 578 310 499 365 578 b 526 421 486 578 526 542 b 325 57 526 214 458 57 z m 531 1021 b 629 1117 592 1021 629 1057 b 532 1213 629 1175 596 1213 b 435 1115 471 1213 435 1175 b 531 1021 435 1057 472 1021 z "},"ḇ":{"ha":743,"x_min":0,"x_max":0,"o":"m 285 -18 b 701 422 550 -18 701 168 b 504 667 701 589 614 667 b 318 571 429 667 385 638 l 310 571 l 392 979 l 329 979 l 117 965 l 117 915 b 160 917 117 915 144 917 b 210 878 188 917 210 908 b 204 829 210 861 206 835 l 46 33 b 285 -18 121 -1 197 -18 z m 325 57 b 221 101 281 57 239 85 l 286 438 b 439 578 310 499 365 578 b 526 421 486 578 526 542 b 325 57 526 214 458 57 z m 457 -204 l 476 -111 l 74 -111 l 54 -204 z "},"ḅ":{"ha":743,"x_min":0,"x_max":0,"o":"m 285 -18 b 701 422 550 -18 701 168 b 504 667 701 589 614 667 b 318 571 429 667 385 638 l 310 571 l 392 979 l 329 979 l 117 965 l 117 915 b 160 917 117 915 144 917 b 210 878 188 917 210 908 b 204 829 210 861 206 835 l 46 33 b 285 -18 121 -1 197 -18 z m 325 57 b 221 101 281 57 239 85 l 286 438 b 439 578 310 499 365 578 b 526 421 486 578 526 542 b 325 57 526 214 458 57 z m 257 -285 b 357 -187 319 -285 357 -247 b 258 -92 357 -131 322 -92 b 161 -189 197 -92 161 -131 b 257 -285 161 -247 199 -285 z "},"ɓ":{"ha":743,"x_min":0,"x_max":0,"o":"m 285 -18 b 701 422 550 -18 701 168 b 504 667 701 589 614 667 b 318 571 429 667 385 638 l 310 571 l 351 785 b 464 928 371 889 410 928 b 613 813 549 928 533 813 b 688 886 649 813 688 833 b 528 989 688 964 615 989 b 172 672 336 989 208 856 l 46 33 b 285 -18 121 -1 197 -18 z m 285 435 b 439 578 308 496 364 578 b 526 421 486 578 526 542 b 324 57 526 214 457 57 b 221 101 281 57 239 85 z "},"ć":{"ha":604,"x_min":0,"x_max":0,"o":"m 272 -19 b 557 151 413 -19 499 60 l 524 178 b 342 88 483 126 426 88 b 211 268 254 88 211 128 b 407 611 211 435 274 611 b 467 574 449 611 467 593 b 443 485 467 551 443 522 b 510 424 443 444 469 424 b 604 532 574 424 604 476 b 426 667 604 622 528 667 b 43 233 213 667 43 471 b 272 -19 43 89 108 -19 z m 413 724 l 581 907 l 588 944 l 438 944 l 350 724 z "},"ĉ":{"ha":604,"x_min":0,"x_max":0,"o":"m 272 -19 b 557 151 413 -19 499 60 l 524 178 b 342 88 483 126 426 88 b 211 268 254 88 211 128 b 407 611 211 435 274 611 b 467 574 449 611 467 593 b 443 485 467 551 443 522 b 510 424 443 444 469 424 b 604 532 574 424 604 476 b 426 667 604 622 528 667 b 43 233 213 667 43 471 b 272 -19 43 89 108 -19 z m 296 724 l 457 854 l 568 724 l 636 724 l 533 944 l 418 944 l 224 724 z "},"č":{"ha":604,"x_min":0,"x_max":0,"o":"m 272 -19 b 557 151 413 -19 499 60 l 524 178 b 342 88 483 126 426 88 b 211 268 254 88 211 128 b 407 611 211 435 274 611 b 467 574 449 611 467 593 b 443 485 467 551 443 522 b 510 424 443 444 469 424 b 604 532 574 424 604 476 b 426 667 604 622 528 667 b 43 233 213 667 43 471 b 272 -19 43 89 108 -19 z m 488 725 l 682 947 l 608 947 l 449 817 l 338 947 l 269 947 l 372 725 z "},"ċ":{"ha":604,"x_min":0,"x_max":0,"o":"m 272 -19 b 557 151 413 -19 499 60 l 524 178 b 342 88 483 126 426 88 b 211 268 254 88 211 128 b 407 611 211 435 274 611 b 467 574 449 611 467 593 b 443 485 467 551 443 522 b 510 424 443 444 469 424 b 604 532 574 424 604 476 b 426 667 604 622 528 667 b 43 233 213 667 43 471 b 272 -19 43 89 108 -19 z m 456 760 b 554 857 517 760 554 797 b 457 953 554 914 519 953 b 358 856 394 953 358 915 b 456 760 358 797 396 760 z "},"ç":{"ha":604,"x_min":0,"x_max":0,"o":"m 196 -304 b 363 -171 279 -304 363 -257 b 253 -72 363 -107 315 -72 b 219 -75 238 -72 224 -75 l 246 -18 b 272 -19 254 -18 264 -19 b 557 151 413 -19 499 60 l 524 178 b 342 88 483 126 426 88 b 211 268 254 88 211 128 b 407 611 211 435 274 611 b 467 574 449 611 467 593 b 443 485 467 551 443 522 b 510 424 443 444 469 424 b 604 532 574 424 604 476 b 426 667 604 622 528 667 b 43 233 213 667 43 471 b 199 -10 43 113 89 18 l 150 -115 l 167 -135 b 208 -131 167 -135 190 -131 b 263 -179 243 -131 263 -146 b 183 -243 263 -222 228 -243 b 93 -215 150 -243 115 -231 l 65 -253 b 196 -304 100 -286 146 -304 z "},"ḉ":{"ha":604,"x_min":0,"x_max":0,"o":"m 196 -304 b 363 -171 279 -304 363 -257 b 253 -72 363 -107 315 -72 b 219 -75 238 -72 224 -75 l 246 -18 b 272 -19 254 -18 264 -19 b 557 151 413 -19 499 60 l 524 178 b 342 88 483 126 426 88 b 211 268 254 88 211 128 b 407 611 211 435 274 611 b 467 574 449 611 467 593 b 443 485 467 551 443 522 b 510 424 443 444 469 424 b 604 532 574 424 604 476 b 426 667 604 622 528 667 b 43 233 213 667 43 471 b 199 -10 43 113 89 18 l 150 -115 l 167 -135 b 208 -131 167 -135 190 -131 b 263 -179 243 -131 263 -146 b 183 -243 263 -222 228 -243 b 93 -215 150 -243 115 -231 l 65 -253 b 196 -304 100 -286 146 -304 z m 413 724 l 581 907 l 588 944 l 438 944 l 350 724 z "},"ƈ":{"ha":604,"x_min":0,"x_max":0,"o":"m 272 -19 b 557 151 413 -19 499 60 l 524 178 b 342 88 483 126 426 88 b 211 268 254 88 211 128 b 407 611 211 435 274 611 b 467 574 449 611 467 593 b 443 485 467 551 443 522 b 510 424 443 444 469 424 b 604 532 574 424 604 476 b 514 651 604 592 567 632 b 649 864 551 804 593 864 b 742 772 700 864 674 772 b 810 842 778 772 810 792 b 701 924 810 892 769 924 b 454 665 551 924 488 801 b 426 667 444 667 435 667 b 43 233 213 667 43 471 b 272 -19 43 89 108 -19 z "},"ď":{"ha":950,"x_min":0,"x_max":0,"o":"m 236 -18 b 440 106 319 -18 378 24 l 451 106 b 449 67 450 93 449 79 b 546 -15 449 17 478 -15 b 767 128 668 -15 721 63 l 729 156 b 632 88 710 129 672 88 b 600 115 615 88 600 94 b 607 169 600 131 607 169 l 765 979 l 714 979 l 490 964 l 490 915 b 533 918 490 915 517 918 b 582 875 575 918 582 899 b 578 831 582 856 578 831 l 536 617 l 531 617 b 397 667 497 649 456 667 b 44 229 208 667 44 476 b 236 -18 44 56 124 -18 z m 301 88 b 217 242 251 88 217 118 b 401 608 217 414 285 608 b 500 483 467 608 500 547 b 458 239 500 440 485 347 b 301 88 439 157 379 88 z m 860 686 b 996 931 914 757 976 854 l 1001 971 l 864 971 l 807 697 z "},"ḋ":{"ha":781,"x_min":0,"x_max":0,"o":"m 236 -18 b 440 106 319 -18 378 24 l 451 106 b 449 67 450 93 449 79 b 546 -15 449 17 478 -15 b 767 128 668 -15 721 63 l 729 156 b 632 88 710 129 672 88 b 600 115 615 88 600 94 b 607 169 600 131 607 169 l 765 979 l 714 979 l 490 964 l 490 915 b 533 918 490 915 517 918 b 582 875 575 918 582 899 b 578 831 582 856 578 831 l 536 617 l 531 617 b 397 667 497 649 456 667 b 44 229 208 667 44 476 b 236 -18 44 56 124 -18 z m 301 88 b 217 242 251 88 217 118 b 401 608 217 414 285 608 b 500 483 467 608 500 547 b 458 239 500 440 485 347 b 301 88 439 157 379 88 z m 517 1021 b 615 1117 578 1021 615 1057 b 518 1213 615 1175 581 1213 b 421 1115 457 1213 421 1175 b 517 1021 421 1057 457 1021 z "},"ḓ":{"ha":781,"x_min":0,"x_max":0,"o":"m 236 -18 b 440 106 319 -18 378 24 l 451 106 b 449 67 450 93 449 79 b 546 -15 449 17 478 -15 b 767 128 668 -15 721 63 l 729 156 b 632 88 710 129 672 88 b 600 115 615 88 600 94 b 607 169 600 131 607 169 l 765 979 l 714 979 l 490 964 l 490 915 b 533 918 490 915 517 918 b 582 875 575 918 582 899 b 578 831 582 856 578 831 l 536 617 l 531 617 b 397 667 497 649 456 667 b 44 229 208 667 44 476 b 236 -18 44 56 124 -18 z m 301 88 b 217 242 251 88 217 118 b 401 608 217 414 285 608 b 500 483 467 608 500 547 b 458 239 500 440 485 347 b 301 88 439 157 379 88 z m 122 -282 l 282 -157 l 393 -282 l 461 -282 l 357 -69 l 242 -69 l 49 -282 z "},"ḏ":{"ha":781,"x_min":0,"x_max":0,"o":"m 236 -18 b 440 106 319 -18 378 24 l 451 106 b 449 67 450 93 449 79 b 546 -15 449 17 478 -15 b 767 128 668 -15 721 63 l 729 156 b 632 88 710 129 672 88 b 600 115 615 88 600 94 b 607 169 600 131 607 169 l 765 979 l 714 979 l 490 964 l 490 915 b 533 918 490 915 517 918 b 582 875 575 918 582 899 b 578 831 582 856 578 831 l 536 617 l 531 617 b 397 667 497 649 456 667 b 44 229 208 667 44 476 b 236 -18 44 56 124 -18 z m 301 88 b 217 242 251 88 217 118 b 401 608 217 414 285 608 b 500 483 467 608 500 547 b 458 239 500 440 485 347 b 301 88 439 157 379 88 z m 474 -204 l 493 -111 l 90 -111 l 71 -204 z "},"ḍ":{"ha":781,"x_min":0,"x_max":0,"o":"m 236 -18 b 440 106 319 -18 378 24 l 451 106 b 449 67 450 93 449 79 b 546 -15 449 17 478 -15 b 767 128 668 -15 721 63 l 729 156 b 632 88 710 129 672 88 b 600 115 615 88 600 94 b 607 169 600 131 607 169 l 765 979 l 714 979 l 490 964 l 490 915 b 533 918 490 915 517 918 b 582 875 575 918 582 899 b 578 831 582 856 578 831 l 536 617 l 531 617 b 397 667 497 649 456 667 b 44 229 208 667 44 476 b 236 -18 44 56 124 -18 z m 301 88 b 217 242 251 88 217 118 b 401 608 217 414 285 608 b 500 483 467 608 500 547 b 458 239 500 440 485 347 b 301 88 439 157 379 88 z m 274 -285 b 372 -187 335 -285 372 -247 b 275 -92 372 -131 338 -92 b 176 -189 213 -92 176 -131 b 274 -285 176 -247 214 -285 z "},"ḑ":{"ha":781,"x_min":0,"x_max":0,"o":"m 236 -18 b 440 106 319 -18 378 24 l 451 106 b 449 67 450 93 449 79 b 546 -15 449 17 478 -15 b 767 128 668 -15 721 63 l 729 156 b 632 88 710 129 672 88 b 600 115 615 88 600 94 b 607 169 600 131 607 169 l 765 979 l 714 979 l 490 964 l 490 915 b 533 918 490 915 517 918 b 582 875 575 918 582 899 b 578 831 582 856 578 831 l 536 617 l 531 617 b 397 667 497 649 456 667 b 44 229 208 667 44 476 b 236 -18 44 56 124 -18 z m 301 88 b 217 242 251 88 217 118 b 401 608 217 414 285 608 b 500 483 467 608 500 547 b 458 239 500 440 485 347 b 301 88 439 157 379 88 z m 158 -407 b 392 -179 258 -383 392 -312 b 289 -61 392 -108 356 -61 b 192 -154 222 -61 192 -108 b 269 -231 192 -201 226 -231 b 297 -225 279 -231 288 -228 b 146 -365 282 -311 204 -346 z "},"đ":{"ha":781,"x_min":0,"x_max":0,"o":"m 236 -18 b 440 106 319 -18 378 22 l 451 106 b 449 67 450 93 449 79 b 546 -15 449 10 478 -15 b 767 128 668 -15 721 63 l 729 156 b 632 88 710 129 672 88 b 600 115 615 88 600 94 b 607 169 600 131 607 169 l 717 740 l 811 740 l 825 807 l 729 807 l 763 979 l 711 979 l 489 964 l 489 915 b 532 918 489 915 515 918 b 581 875 574 918 581 899 b 576 831 581 856 576 831 l 571 807 l 349 807 l 335 740 l 558 740 l 533 611 l 528 611 b 396 661 494 643 454 661 b 43 229 208 661 43 478 b 236 -18 43 57 124 -18 z m 301 88 b 217 242 251 88 217 118 b 401 603 217 414 283 603 b 500 478 467 603 500 542 b 458 239 500 436 485 347 b 301 88 439 157 379 88 z "},"ɗ":{"ha":781,"x_min":0,"x_max":0,"o":"m 236 -18 b 440 106 314 -18 374 18 l 451 106 b 449 67 450 93 449 79 b 546 -15 449 15 478 -15 b 767 128 668 -15 721 63 l 729 156 b 632 88 710 129 672 88 b 600 115 615 88 600 94 b 607 169 600 131 607 169 l 728 788 b 832 926 743 872 774 926 b 979 817 915 926 899 817 b 1053 890 1014 817 1053 839 b 893 989 1053 958 983 989 b 546 669 690 989 582 833 l 535 619 l 528 619 b 396 667 500 649 456 667 b 43 229 206 667 43 471 b 236 -18 43 74 111 -18 z m 301 88 b 217 242 251 88 217 118 b 401 608 217 414 285 608 b 500 483 467 608 500 547 b 458 239 500 440 485 347 b 301 88 439 157 379 88 z "},"ɖ":{"ha":779,"x_min":0,"x_max":0,"o":"m 642 -317 b 844 -199 753 -317 844 -279 b 785 -139 844 -154 813 -139 b 621 -254 703 -139 706 -254 b 557 -162 583 -254 557 -232 b 572 -40 557 -132 563 -90 l 765 979 l 714 979 l 492 964 l 492 915 b 533 918 492 915 517 918 b 582 875 575 918 582 899 b 578 831 582 856 578 831 l 538 617 l 531 617 b 397 667 497 649 456 667 b 44 229 207 667 44 475 b 238 -18 44 44 136 -18 b 440 106 321 -18 381 25 l 453 106 l 450 82 b 419 -108 431 10 419 -51 b 642 -317 419 -243 482 -317 z m 303 88 b 218 242 251 88 218 118 b 403 608 218 414 285 608 b 501 483 468 608 501 547 b 458 239 501 440 486 347 b 303 88 439 157 381 88 z "},"è":{"ha":618,"x_min":0,"x_max":0,"o":"m 276 -19 b 568 157 382 -19 486 25 l 533 185 b 347 89 479 118 419 89 b 208 254 264 89 208 126 b 208 272 208 261 208 267 b 607 533 368 286 607 354 b 436 668 607 647 510 668 b 40 233 192 668 40 446 b 276 -19 40 96 104 -19 z m 214 322 b 390 607 232 461 306 607 b 439 538 426 607 439 582 b 214 322 439 415 340 333 z m 501 724 l 456 944 l 317 944 l 308 907 l 442 724 z "},"é":{"ha":618,"x_min":0,"x_max":0,"o":"m 276 -19 b 568 157 382 -19 486 25 l 533 185 b 347 89 479 118 419 89 b 208 254 264 89 208 126 b 208 272 208 261 208 267 b 607 533 368 286 607 354 b 436 668 607 647 510 668 b 40 233 192 668 40 446 b 276 -19 40 96 104 -19 z m 214 322 b 390 607 232 461 306 607 b 439 538 426 607 439 582 b 214 322 439 415 340 333 z m 407 724 l 575 907 l 582 944 l 432 944 l 344 724 z "},"ê":{"ha":618,"x_min":0,"x_max":0,"o":"m 276 -19 b 568 157 382 -19 486 25 l 533 185 b 347 89 479 118 419 89 b 208 254 264 89 208 126 b 208 272 208 261 208 267 b 607 533 368 286 607 354 b 436 668 607 647 510 668 b 40 233 192 668 40 446 b 276 -19 40 96 104 -19 z m 290 724 l 451 854 l 563 724 l 631 724 l 528 944 l 413 944 l 218 724 z m 214 322 b 390 607 232 461 306 607 b 439 538 426 607 439 582 b 214 322 439 415 340 333 z "},"ề":{"ha":618,"x_min":0,"x_max":0,"o":"m 276 -19 b 568 157 382 -19 486 25 l 533 185 b 347 89 479 118 419 89 b 208 254 264 89 208 126 b 208 272 208 261 208 267 b 607 533 368 286 607 354 b 436 668 607 647 510 668 b 40 233 192 668 40 446 b 276 -19 40 96 104 -19 z m 214 322 b 390 607 232 461 306 607 b 439 538 426 607 439 582 b 214 322 439 415 340 333 z m 290 724 l 449 842 l 563 724 l 631 724 l 522 931 l 411 931 l 218 724 z m 719 849 l 675 1056 l 547 1056 l 539 1018 l 664 849 z "},"ế":{"ha":618,"x_min":0,"x_max":0,"o":"m 276 -19 b 568 157 382 -19 486 25 l 533 185 b 347 89 479 118 419 89 b 208 254 264 89 208 126 b 208 272 208 261 208 267 b 607 533 368 286 607 354 b 436 668 607 647 510 668 b 40 233 192 668 40 446 b 276 -19 40 96 104 -19 z m 214 322 b 390 607 232 461 306 607 b 439 538 426 607 439 582 b 214 322 439 415 340 333 z m 290 724 l 449 842 l 563 724 l 631 724 l 522 931 l 411 931 l 218 724 z m 642 849 l 807 1018 l 814 1056 l 674 1056 l 588 849 z "},"ễ":{"ha":618,"x_min":0,"x_max":0,"o":"m 276 -19 b 568 157 382 -19 486 25 l 533 185 b 347 89 479 118 419 89 b 208 254 264 89 208 126 b 208 272 208 261 208 267 b 607 533 368 286 607 354 b 436 668 607 647 510 668 b 40 233 192 668 40 446 b 276 -19 40 96 104 -19 z m 306 968 b 396 1026 326 1010 358 1026 b 564 972 464 1026 485 972 b 739 1125 640 972 697 1022 l 692 1125 b 600 1065 668 1081 635 1065 b 433 1119 533 1065 507 1119 b 258 968 360 1119 293 1060 z m 214 322 b 390 607 232 461 306 607 b 439 538 426 607 439 582 b 214 322 439 415 340 333 z m 290 724 l 449 842 l 563 724 l 631 724 l 522 931 l 411 931 l 218 724 z "},"ể":{"ha":618,"x_min":0,"x_max":0,"o":"m 276 -19 b 568 157 382 -19 486 25 l 533 185 b 347 89 479 118 419 89 b 208 254 264 89 208 126 b 208 272 208 261 208 267 b 607 533 368 286 607 354 b 436 668 607 647 510 668 b 40 233 192 668 40 446 b 276 -19 40 96 104 -19 z m 214 322 b 390 607 232 461 306 607 b 439 538 426 607 439 582 b 214 322 439 415 340 333 z m 290 724 l 449 842 l 563 724 l 631 724 l 522 931 l 411 931 l 218 724 z m 663 849 l 672 893 b 824 1026 721 900 824 933 b 697 1128 824 1088 778 1128 b 556 1046 628 1128 556 1097 b 590 1010 556 1026 567 1010 b 690 1076 639 1010 633 1076 b 721 1032 708 1076 721 1071 b 610 922 721 956 674 922 l 594 849 z "},"ệ":{"ha":618,"x_min":0,"x_max":0,"o":"m 276 -19 b 568 157 382 -19 486 25 l 533 185 b 347 89 479 118 419 89 b 208 254 264 89 208 126 b 208 272 208 261 208 267 b 607 533 368 286 607 354 b 436 668 607 647 510 668 b 40 233 192 668 40 446 b 276 -19 40 96 104 -19 z m 290 724 l 451 854 l 563 724 l 631 724 l 528 944 l 413 944 l 218 724 z m 214 322 b 390 607 232 461 306 607 b 439 538 426 607 439 582 b 214 322 439 415 340 333 z m 214 -285 b 314 -187 276 -285 314 -247 b 215 -92 314 -131 279 -92 b 118 -189 154 -92 118 -131 b 214 -285 118 -247 156 -285 z "},"ě":{"ha":618,"x_min":0,"x_max":0,"o":"m 276 -19 b 568 157 382 -19 486 25 l 533 185 b 347 89 479 118 419 89 b 208 254 264 89 208 126 b 208 272 208 261 208 267 b 607 533 368 286 607 354 b 436 668 607 647 510 668 b 40 233 192 668 40 446 b 276 -19 40 96 104 -19 z m 482 725 l 676 947 l 603 947 l 443 817 l 332 947 l 264 947 l 367 725 z m 214 322 b 390 607 232 461 306 607 b 439 538 426 607 439 582 b 214 322 439 415 340 333 z "},"ẽ":{"ha":618,"x_min":0,"x_max":0,"o":"m 276 -19 b 568 157 382 -19 486 25 l 533 185 b 347 89 479 118 419 89 b 208 254 264 89 208 126 b 208 272 208 261 208 267 b 607 533 368 286 607 354 b 436 668 607 647 510 668 b 40 233 192 668 40 446 b 276 -19 40 96 104 -19 z m 260 740 b 347 800 282 786 313 800 b 517 744 418 800 442 744 b 693 911 593 744 653 803 l 644 911 b 556 849 621 864 589 849 b 390 906 490 849 463 906 b 211 740 311 906 242 833 z m 214 322 b 390 607 232 461 306 607 b 439 538 426 607 439 582 b 214 322 439 415 340 333 z "},"ë":{"ha":618,"x_min":0,"x_max":0,"o":"m 276 -19 b 568 157 382 -19 486 25 l 533 185 b 347 89 479 118 419 89 b 208 254 264 89 208 126 b 208 272 208 261 208 267 b 607 533 368 286 607 354 b 436 668 607 647 510 668 b 40 233 192 668 40 446 b 276 -19 40 96 104 -19 z m 214 322 b 390 607 232 461 306 607 b 439 538 426 607 439 582 b 214 322 439 415 340 333 z m 300 760 b 394 853 360 760 394 796 b 301 943 394 907 363 943 b 208 851 243 943 208 907 b 300 760 208 794 244 760 z m 601 760 b 694 853 660 760 694 796 b 601 943 694 907 663 943 b 508 851 543 943 508 907 b 601 760 508 794 544 760 z "},"ē":{"ha":618,"x_min":0,"x_max":0,"o":"m 276 -19 b 568 157 382 -19 486 25 l 533 185 b 347 89 479 118 419 89 b 208 254 264 89 208 126 b 208 272 208 261 208 267 b 607 533 368 286 607 354 b 436 668 607 647 510 668 b 40 233 192 668 40 446 b 276 -19 40 96 104 -19 z m 214 322 b 390 607 232 461 306 607 b 439 538 426 607 439 582 b 214 322 439 415 340 333 z m 635 771 l 654 865 l 251 865 l 232 771 z "},"ḕ":{"ha":618,"x_min":0,"x_max":0,"o":"m 276 -19 b 568 157 382 -19 486 25 l 533 185 b 347 89 479 118 419 89 b 208 254 264 89 208 126 b 208 272 208 261 208 267 b 607 533 368 286 607 354 b 436 668 607 647 510 668 b 40 233 192 668 40 446 b 276 -19 40 96 104 -19 z m 214 322 b 390 607 232 461 306 607 b 439 538 426 607 439 582 b 214 322 439 415 340 333 z m 633 763 l 653 856 l 250 856 l 231 763 z m 540 918 l 494 1139 l 356 1139 l 347 1101 l 481 918 z "},"ḗ":{"ha":618,"x_min":0,"x_max":0,"o":"m 276 -19 b 568 157 382 -19 486 25 l 533 185 b 347 89 479 118 419 89 b 208 254 264 89 208 126 b 208 272 208 261 208 267 b 607 533 368 286 607 354 b 436 668 607 647 510 668 b 40 233 192 668 40 446 b 276 -19 40 96 104 -19 z m 214 322 b 390 607 232 461 306 607 b 439 538 426 607 439 582 b 214 322 439 415 340 333 z m 633 763 l 653 856 l 250 856 l 231 763 z m 446 918 l 614 1101 l 621 1139 l 471 1139 l 383 918 z "},"ĕ":{"ha":618,"x_min":0,"x_max":0,"o":"m 276 -19 b 568 157 382 -19 486 25 l 533 185 b 347 89 479 118 419 89 b 208 254 264 89 208 126 b 208 272 208 261 208 267 b 607 533 368 286 607 354 b 436 668 607 647 510 668 b 40 233 192 668 40 446 b 276 -19 40 96 104 -19 z m 429 735 b 685 953 558 735 640 806 l 631 953 b 447 840 582 858 535 840 b 308 953 361 840 311 857 l 260 953 b 254 894 256 931 254 911 b 429 735 254 786 319 735 z m 214 322 b 390 607 232 461 306 607 b 439 538 426 607 439 582 b 214 322 439 415 340 333 z "},"ė":{"ha":618,"x_min":0,"x_max":0,"o":"m 276 -19 b 568 157 382 -19 486 25 l 533 185 b 347 89 479 118 419 89 b 208 254 264 89 208 126 b 208 272 208 261 208 267 b 607 533 368 286 607 354 b 436 668 607 647 510 668 b 40 233 192 668 40 446 b 276 -19 40 96 104 -19 z m 214 322 b 390 607 232 461 306 607 b 439 538 426 607 439 582 b 214 322 439 415 340 333 z m 450 760 b 549 857 511 760 549 797 b 451 953 549 914 514 953 b 353 856 389 953 353 915 b 450 760 353 797 390 760 z "},"ẻ":{"ha":618,"x_min":0,"x_max":0,"o":"m 276 -19 b 568 157 382 -19 486 25 l 533 185 b 347 89 479 118 419 89 b 208 254 264 89 208 126 b 208 272 208 261 208 267 b 607 533 368 286 607 354 b 436 668 607 647 510 668 b 40 233 192 668 40 446 b 276 -19 40 96 104 -19 z m 456 724 l 465 771 b 618 915 518 781 618 817 b 488 1022 618 979 572 1022 b 340 938 415 1022 340 993 b 375 901 340 917 351 901 b 479 969 426 901 421 969 b 511 926 506 969 511 956 b 396 803 511 831 456 803 l 379 724 z m 214 322 b 390 607 232 461 306 607 b 439 538 426 607 439 582 b 214 322 439 415 340 333 z "},"ḙ":{"ha":618,"x_min":0,"x_max":0,"o":"m 276 -19 b 568 157 382 -19 486 25 l 533 185 b 347 89 479 118 419 89 b 208 254 264 89 208 126 b 208 272 208 261 208 267 b 607 533 368 286 607 354 b 436 668 607 647 510 668 b 40 233 192 668 40 446 b 276 -19 40 96 104 -19 z m 63 -282 l 222 -157 l 335 -282 l 403 -282 l 297 -69 l 182 -69 l -10 -282 z m 214 322 b 390 607 232 461 306 607 b 439 538 426 607 439 582 b 214 322 439 415 340 333 z "},"ḛ":{"ha":618,"x_min":0,"x_max":0,"o":"m 276 -19 b 568 157 382 -19 486 25 l 533 185 b 347 89 479 118 419 89 b 208 254 264 89 208 126 b 208 272 208 261 208 267 b 607 533 368 286 607 354 b 436 668 607 647 510 668 b 40 233 192 668 40 446 b 276 -19 40 96 104 -19 z m 25 -229 b 114 -169 47 -185 79 -169 b 282 -225 179 -169 203 -225 b 458 -65 358 -225 415 -172 l 411 -65 b 321 -126 388 -111 354 -126 b 156 -71 257 -126 228 -71 b -24 -229 78 -71 11 -139 z m 214 322 b 390 607 232 461 306 607 b 439 538 426 607 439 582 b 214 322 439 415 340 333 z "},"ẹ":{"ha":618,"x_min":0,"x_max":0,"o":"m 276 -19 b 568 157 382 -19 486 25 l 533 185 b 347 89 479 118 419 89 b 208 254 264 89 208 126 b 208 272 208 261 208 267 b 607 533 368 286 607 354 b 436 668 607 647 510 668 b 40 233 192 668 40 446 b 276 -19 40 96 104 -19 z m 214 322 b 390 607 232 461 306 607 b 439 538 426 607 439 582 b 214 322 439 415 340 333 z m 214 -285 b 314 -187 276 -285 314 -247 b 215 -92 314 -131 279 -92 b 118 -189 154 -92 118 -131 b 214 -285 118 -247 156 -285 z "},"ȩ":{"ha":618,"x_min":0,"x_max":0,"o":"m 276 -19 b 568 157 382 -19 486 25 l 533 185 b 347 89 479 118 419 89 b 208 254 264 89 208 126 b 208 272 208 261 208 267 b 607 533 368 286 607 354 b 436 668 607 647 510 668 b 40 233 192 668 40 446 b 204 -11 40 117 86 17 l 156 -115 l 174 -135 b 215 -131 174 -135 197 -131 b 269 -179 250 -131 269 -146 b 190 -243 269 -222 235 -243 b 100 -215 156 -243 122 -231 l 71 -253 b 201 -304 107 -286 153 -304 b 369 -171 285 -304 369 -257 b 260 -72 369 -107 322 -72 b 226 -75 244 -72 229 -75 l 251 -18 b 276 -19 260 -19 268 -19 z m 214 322 b 390 607 232 461 306 607 b 439 538 426 607 439 582 b 214 322 439 415 340 333 z "},"ḝ":{"ha":618,"x_min":0,"x_max":0,"o":"m 276 -19 b 568 157 382 -19 486 25 l 533 185 b 347 89 479 118 419 89 b 208 254 264 89 208 126 b 208 272 208 261 208 267 b 607 533 368 286 607 354 b 436 668 607 647 510 668 b 40 233 192 668 40 446 b 204 -11 40 117 86 17 l 156 -115 l 174 -135 b 215 -131 174 -135 197 -131 b 269 -179 250 -131 269 -146 b 190 -243 269 -222 235 -243 b 100 -215 156 -243 122 -231 l 71 -253 b 201 -304 107 -286 153 -304 b 369 -171 285 -304 369 -257 b 260 -72 369 -107 322 -72 b 226 -75 244 -72 229 -75 l 251 -18 b 276 -19 260 -19 268 -19 z m 429 735 b 685 953 558 735 640 806 l 631 953 b 447 840 582 858 535 840 b 308 953 361 840 311 857 l 260 953 b 254 894 256 931 254 911 b 429 735 254 786 319 735 z m 214 322 b 390 607 232 461 306 607 b 439 538 426 607 439 582 b 214 322 439 415 340 333 z "},"ę":{"ha":618,"x_min":0,"x_max":0,"o":"m 275 -304 b 467 -212 356 -304 408 -264 l 443 -179 b 332 -222 403 -207 374 -222 b 261 -156 285 -222 261 -203 b 394 4 261 -72 335 -35 b 568 157 457 28 515 74 l 533 185 b 347 89 479 118 419 89 b 208 254 264 89 208 126 b 208 272 208 261 208 267 b 607 533 368 286 607 354 b 435 668 607 649 507 668 b 40 233 192 668 40 447 b 267 -18 40 93 107 -18 b 272 -18 268 -18 269 -18 l 272 -24 b 144 -193 213 -62 144 -110 b 275 -304 144 -260 190 -304 z m 213 322 b 390 607 233 471 313 607 b 439 538 426 607 439 582 b 213 322 439 415 339 333 z "},"ḟ":{"ha":449,"x_min":0,"x_max":0,"o":"m -43 -317 b 272 114 183 -317 251 -25 l 344 579 l 485 579 l 494 650 l 356 650 l 371 750 b 476 938 389 865 425 938 b 518 864 506 938 511 901 b 588 796 526 829 542 796 b 663 868 629 796 663 821 b 496 989 663 950 589 989 b 251 858 351 989 290 925 b 190 650 222 807 204 733 l 69 650 l 60 579 l 179 579 l 97 58 b -22 -256 85 -18 51 -256 b -137 -119 -75 -256 -39 -119 b -207 -197 -183 -119 -207 -156 b -43 -317 -207 -275 -142 -317 z m 369 1021 b 468 1117 431 1021 468 1057 b 371 1213 468 1175 433 1213 b 274 1115 310 1213 274 1175 b 369 1021 274 1057 310 1021 z "},"ƒ":{"ha":449,"x_min":0,"x_max":0,"o":"m -43 -317 b 272 114 183 -317 251 -25 l 344 579 l 485 579 l 494 650 l 356 650 l 371 750 b 476 938 389 865 425 938 b 518 864 506 938 511 901 b 588 796 526 829 542 796 b 663 868 629 796 663 821 b 496 989 663 950 589 989 b 251 858 351 989 290 925 b 190 650 222 807 204 733 l 69 650 l 60 579 l 179 579 l 97 58 b -22 -256 85 -18 51 -256 b -137 -119 -75 -256 -39 -119 b -207 -197 -183 -119 -207 -156 b -43 -317 -207 -275 -142 -317 z "},"ĝ":{"ha":658,"x_min":0,"x_max":0,"o":"m 249 -317 b 590 -99 476 -317 590 -224 b 225 151 590 114 225 72 b 313 217 225 175 251 211 b 590 444 493 224 590 324 b 546 572 590 507 564 546 l 546 576 l 661 557 l 669 649 l 475 649 b 347 665 440 658 399 665 b 60 425 172 665 60 565 b 192 239 60 310 133 263 l 192 231 b 71 111 129 214 71 171 b 129 21 71 69 99 36 l 129 14 b -40 -150 21 -12 -40 -75 b 249 -317 -40 -242 35 -317 z m 174 -10 b 438 -151 306 -35 438 -65 b 267 -254 438 -208 379 -254 b 99 -133 146 -254 99 -194 b 174 -10 99 -78 135 -33 z m 308 271 b 218 425 243 271 218 322 b 335 614 218 546 264 614 b 429 461 396 614 429 560 b 308 271 429 371 401 271 z m 226 724 l 386 854 l 497 724 l 565 724 l 463 944 l 347 944 l 153 724 z "},"ḡ":{"ha":658,"x_min":0,"x_max":0,"o":"m 249 -317 b 590 -99 476 -317 590 -224 b 225 151 590 114 225 72 b 313 217 225 175 251 211 b 590 444 493 224 590 324 b 546 572 590 507 564 546 l 546 576 l 661 557 l 669 649 l 475 649 b 347 665 440 658 399 665 b 60 425 172 665 60 565 b 192 239 60 310 133 263 l 192 231 b 71 111 129 214 71 171 b 129 21 71 69 99 36 l 129 14 b -40 -150 21 -12 -40 -75 b 249 -317 -40 -242 35 -317 z m 174 -10 b 438 -151 306 -35 438 -65 b 267 -254 438 -208 379 -254 b 99 -133 146 -254 99 -194 b 174 -10 99 -78 135 -33 z m 308 271 b 218 425 243 271 218 322 b 335 614 218 546 264 614 b 429 461 396 614 429 560 b 308 271 429 371 401 271 z m 569 771 l 589 865 l 186 865 l 167 771 z "},"ğ":{"ha":658,"x_min":0,"x_max":0,"o":"m 249 -317 b 590 -99 476 -317 590 -224 b 225 151 590 114 225 72 b 313 217 225 175 251 211 b 590 444 493 224 590 324 b 546 572 590 507 564 546 l 546 576 l 661 557 l 669 649 l 475 649 b 347 665 440 658 399 665 b 60 425 172 665 60 565 b 192 239 60 310 133 263 l 192 231 b 71 111 129 214 71 171 b 129 21 71 69 99 36 l 129 14 b -40 -150 21 -12 -40 -75 b 249 -317 -40 -242 35 -317 z m 174 -10 b 438 -151 306 -35 438 -65 b 267 -254 438 -208 379 -254 b 99 -133 146 -254 99 -194 b 174 -10 99 -78 135 -33 z m 308 271 b 218 425 243 271 218 322 b 335 614 218 546 264 614 b 429 461 396 614 429 560 b 308 271 429 371 401 271 z m 364 735 b 619 953 493 735 575 806 l 565 953 b 382 840 517 858 469 840 b 243 953 296 840 246 857 l 194 953 b 189 894 190 931 189 911 b 364 735 189 786 256 735 z "},"ġ":{"ha":658,"x_min":0,"x_max":0,"o":"m 249 -317 b 590 -99 476 -317 590 -224 b 225 151 590 114 225 72 b 313 217 225 175 251 211 b 590 444 493 224 590 324 b 546 572 590 507 564 546 l 546 576 l 661 557 l 669 649 l 475 649 b 347 665 440 658 399 665 b 60 425 172 665 60 565 b 192 239 60 310 133 263 l 192 231 b 71 111 129 214 71 171 b 129 21 71 69 99 36 l 129 14 b -40 -150 21 -12 -40 -75 b 249 -317 -40 -242 35 -317 z m 174 -10 b 438 -151 306 -35 438 -65 b 267 -254 438 -208 379 -254 b 99 -133 146 -254 99 -194 b 174 -10 99 -78 135 -33 z m 308 271 b 218 425 243 271 218 322 b 335 614 218 546 264 614 b 429 461 396 614 429 560 b 308 271 429 371 401 271 z m 385 760 b 483 857 446 760 483 797 b 386 953 483 914 449 953 b 288 856 324 953 288 915 b 385 760 288 797 325 760 z "},"ģ":{"ha":658,"x_min":0,"x_max":0,"o":"m 249 -317 b 590 -99 476 -317 590 -224 b 225 151 590 114 225 72 b 313 217 225 175 251 211 b 590 444 493 224 590 324 b 546 572 590 507 564 546 l 546 576 l 661 557 l 669 649 l 475 649 b 347 665 440 658 399 665 b 60 425 172 665 60 565 b 192 239 60 310 133 263 l 192 231 b 71 111 129 214 71 171 b 129 21 71 69 99 36 l 129 14 b -40 -150 21 -12 -40 -75 b 249 -317 -40 -242 35 -317 z m 174 -10 b 438 -151 306 -35 438 -65 b 267 -254 438 -208 379 -254 b 99 -133 146 -254 99 -194 b 174 -10 99 -78 135 -33 z m 308 271 b 218 425 243 271 218 322 b 335 614 218 546 264 614 b 429 461 396 614 429 560 b 308 271 429 371 401 271 z m 372 726 b 471 818 439 726 471 774 b 393 894 471 865 436 894 b 365 889 382 894 374 893 b 515 1031 379 975 458 1010 l 503 1071 b 269 844 404 1049 269 976 b 372 726 269 772 307 726 z "},"ɠ":{"ha":754,"x_min":0,"x_max":0,"o":"m 196 -312 b 579 33 403 -312 532 -210 l 724 771 b 833 926 743 876 778 926 b 981 817 908 926 906 817 b 1054 892 1015 817 1054 843 b 894 989 1054 958 983 989 b 547 671 693 989 579 833 l 539 624 l 529 624 b 406 667 507 644 471 667 b 43 221 201 667 43 467 b 232 -19 43 67 108 -19 b 424 86 321 -19 369 29 l 432 86 l 406 -39 b 238 -251 375 -181 322 -251 b 53 -117 136 -251 143 -117 b -24 -196 6 -117 -24 -150 b 196 -312 -24 -283 89 -312 z m 300 88 b 215 235 231 88 215 151 b 400 608 215 425 288 608 b 496 483 458 608 496 560 b 456 243 496 440 486 385 b 300 88 436 158 372 88 z "},"ĥ":{"ha":810,"x_min":0,"x_max":0,"o":"m 556 -15 b 783 128 696 -15 747 78 l 744 156 b 646 88 726 133 693 88 b 617 115 625 88 617 99 b 622 147 617 131 622 147 l 700 458 b 714 563 704 479 714 526 b 601 667 714 615 692 667 b 279 394 431 667 336 493 l 264 394 l 311 578 l 404 981 l 344 981 l 128 965 l 128 915 b 171 918 128 915 154 918 b 218 879 203 918 218 903 b 213 835 218 861 213 835 l 35 0 l 201 0 l 251 219 b 506 549 292 311 418 549 b 540 504 531 549 540 529 b 531 442 540 478 531 442 l 450 126 b 442 67 449 119 442 92 b 556 -15 442 25 460 -15 z m 374 1019 l 531 1121 l 653 1019 l 722 1019 l 608 1213 l 490 1213 l 297 1019 z "},"ḧ":{"ha":810,"x_min":0,"x_max":0,"o":"m 556 -15 b 783 128 696 -15 747 78 l 744 156 b 646 88 726 133 693 88 b 617 115 625 88 617 99 b 622 147 617 131 622 147 l 700 458 b 714 563 704 479 714 526 b 601 667 714 615 692 667 b 279 394 431 667 336 493 l 264 394 l 311 578 l 404 981 l 344 981 l 128 965 l 128 915 b 171 918 128 915 154 918 b 218 879 203 918 218 903 b 213 835 218 861 213 835 l 35 0 l 201 0 l 251 219 b 506 549 292 311 418 549 b 540 504 531 549 540 529 b 531 442 540 478 531 442 l 450 126 b 442 67 449 119 442 92 b 556 -15 442 25 460 -15 z m 681 1025 b 774 1118 739 1025 774 1061 b 681 1208 774 1171 742 1208 b 588 1117 622 1208 588 1172 b 681 1025 588 1061 624 1025 z m 376 1025 b 471 1118 435 1025 471 1061 b 378 1208 471 1171 438 1208 b 285 1117 319 1208 285 1172 b 376 1025 285 1061 321 1025 z "},"ḣ":{"ha":810,"x_min":0,"x_max":0,"o":"m 556 -15 b 783 128 696 -15 747 78 l 744 156 b 646 88 726 133 693 88 b 617 115 625 88 617 99 b 622 147 617 131 622 147 l 700 458 b 714 563 704 479 714 526 b 601 667 714 615 692 667 b 279 394 431 667 336 493 l 264 394 l 311 578 l 404 981 l 344 981 l 128 965 l 128 915 b 171 918 128 915 154 918 b 218 879 203 918 218 903 b 213 835 218 861 213 835 l 35 0 l 201 0 l 251 219 b 506 549 292 311 418 549 b 540 504 531 549 540 529 b 531 442 540 478 531 442 l 450 126 b 442 67 449 119 442 92 b 556 -15 442 25 460 -15 z m 528 1021 b 626 1117 589 1021 626 1057 b 529 1213 626 1175 592 1213 b 432 1115 468 1213 432 1175 b 528 1021 432 1057 469 1021 z "},"ẖ":{"ha":810,"x_min":0,"x_max":0,"o":"m 556 -15 b 783 128 696 -15 747 78 l 744 156 b 646 88 726 133 693 88 b 617 115 625 88 617 99 b 622 147 617 131 622 147 l 700 458 b 714 563 704 479 714 526 b 601 667 714 615 692 667 b 279 394 431 667 336 493 l 264 394 l 311 578 l 404 981 l 344 981 l 128 965 l 128 915 b 171 918 128 915 154 918 b 218 879 203 918 218 903 b 213 835 218 861 213 835 l 35 0 l 201 0 l 251 219 b 506 549 292 311 418 549 b 540 504 531 549 540 529 b 531 442 540 478 531 442 l 450 126 b 442 67 449 119 442 92 b 556 -15 442 25 460 -15 z m 482 -204 l 501 -111 l 99 -111 l 79 -204 z "},"ḫ":{"ha":810,"x_min":0,"x_max":0,"o":"m 556 -15 b 783 128 696 -15 747 78 l 744 156 b 646 88 726 133 693 88 b 617 115 625 88 617 99 b 622 147 617 131 622 147 l 700 458 b 714 563 704 479 714 526 b 601 667 714 615 692 667 b 279 394 431 667 336 493 l 264 394 l 311 578 l 404 981 l 344 981 l 128 965 l 128 915 b 171 918 128 915 154 918 b 218 879 203 918 218 903 b 213 835 218 861 213 835 l 35 0 l 201 0 l 251 219 b 506 549 292 311 418 549 b 540 504 531 549 540 529 b 531 442 540 478 531 442 l 450 126 b 442 67 449 119 442 92 b 556 -15 442 25 460 -15 z m 267 -287 b 522 -69 396 -287 478 -217 l 468 -69 b 285 -182 419 -164 372 -182 b 146 -69 199 -182 149 -164 l 97 -69 b 92 -126 93 -90 92 -110 b 267 -287 92 -236 158 -287 z "},"ḥ":{"ha":810,"x_min":0,"x_max":0,"o":"m 556 -15 b 783 128 696 -15 747 78 l 744 156 b 646 88 726 133 693 88 b 617 115 625 88 617 99 b 622 147 617 131 622 147 l 700 458 b 714 563 704 479 714 526 b 601 667 714 615 692 667 b 279 394 431 667 336 493 l 264 394 l 311 578 l 404 981 l 344 981 l 128 965 l 128 915 b 171 918 128 915 154 918 b 218 879 203 918 218 903 b 213 835 218 861 213 835 l 35 0 l 201 0 l 251 219 b 506 549 292 311 418 549 b 540 504 531 549 540 529 b 531 442 540 478 531 442 l 450 126 b 442 67 449 119 442 92 b 556 -15 442 25 460 -15 z m 282 -285 b 382 -187 344 -285 382 -247 b 283 -92 382 -131 347 -92 b 185 -189 222 -92 185 -131 b 282 -285 185 -247 224 -285 z "},"ḩ":{"ha":810,"x_min":0,"x_max":0,"o":"m 556 -15 b 783 128 696 -15 747 78 l 744 156 b 646 88 726 133 693 88 b 617 115 625 88 617 99 b 622 147 617 131 622 147 l 700 458 b 714 563 704 479 714 526 b 601 667 714 615 692 667 b 279 394 431 667 336 493 l 264 394 l 311 578 l 404 981 l 344 981 l 128 965 l 128 915 b 171 918 128 915 154 918 b 218 879 203 918 218 903 b 213 835 218 861 213 835 l 35 0 l 90 0 l 36 -115 l 53 -135 b 96 -131 53 -135 78 -131 b 149 -179 131 -131 149 -146 b 71 -243 149 -222 115 -243 b -19 -215 36 -243 3 -231 l -49 -253 b 82 -304 -12 -286 33 -304 b 249 -171 165 -304 249 -257 b 140 -72 249 -107 203 -72 b 107 -75 125 -72 110 -75 l 140 0 l 201 0 l 251 219 b 506 549 292 311 418 549 b 540 504 531 549 540 529 b 531 442 540 478 531 442 l 450 126 b 442 67 449 119 442 92 b 556 -15 442 25 460 -15 z "},"ħ":{"ha":814,"x_min":0,"x_max":0,"o":"m 560 -15 b 788 128 700 -15 751 78 l 750 156 b 650 88 731 133 697 88 b 621 115 629 88 621 99 b 626 147 621 131 626 147 l 703 453 b 717 557 708 474 717 521 b 606 661 717 611 696 661 b 285 394 435 661 340 493 l 269 394 l 313 567 l 353 738 l 581 738 l 594 803 l 368 803 l 408 981 l 349 981 l 133 965 l 133 915 b 175 918 133 915 160 918 b 222 879 208 918 222 903 b 217 835 222 861 217 835 l 210 803 l 104 803 l 90 738 l 196 738 l 39 0 l 206 0 l 256 219 b 508 543 296 311 421 543 b 543 499 533 543 543 524 b 533 438 543 474 533 438 l 454 126 b 447 67 453 119 447 92 b 560 -15 447 25 465 -15 z "},"ì":{"ha":428,"x_min":0,"x_max":0,"o":"m 172 -15 b 406 128 308 -14 358 60 l 368 156 b 267 88 346 131 314 88 b 242 114 250 88 242 96 b 249 172 242 133 249 172 l 351 661 l 294 661 l 72 646 l 72 594 b 118 597 72 594 94 597 b 163 558 156 597 163 576 b 158 514 163 536 158 514 l 90 197 b 68 67 72 115 68 90 b 172 -15 68 18 101 -15 z m 321 724 l 274 944 l 136 944 l 128 907 l 260 724 z "},"í":{"ha":428,"x_min":0,"x_max":0,"o":"m 172 -15 b 406 128 308 -14 358 60 l 368 156 b 267 88 346 131 314 88 b 242 114 250 88 242 96 b 249 172 242 133 249 172 l 351 661 l 294 661 l 72 646 l 72 594 b 118 597 72 594 94 597 b 163 558 156 597 163 576 b 158 514 163 536 158 514 l 90 197 b 68 67 72 115 68 90 b 172 -15 68 18 101 -15 z m 225 724 l 393 907 l 401 944 l 251 944 l 164 724 z "},"î":{"ha":428,"x_min":0,"x_max":0,"o":"m 172 -15 b 406 128 308 -14 358 60 l 368 156 b 267 88 346 131 314 88 b 242 114 250 88 242 96 b 249 172 242 133 249 172 l 351 661 l 294 661 l 72 646 l 72 594 b 118 597 72 594 94 597 b 163 558 156 597 163 576 b 158 514 163 536 158 514 l 90 197 b 68 67 72 115 68 90 b 172 -15 68 18 101 -15 z m 122 724 l 272 849 l 372 724 l 442 724 l 347 936 l 232 936 l 51 724 z "},"ĩ":{"ha":428,"x_min":0,"x_max":0,"o":"m 172 -15 b 406 128 308 -14 358 60 l 368 156 b 267 88 346 131 314 88 b 242 114 250 88 242 96 b 249 172 242 133 249 172 l 351 661 l 294 661 l 72 646 l 72 594 b 118 597 72 594 94 597 b 163 558 156 597 163 576 b 158 514 163 536 158 514 l 90 197 b 68 67 72 115 68 90 b 172 -15 68 18 101 -15 z m 96 740 b 175 800 114 782 144 800 b 332 744 235 800 256 744 b 500 904 408 744 460 797 l 453 904 b 369 843 431 860 399 843 b 213 899 314 843 290 899 b 47 740 143 899 79 833 z "},"ï":{"ha":428,"x_min":0,"x_max":0,"o":"m 172 -15 b 406 128 308 -14 358 60 l 368 156 b 267 88 346 131 314 88 b 242 114 250 88 242 96 b 249 172 242 133 249 172 l 351 661 l 294 661 l 72 646 l 72 594 b 118 597 72 594 94 597 b 163 558 156 597 163 576 b 158 514 163 536 158 514 l 90 197 b 68 67 72 115 68 90 b 172 -15 68 18 101 -15 z m 415 760 b 510 853 474 760 510 796 b 417 943 510 907 478 943 b 324 851 358 943 324 907 b 415 760 324 794 358 760 z m 131 760 b 225 853 189 760 225 796 b 132 943 225 907 192 943 b 38 851 74 943 38 907 b 131 760 38 794 74 760 z "},"ḯ":{"ha":428,"x_min":0,"x_max":0,"o":"m 172 -15 b 406 128 308 -14 358 60 l 368 156 b 267 88 346 131 314 88 b 242 114 250 88 242 96 b 249 172 242 133 249 172 l 351 661 l 294 661 l 72 646 l 72 594 b 118 597 72 594 94 597 b 163 558 156 597 163 576 b 158 514 163 536 158 514 l 90 197 b 68 67 72 115 68 90 b 172 -15 68 18 101 -15 z m 415 760 b 510 853 474 760 510 796 b 417 943 510 907 478 943 b 324 851 358 943 324 907 b 415 760 324 794 358 760 z m 131 760 b 225 853 189 760 225 796 b 132 943 225 907 192 943 b 38 851 74 943 38 907 b 131 760 38 794 74 760 z m 278 976 l 447 1161 l 454 1197 l 304 1197 l 217 976 z "},"ī":{"ha":428,"x_min":0,"x_max":0,"o":"m 172 -15 b 406 128 308 -14 358 60 l 368 156 b 267 88 346 131 314 88 b 242 114 250 88 242 96 b 249 172 242 133 249 172 l 351 661 l 294 661 l 72 646 l 72 594 b 118 597 72 594 94 597 b 163 558 156 597 163 576 b 158 514 163 536 158 514 l 90 197 b 68 67 72 115 68 90 b 172 -15 68 18 101 -15 z m 447 771 l 467 865 l 85 865 l 65 771 z "},"ĭ":{"ha":428,"x_min":0,"x_max":0,"o":"m 172 -15 b 406 128 308 -14 358 60 l 368 156 b 267 88 346 131 314 88 b 242 114 250 88 242 96 b 249 172 242 133 249 172 l 351 661 l 294 661 l 72 646 l 72 594 b 118 597 72 594 94 597 b 163 558 156 597 163 576 b 158 514 163 536 158 514 l 90 197 b 68 67 72 115 68 90 b 172 -15 68 18 101 -15 z m 251 735 b 497 953 375 735 454 806 l 446 953 b 274 840 399 858 357 840 b 142 953 189 840 144 858 l 92 953 b 86 892 88 931 86 911 b 251 735 86 786 143 735 z "},"ỉ":{"ha":428,"x_min":0,"x_max":0,"o":"m 172 -15 b 406 128 308 -14 358 60 l 368 156 b 267 88 346 131 314 88 b 242 114 250 88 242 96 b 249 172 242 133 249 172 l 351 661 l 294 661 l 72 646 l 72 594 b 118 597 72 594 94 597 b 163 558 156 597 163 576 b 158 514 163 536 158 514 l 90 197 b 68 67 72 115 68 90 b 172 -15 68 18 101 -15 z m 274 724 l 285 771 b 438 915 338 781 438 817 b 306 1022 438 979 392 1022 b 158 938 235 1022 158 993 b 194 901 158 917 171 901 b 299 969 246 901 239 969 b 329 926 325 969 329 956 b 215 803 329 831 274 803 l 199 724 z "}}}
